<?xml version="1.0" encoding="UTF-8" standalone="no"?>
<!-- Created with Inkscape (http://www.inkscape.org/) -->

<svg
   width="412"
   height="915"
   viewBox="0 0 109.00833 242.09375"
   version="1.1"
   id="svg1"
   xml:space="preserve"
   sodipodi:docname="Document sans nom 1"
   inkscape:version="1.3.2 (091e20e, 2023-11-25, custom)"
   xmlns:inkscape="http://www.inkscape.org/namespaces/inkscape"
   xmlns:sodipodi="http://sodipodi.sourceforge.net/DTD/sodipodi-0.dtd"
   xmlns="http://www.w3.org/2000/svg"
   xmlns:svg="http://www.w3.org/2000/svg"><sodipodi:namedview
     id="namedview1"
     pagecolor="#ffffff"
     bordercolor="#000000"
     borderopacity="0.25"
     inkscape:showpageshadow="2"
     inkscape:pageopacity="0.0"
     inkscape:pagecheckerboard="0"
     inkscape:deskcolor="#d1d1d1"
     inkscape:document-units="mm"
     inkscape:zoom="1.3289991"
     inkscape:cx="409.3306"
     inkscape:cy="764.86132"
     inkscape:window-width="1920"
     inkscape:window-height="1129"
     inkscape:window-x="-8"
     inkscape:window-y="-8"
     inkscape:window-maximized="1"
     inkscape:current-layer="layer3" /><defs
     id="defs1"><inkscape:path-effect
       effect="powerstroke"
       id="path-effect16"
       is_visible="true"
       lpeversion="1.3"
       scale_width="1"
       interpolator_type="CentripetalCatmullRom"
       interpolator_beta="0.75"
       start_linecap_type="butt"
       end_linecap_type="butt"
       offset_points="53.282282,3.1641629"
       linejoin_type="spiro"
       miter_limit="4"
       not_jump="true"
       sort_points="true"
       message="&lt;b&gt;Ctrl + clic&lt;/b&gt; puis déplacement sur un nœud existant" /><inkscape:path-effect
       effect="simplify"
       id="path-effect15"
       is_visible="true"
       lpeversion="1.3"
       threshold="0.012"
       steps="1"
       smooth_angles="0"
       helper_size="0"
       simplify_individual_paths="false"
       simplify_just_coalesce="false"
       step="1" /><inkscape:path-effect
       effect="powerstroke"
       id="path-effect14"
       is_visible="true"
       lpeversion="1.3"
       scale_width="1"
       interpolator_type="CentripetalCatmullRom"
       interpolator_beta="0.75"
       start_linecap_type="butt"
       end_linecap_type="butt"
       offset_points="77.48969,2.9301744 | 297.48121,3.2652034"
       linejoin_type="spiro"
       miter_limit="4"
       not_jump="true"
       sort_points="true"
       message="&lt;b&gt;Ctrl + clic&lt;/b&gt; puis déplacement sur un nœud existant" /><inkscape:path-effect
       effect="simplify"
       id="path-effect13"
       is_visible="true"
       lpeversion="1.3"
       threshold="0.012"
       steps="1"
       smooth_angles="0"
       helper_size="0"
       simplify_individual_paths="false"
       simplify_just_coalesce="false"
       step="1" /><inkscape:path-effect
       effect="powerstroke"
       id="path-effect12"
       is_visible="true"
       lpeversion="1.3"
       scale_width="1"
       interpolator_type="CentripetalCatmullRom"
       interpolator_beta="0.75"
       start_linecap_type="butt"
       end_linecap_type="butt"
       offset_points="35.230334,2.7174575 | 177.13996,3.0418507"
       linejoin_type="spiro"
       miter_limit="4"
       not_jump="true"
       sort_points="true"
       message="&lt;b&gt;Ctrl + clic&lt;/b&gt; puis déplacement sur un nœud existant" /><inkscape:path-effect
       effect="simplify"
       id="path-effect11"
       is_visible="true"
       lpeversion="1.3"
       threshold="0.012"
       steps="1"
       smooth_angles="0"
       helper_size="0"
       simplify_individual_paths="false"
       simplify_just_coalesce="false"
       step="1" /><inkscape:path-effect
       effect="powerstroke"
       id="path-effect10"
       is_visible="true"
       lpeversion="1.3"
       scale_width="1"
       interpolator_type="CentripetalCatmullRom"
       interpolator_beta="0.75"
       start_linecap_type="butt"
       end_linecap_type="butt"
       offset_points="72.774431,2.5579199 | 229.44007,2.8823131"
       linejoin_type="spiro"
       miter_limit="4"
       not_jump="true"
       sort_points="true"
       message="&lt;b&gt;Ctrl + clic&lt;/b&gt; puis déplacement sur un nœud existant" /><inkscape:path-effect
       effect="simplify"
       id="path-effect9"
       is_visible="true"
       lpeversion="1.3"
       threshold="0.012"
       steps="1"
       smooth_angles="0"
       helper_size="0"
       simplify_individual_paths="false"
       simplify_just_coalesce="false"
       step="1" /><inkscape:path-effect
       effect="powerstroke"
       id="path-effect8"
       is_visible="true"
       lpeversion="1.3"
       scale_width="1"
       interpolator_type="CentripetalCatmullRom"
       interpolator_beta="0.75"
       start_linecap_type="butt"
       end_linecap_type="butt"
       offset_points="9.38907,3.2173421"
       linejoin_type="spiro"
       miter_limit="4"
       not_jump="true"
       sort_points="true"
       message="&lt;b&gt;Ctrl + clic&lt;/b&gt; puis déplacement sur un nœud existant" /><inkscape:path-effect
       effect="simplify"
       id="path-effect7"
       is_visible="true"
       lpeversion="1.3"
       threshold="0.012"
       steps="1"
       smooth_angles="0"
       helper_size="0"
       simplify_individual_paths="false"
       simplify_just_coalesce="false"
       step="1" /><inkscape:path-effect
       effect="powerstroke"
       id="path-effect6"
       is_visible="true"
       lpeversion="1.3"
       scale_width="1"
       interpolator_type="CentripetalCatmullRom"
       interpolator_beta="0.75"
       start_linecap_type="round"
       end_linecap_type="round"
       offset_points="101.5,0.45202327"
       linejoin_type="spiro"
       miter_limit="4"
       not_jump="true"
       sort_points="true"
       message="&lt;b&gt;Ctrl + clic&lt;/b&gt; puis déplacement sur un nœud existant" /><inkscape:path-effect
       effect="simplify"
       id="path-effect5"
       is_visible="true"
       lpeversion="1.3"
       threshold="0.012"
       steps="1"
       smooth_angles="0"
       helper_size="0"
       simplify_individual_paths="false"
       simplify_just_coalesce="false"
       step="1" /><inkscape:path-effect
       effect="powerstroke"
       id="path-effect4"
       is_visible="true"
       lpeversion="1.3"
       scale_width="1"
       interpolator_type="CentripetalCatmullRom"
       interpolator_beta="0.75"
       start_linecap_type="round"
       end_linecap_type="round"
       offset_points="4.191986,2.9035847 | 67.959564,3.2279779"
       linejoin_type="spiro"
       miter_limit="4"
       not_jump="true"
       sort_points="true"
       message="&lt;b&gt;Ctrl + clic&lt;/b&gt; puis déplacement sur un nœud existant" /><inkscape:path-effect
       effect="simplify"
       id="path-effect3"
       is_visible="true"
       lpeversion="1.3"
       threshold="0.012"
       steps="1"
       smooth_angles="0"
       helper_size="0"
       simplify_individual_paths="false"
       simplify_just_coalesce="false"
       step="1" /><inkscape:path-effect
       effect="powerstroke"
       id="path-effect2"
       is_visible="true"
       lpeversion="1.3"
       scale_width="1"
       interpolator_type="CentripetalCatmullRom"
       interpolator_beta="0.75"
       start_linecap_type="round"
       end_linecap_type="round"
       offset_points="112,0.88277485"
       linejoin_type="spiro"
       miter_limit="4"
       not_jump="true"
       sort_points="true"
       message="&lt;b&gt;Ctrl + clic&lt;/b&gt; puis déplacement sur un nœud existant" /><inkscape:path-effect
       effect="simplify"
       id="path-effect1"
       is_visible="true"
       lpeversion="1.3"
       threshold="0.012"
       steps="1"
       smooth_angles="0"
       helper_size="0"
       simplify_individual_paths="false"
       simplify_just_coalesce="false"
       step="1" /><clipPath
       id="clipPath18"
       clipPathUnits="userSpaceOnUse"><path
         style="clip-rule:evenodd"
         id="path16"
         d="M 0,1.8311e-4 H 595.2 V 841.92018 H 0 Z" /></clipPath><clipPath
       id="clipPath28"
       clipPathUnits="userSpaceOnUse"><path
         style="clip-rule:evenodd"
         id="path26"
         d="M -2.861e-6,-1.8311e-4 H 595.2 V 841.91982 H -2.861e-6 Z" /></clipPath><clipPath
       id="clipPath38"
       clipPathUnits="userSpaceOnUse"><path
         style="clip-rule:evenodd"
         id="path36"
         d="M -3.0518e-5,1.8311e-4 H 595.19997 V 841.92018 H -3.0518e-5 Z" /></clipPath><clipPath
       id="clipPath48"
       clipPathUnits="userSpaceOnUse"><path
         style="clip-rule:evenodd"
         id="path46"
         d="M 0,1.8311e-4 H 595.2 V 841.92018 H 0 Z" /></clipPath><clipPath
       id="clipPath64"
       clipPathUnits="userSpaceOnUse"><path
         style="clip-rule:evenodd"
         id="path62"
         d="M -6.1035e-5,1.8311e-4 H 595.19994 V 841.92018 H -6.1035e-5 Z" /></clipPath><clipPath
       id="clipPath76"
       clipPathUnits="userSpaceOnUse"><path
         style="clip-rule:evenodd"
         id="path74"
         d="M 3.4332e-5,2.4414e-4 H 595.20003 V 841.92024 H 3.4332e-5 Z" /></clipPath><clipPath
       id="clipPath86"
       clipPathUnits="userSpaceOnUse"><path
         style="clip-rule:evenodd"
         id="path84"
         d="M -6.1035e-5,4.2725e-4 H 595.19994 V 841.92043 H -6.1035e-5 Z" /></clipPath><clipPath
       id="clipPath140"
       clipPathUnits="userSpaceOnUse"><path
         style="clip-rule:evenodd"
         id="path138"
         d="M 3.0518e-5,4.2725e-4 H 595.20003 V 841.92043 H 3.0518e-5 Z" /></clipPath><clipPath
       id="clipPath150"
       clipPathUnits="userSpaceOnUse"><path
         style="clip-rule:evenodd"
         id="path148"
         d="M 3.0518e-5,4.2725e-4 H 595.20003 V 841.92043 H 3.0518e-5 Z" /></clipPath><clipPath
       id="clipPath160"
       clipPathUnits="userSpaceOnUse"><path
         style="clip-rule:evenodd"
         id="path158"
         d="M -6.1035e-5,0 H 595.19994 V 841.92 H -6.1035e-5 Z" /></clipPath><clipPath
       id="clipPath170"
       clipPathUnits="userSpaceOnUse"><path
         style="clip-rule:evenodd"
         id="path168"
         d="m 349.99,19.92 h 41.28 v 14.52 h -41.28 z" /></clipPath><clipPath
       id="clipPath182"
       clipPathUnits="userSpaceOnUse"><path
         style="clip-rule:evenodd"
         id="path180"
         d="M 8.869e-6,0 H 595.20001 V 841.92 H 8.869e-6 Z" /></clipPath><clipPath
       id="clipPath194"
       clipPathUnits="userSpaceOnUse"><path
         style="clip-rule:evenodd"
         id="path192"
         d="M 8.869e-6,0 H 595.20001 V 841.92 H 8.869e-6 Z" /></clipPath></defs><g
     transform="matrix(0.35277777,0,0,-0.35277777,-0.15333051,297.00533)"
     id="g10"
     style="display:none"><g
       id="g12"
       transform="matrix(0.51972245,0,0,0.81539464,-1.3740741e-6,155.42298)"
       style="stroke-width:1.53614"><g
         clip-path="url(#clipPath18)"
         id="g14"
         style="stroke-width:1.53614"><path
           id="path20"
           style="fill:#fff5e9;fill-opacity:1;fill-rule:evenodd;stroke:none;stroke-width:1.53614"
           d="M 0,0.044983 H 595.25 V 841.92498 H 0 Z" /></g></g><g
       id="g22"
       transform="matrix(0.51972245,0,0,0.81539464,-1.3740741e-6,155.42298)"
       style="stroke-width:1.53614"><g
         clip-path="url(#clipPath28)"
         id="g24"
         style="stroke-width:1.53614"><path
           id="path30"
           style="fill:#e1c7af;fill-opacity:1;fill-rule:evenodd;stroke:none;stroke-width:1.53614"
           d="m -6.6451,-1.2298 -0.4862,0.82526 -0.4862,0.8725 -0.4363,0.82524 -0.3889,0.9225 -0.3391,0.8752 -0.2917,0.9225 -0.2891,0.9698 -0.2444,0.9697 -0.1945,1.1643 -0.1445,1.1669 -0.05,1.1643 v 1.2146 l 0.05,1.164 0.0972,1.117 0.1445,1.164 0.1945,1.164 0.2418,1.165 0.2917,1.164 0.3417,1.117 0.339,1.164 0.7753,2.281 0.8752,2.282 1.8423,4.612 0.9225,2.329 0.8752,2.281 0.7753,2.331 0.3417,1.212 0.339,1.164 0.2917,1.167 0.2418,1.211 0.24179,1.167 0.14718,1.212 0.14455,1.7 0.09724,1.698 v 1.698 l -0.09724,1.7 -0.14455,1.698 -0.14718,1.698 -0.43629,3.398 -0.3889,3.398 -0.1945,1.698 -0.1446,1.7 -0.0972,1.698 -0.0473,1.698 v 1.748 l 0.1445,1.7 0.1446,1.309 0.0972,0.681 0.1472,0.678 0.1945,0.63 0.1945,0.631 0.28905,0.631 0.29173,0.583 0.533509,0.826 0.583451,0.727 0.67806,0.631 0.728,0.584 0.7779,0.483 0.8253,0.439 0.8725,0.387 0.9225,0.291 0.9698,0.242 0.9724,0.195 0.9698,0.147 1.0197,0.097 0.9694,0.047 h 1.02 l 1.02,-0.047 0.97,-0.05 1.261,-0.145 1.264,-0.194 1.262,-0.242 1.261,-0.244 1.262,-0.292 1.214,-0.339 1.212,-0.389 1.214,-0.386 1.214,-0.486 1.214,-0.487 1.164,-0.483 1.165,-0.584 1.117,-0.583 1.114,-0.581 1.117,-0.681 1.117,-0.678 1.067,-0.68 1.02,-0.776 1.019,-0.728 1.02,-0.825 0.97,-0.825 0.97,-0.875 0.922,-0.873 0.923,-0.922 0.875,-0.923 0.822,-0.97 0.826,-0.969 0.778,-1.02 0.775,-1.02 0.728,-1.067 0.681,-1.07 0.63,-1.114 1.165,-2.087 1.067,-2.136 1.117,-2.137 1.117,-2.087 0.583,-1.02 0.631,-0.969 0.678,-0.97 0.728,-0.923 0.728,-0.875 0.825,-0.822 0.825,-0.778 0.923,-0.728 0.681,-0.437 0.63,-0.389 0.678,-0.389 0.728,-0.339 0.681,-0.291 0.728,-0.292 1.456,-0.484 1.503,-0.436 1.554,-0.341 1.553,-0.34 1.553,-0.291 3.154,-0.581 1.553,-0.292 1.553,-0.389 1.506,-0.436 1.456,-0.534 0.728,-0.341 0.678,-0.289 0.728,-0.389 0.681,-0.389 0.97,-0.678 0.922,-0.728 0.875,-0.778 0.826,-0.825 0.775,-0.923 0.681,-0.97 0.678,-0.97 0.583,-1.019 0.581,-1.067 0.486,-1.117 0.436,-1.117 0.389,-1.117 0.339,-1.164 0.342,-1.165 0.242,-1.214 0.194,-1.164 0.195,-1.164 0.097,-1.215 0.095,-1.164 0.097,-1.214 0.05,-2.379 V 10.321 L 90.423,7.8951 90.326,5.5167 90.231,3.1382 90.181,0.7124 V -0.21008 -1.2298 Z" /></g></g><g
       id="g32"
       transform="matrix(0.51972245,0,0,0.81539464,-1.3740741e-6,155.42298)"
       style="stroke-width:1.53614"><g
         clip-path="url(#clipPath38)"
         id="g34"
         style="stroke-width:1.53614"><path
           id="path40"
           style="fill:#ffead7;fill-opacity:1;fill-rule:evenodd;stroke:none;stroke-width:1.53614"
           d="m 596.24,841.92 -11.23,-6.57 -5.49,-3.11 -5.5,-3.1 -10.87,-5.86 -5.37,-3.1 -5.26,-3.1 -5.14,-3.35 -5.01,-3.47 -2.39,-1.9 -2.51,-1.92 -2.27,-1.91 -2.27,-2.03 -3.47,-3.34 -3.34,-3.47 -3.22,-3.58 -2.99,-3.7 -2.86,-3.83 -2.87,-3.94 -2.63,-3.94 -2.63,-4.06 -2.86,-4.54 -2.64,-4.78 -2.5,-4.78 -1.2,-2.51 -1.07,-2.51 -0.96,-2.51 -0.83,-2.51 -0.84,-2.62 -0.71,-2.51 -0.48,-2.63 -0.48,-2.62 -0.36,-2.63 -0.12,-2.75 v -2.51 l 0.12,-2.62 0.24,-2.51 0.23,-2.51 0.48,-2.51 0.6,-2.51 0.6,-2.39 0.72,-2.51 0.83,-2.39 0.84,-2.51 2.03,-4.78 2.15,-4.65 2.39,-4.54 2.86,-5.26 3.11,-5.13 3.11,-5.02 3.34,-5.02 3.59,-4.77 3.58,-4.78 3.82,-4.66 3.94,-4.42 3.35,-3.71 3.46,-3.58 6.81,-7.29 3.34,-3.82 3.23,-3.82 2.99,-3.94 1.31,-2.04 1.43,-2.03 1.92,-3.34 1.9,-3.46 1.56,-3.58 1.56,-3.59 1.42,-3.7 1.2,-3.59 1.2,-3.82 1.07,-3.7 2.03,-7.65 1.91,-7.64 2.03,-7.77 2.03,-7.52 1.8,-5.5 1.79,-5.38 2.03,-5.25 2.27,-5.26 2.27,-5.25 2.51,-5.02 2.62,-5.13 2.75,-4.9 z" /></g></g><g
       id="g42"
       transform="matrix(0.51972245,0,0,0.81539464,0.69448544,216.43964)"
       style="stroke-width:1.53614"><g
         clip-path="url(#clipPath48)"
         id="g44"
         style="stroke-width:1.53614"><path
           id="path50"
           style="fill:#555555;fill-opacity:1;fill-rule:evenodd;stroke:none;stroke-width:1.53614"
           d="m 592.13,229.49 -0.36,-0.54 -0.18,-0.62 0.36,0.18 z m 6.11,12.85 0.54,-0.45 0.45,-0.45 0.36,-0.45 0.26,-0.53 0.18,-0.54 0.1,-0.54 v -0.9 -0.99 l -0.18,-0.9 -0.27,-0.99 v -0.63 -0.72 l -0.27,-1.35 0.18,-0.26 0.09,-0.18 v -0.27 -0.36 l -0.09,-0.09 h 0.09 l 0.09,-0.63 0.08,-0.18 v -0.36 l -0.08,-0.63 -0.18,-0.54 -0.45,-1.17 -0.9,-1.79 -0.99,-1.8 -1.17,-1.8 -1.16,-1.7 -1.35,-1.62 -0.81,-0.81 -0.36,-0.36 -0.45,-0.27 -0.54,-0.18 -0.45,-0.09 h -0.45 l -0.44,0.09 -0.46,0.18 -0.44,0.18 -0.36,0.36 -0.36,0.36 -0.54,-0.09 -0.45,-0.09 -0.54,0.09 -0.45,0.18 -0.45,0.18 -0.45,0.27 -0.36,0.45 -0.27,0.45 -0.36,0.72 -0.08,0.8 v 0.82 l 0.08,0.8 0.09,0.81 0.18,0.81 0.45,1.53 0.54,1.34 0.54,1.35 0.63,1.35 0.72,1.26 0.09,1.25 0.27,1.35 0.45,1.26 0.53,1.17 0.64,1.08 0.8,0.99 0.99,0.89 0.54,0.46 0.54,0.26 1.08,0.54 1.26,0.36 0.62,0.09 h 1.35 l 0.63,-0.09 v 0.36 l 0.09,0.27 0.27,0.09 z" /></g></g><path
       id="path52"
       style="fill:#555555;fill-opacity:1;fill-rule:evenodd;stroke:none;stroke-width:1"
       d="m 305.87743,384.69731 0.27545,-0.0734 0.23908,-0.22016 0.18709,-0.29354 0.13514,-0.36692 0.14033,0.0734 h 0.0936 l 0.23387,-0.14678 0.14034,-0.29354 0.0467,-0.14677 v -0.22016 -0.0734 l -0.0467,0.0734 0.0467,-0.36693 -0.0936,-0.44031 -0.0936,-0.36693 -0.0936,-0.29354 -0.0467,-0.212 -0.0467,-0.0816 -0.0936,-0.44032 -0.14032,-0.43216 -0.27545,-0.88062 -0.18711,-0.5137 -0.23907,-0.73386 -0.27546,-0.73385 -0.28065,-0.66047 -0.37419,-0.65232 -0.14033,-0.2283 -0.23387,-0.0652 h -0.1871 l -0.23388,0.14677 -0.14032,0.21201 -0.0936,0.29353 -0.0467,0.37509 v 0.35877 l 0.0936,0.51371 -0.14033,0.22015 -0.14032,0.22015 -0.0883,0.29355 -0.052,0.36692 v 0.44032 0.5137 l 0.1871,0.94585 0.28065,1.0274 0.32742,0.95401 0.14032,0.44032 0.1871,0.44031 0.0467,0.14678 0.18711,0.29353 0.18709,0.22016 0.0936,0.14677 0.23388,0.14677 z" /><path
       id="path54"
       style="fill:#555555;fill-opacity:1;fill-rule:evenodd;stroke:none;stroke-width:1"
       d="m 307.97712,374.14619 0.32741,-0.0734 0.23389,-0.22015 0.23387,-0.36693 0.1819,-0.36693 0.0936,-0.36693 0.0936,-0.4403 0.052,-0.43217 v -0.88062 l -0.0936,-0.80725 v -0.0734 l 0.0415,-0.36692 v -0.36693 l -0.0415,-0.44032 -0.0935,-0.36693 -0.28066,-0.73385 -0.32742,-0.73386 -0.3742,-0.65231 -0.42098,-0.58709 -0.23387,-0.36692 -0.1871,-0.36693 -0.28064,-0.29354 -0.32224,-0.22016 -0.33262,-0.0734 -0.32223,0.0734 -0.23388,0.14677 -0.23387,0.22016 -0.18711,0.29354 -0.14031,0.29355 -0.0936,0.29353 -0.0936,0.36693 -0.0467,0.66047 v 0.65232 l 0.0467,0.66047 0.14033,0.66047 0.18709,0.73386 0.37422,1.39432 0.46774,1.2394 0.22868,0.58708 0.28064,0.5137 0.23389,0.29354 0.28065,0.29355 0.28064,0.14676 0.28066,0.0734 z" /><path
       id="path56"
       style="fill:#555555;fill-opacity:1;fill-rule:evenodd;stroke:none;stroke-width:1"
       d="m 302.46806,296.54333 0.14032,-0.0652 0.28065,-0.22831 0.18711,-0.35878 0.14031,-0.44031 0.0415,-0.44031 v -0.73386 l 0.18711,0.73386 0.052,0.14676 0.0936,0.0734 h 0.13513 l 0.0936,-0.0734 0.0467,-0.0734 0.0467,-0.14676 v -0.14678 l -0.28066,-1.68786 -0.18709,-0.80725 -0.28066,-0.79908 -0.27545,-0.73385 -0.42097,-0.73386 -0.1871,-0.66048 -0.18711,-0.36692 -0.28064,-0.22016 -0.28066,-0.0734 h -0.28065 l -0.1871,0.14677 h -0.0467 l -0.0936,0.14677 -0.0415,0.0734 -0.1871,0.36692 -0.0936,0.44031 v 0.51371 l 0.0936,0.44031 v 0.29354 0.87247 l 0.0936,0.80724 0.13513,0.73385 0.0936,0.29355 0.0779,0.29354 h -0.0312 l 0.0467,0.0734 0.0936,0.44031 0.14034,0.44031 0.0936,0.22016 0.0467,0.22015 0.14033,0.2854 0.18711,0.37508 0.23386,0.212 0.28066,0.14677 z" /><g
       id="g58"
       transform="matrix(0.51972245,0,0,0.81539464,-1.3740741e-6,155.42298)"
       style="stroke-width:1.53614"><g
         clip-path="url(#clipPath64)"
         id="g60"
         style="stroke-width:1.53614"><path
           id="path66"
           style="fill:#555555;fill-opacity:1;fill-rule:evenodd;stroke:none;stroke-width:1.53614"
           d="m 591.14,156.1 -0.27,-0.28 -0.18,-0.62 -0.27,-0.63 -0.27,-0.54 -0.36,-0.45 -0.44,-0.9 -0.54,-0.81 -0.18,-0.27 -0.27,-0.45 -0.27,-0.26 -0.36,-0.18 -0.36,-0.1 h -0.36 l -0.72,-1.61 0.9,0.63 0.72,0.72 0.63,0.72 0.53,0.71 0.54,0.81 0.54,0.81 0.36,0.9 0.36,0.9 z m 6.02,6.37 0.27,-0.09 0.18,-0.17 0.18,-0.28 0.09,-0.36 -0.09,-0.89 0.18,-0.36 v -0.36 -0.36 -0.36 l -0.54,-1.53 -0.45,-1.71 -0.54,-1.61 -0.63,-1.71 -0.81,-1.53 -0.62,-1.16 -0.72,-1.17 -0.72,-1.17 -0.81,-1.08 -0.9,-1.08 -0.9,-0.99 -0.98,-0.99 -0.99,-0.89 -1.08,-0.9 -0.54,-0.36 -0.54,-0.36 -0.63,-0.27 -0.72,-0.18 h -0.63 l -0.62,0.18 -0.45,0.18 -0.36,-0.09 h -0.45 l -0.36,0.09 -0.45,0.09 -0.36,0.18 -0.27,0.18 -0.36,0.27 -0.18,0.36 -0.27,0.36 -0.09,0.36 -0.18,0.72 0.09,0.72 0.09,0.8 0.27,0.72 0.72,2.25 0.9,2.15 1.17,2.16 1.26,1.98 1.25,2.15 1.44,2.07 0.45,0.45 0.54,0.27 0.99,0.9 1.08,0.81 1.07,0.63 1.17,0.44 0.27,0.18 0.45,0.18 0.45,0.09 h 0.36 l 0.36,-0.17 0.98,-0.1 1.08,-0.18 0.09,0.28 0.27,0.17 0.27,0.09 z" /></g></g><path
       id="path68"
       style="fill:#e1c7af;fill-opacity:1;fill-rule:evenodd;stroke:none;stroke-width:1"
       d="m 0.29415115,588.97647 3.71924795,-3.40835 1.8210035,-1.61449 1.8190284,-1.61448 3.601157,-3.04142 1.78057,-1.61448 1.73951,-1.61448 1.70313,-1.73679 1.660513,-1.80203 0.790498,-0.99478 0.831556,-0.99478 0.752038,-0.98663 0.752039,-1.06001 1.148066,-1.73679 1.107529,-1.80203 1.06699,-1.85909 0.990072,-1.92433 0.949012,-1.98141 0.949014,-2.0548 0.872093,-2.04664 0.869497,-2.11187 0.949012,-2.35649 0.872096,-2.48696 0.828956,-2.47879 0.396548,-1.30463 0.355491,-1.30463 0.317031,-1.30464 0.276492,-1.30463 0.276492,-1.36171 0.238033,-1.30463 0.158515,-1.36986 0.158515,-1.36171 0.117457,-1.36171 0.04105,-1.42695 v -1.30463 l -0.04105,-1.36985 -0.079,-1.30463 -0.07745,-1.30463 -0.158515,-1.30465 -0.199054,-1.30463 -0.196975,-1.23939 -0.238032,-1.30463 -0.276492,-1.2394 -0.275974,-1.30463 -0.67304,-2.47881 -0.713059,-2.42171 -0.790498,-2.35649 -0.949533,-2.73158 -1.028011,-2.66634 -1.030609,-2.60926 -1.107529,-2.60926 -1.187046,-2.47881 -1.187046,-2.48695 -1.266044,-2.42172 -1.304502,-2.29126 -1.108049,-1.93249 -1.148067,-1.85909 -2.254036,-3.79159 -1.107529,-1.98141 -1.069069,-1.98141 -0.989551,-2.05479 -0.435008,-1.05186 -0.473467,-1.06001 -0.634061,-1.7368 -0.632503,-1.79386 -0.516084,-1.86726 -0.514005,-1.85909 -0.473463,-1.92433 -0.3965488,-1.86727 -0.3965481,-1.9814 -0.3554902,-1.92433 -0.6725208,-3.97098 -0.6319825,-3.97912 -0.6730405,-4.0362 -0.6725208,-3.90575 -0.593523,-2.86203 -0.5934191,-2.78864 -0.6727287,-2.73158 -0.7519864,-2.73157 -0.7519864,-2.73158 -0.8312441,-2.60926 -0.8698593,-2.66634 -0.91051216,-2.54403 z" /><g
       id="g70"
       transform="matrix(0.51972245,0,0,0.81539464,-1.3740741e-6,155.42298)"
       style="stroke-width:1.53614"><g
         clip-path="url(#clipPath76)"
         id="g72"
         style="stroke-width:1.53614"><path
           id="path78"
           style="fill:#35332e;fill-opacity:1;fill-rule:evenodd;stroke:none;stroke-width:1.53614"
           d="m -1.3419,548.9 2.5482,-0.79 2.4662,-0.8 2.4706,-1.03 2.4662,-1.04 2.3107,-1.19 2.311,-1.35 2.229,-1.44 2.148,-1.51 2.069,-1.67 1.992,-1.68 1.91,-1.83 1.833,-1.99 1.673,-1.99 1.591,-2.07 1.513,-2.23 1.354,-2.31 0.797,-1.59 0.716,-1.59 0.716,-1.59 0.556,-1.6 0.561,-1.59 0.396,-1.67 0.397,-1.6 0.319,-1.67 0.241,-1.67 0.238,-1.59 0.159,-1.68 0.078,-1.67 v -1.67 -1.67 l -0.16,-3.35 -0.237,-3.34 -0.479,-3.34 -0.556,-3.43 -0.638,-3.34 -0.716,-3.34 -0.715,-3.35 -1.596,-6.61 -0.875,-3.58 -0.716,-3.59 -0.715,-3.66 -0.557,-3.66 -0.159,-1.84 -0.16,-1.82 -0.159,-1.84 v -1.83 -1.83 l 0.077,-1.83 0.082,-1.83 0.238,-1.83 0.319,-1.84 0.319,-1.75 0.478,-1.67 0.479,-1.75 0.556,-1.67 0.638,-1.68 0.716,-1.59 0.716,-1.67 1.513,-3.19 1.673,-3.18 3.423,-6.21 1.673,-3.03 1.591,-3.1 1.514,-3.11 1.353,-3.1 0.634,-1.6 0.561,-1.59 0.478,-1.67 0.475,-1.68 0.401,-1.66 0.319,-1.68 0.237,-1.67 0.237,-1.75 0.082,-1.83 v -1.91 -1.84 l -0.16,-1.91 -0.241,-1.83 -0.237,-1.83 -0.319,-1.83 -0.397,-1.83 -0.479,-1.83 -0.556,-1.76 -0.556,-1.75 -0.638,-1.83 -0.716,-1.67 -0.72,-1.75 -1.591,-3.35 -1.591,-3.18 -1.755,-3.03 -1.91,-2.95 -1.987,-2.86 -2.074,-2.87 -2.147,-2.7 -2.23,-2.71 -2.388,-2.63 -2.389,-2.63 -2.47,-2.47 -2.549,-2.47 -2.548,-2.38 -2.625,-2.39 -2.631,-2.31 -5.4106,-4.46 -3.5053,-2.87 -3.583,-2.78 v 2.54 l 5.5749,4.54 5.493,4.62 2.708,2.39 2.625,2.39 2.631,2.47 2.548,2.54 2.548,2.63 2.548,2.71 2.466,2.86 2.389,2.87 2.389,3.03 2.229,3.1 2.069,3.27 1.915,3.26 1.828,3.35 0.797,1.67 0.798,1.75 0.716,1.67 0.638,1.84 0.634,1.75 0.56,1.75 0.474,1.83 0.479,1.83 0.401,1.84 0.237,1.82 0.237,1.84 0.16,1.83 0.082,1.91 0.077,1.91 -0.077,1.83 -0.16,1.75 -0.319,1.76 -0.319,1.75 -0.397,1.75 -0.478,1.67 -0.479,1.67 -0.638,1.68 -0.634,1.59 -0.638,1.59 -1.513,3.19 -1.591,3.18 -1.755,3.11 -3.423,6.29 -1.673,3.1 -1.591,3.19 -1.432,3.26 -0.638,1.59 -0.638,1.68 -0.479,1.67 -0.474,1.67 -0.478,1.75 -0.319,1.75 -0.32,1.84 -0.159,1.75 -0.16,1.83 -0.077,1.75 v 1.75 1.83 l 0.077,1.76 0.16,1.75 0.397,3.58 0.56,3.51 0.638,3.5 0.794,3.5 1.672,7.01 1.673,7.01 0.716,3.5 0.716,3.5 0.556,3.51 0.401,3.5 0.16,1.76 0.077,1.75 v 1.67 1.75 l -0.077,1.75 -0.082,1.67 -0.238,1.68 -0.241,1.67 -0.315,1.67 -0.401,1.67 -0.396,1.67 -0.557,1.59 -0.56,1.68 -0.634,1.51 -0.798,1.6 -0.797,1.59 -0.794,1.35 -0.797,1.36 -0.957,1.27 -0.876,1.27 -0.952,1.28 -1.035,1.19 -1.039,1.19 -1.113,1.12 -1.116,1.11 -1.195,1.04 -1.194,1.03 -1.272,1.04 -1.194,0.96 -1.354,0.87 -2.626,1.76 -1.595,0.95 -1.5912,0.87 -1.6729,0.8 -1.673,0.72 -1.6729,0.71 -1.7505,0.56 -1.67288,0.56 -1.75052,0.56 z" /></g></g><g
       id="g80"
       transform="matrix(0.51972245,0,0,0.81539464,-1.3740741e-6,155.42298)"
       style="stroke-width:1.53614"><g
         clip-path="url(#clipPath86)"
         id="g82"
         style="stroke-width:1.53614"><path
           id="path88"
           style="fill:#9c5e43;fill-opacity:1;fill-rule:evenodd;stroke:none;stroke-width:1.53614"
           d="m 596.24,841.88 -2.91,-0.91 -2.82,-0.91 -2.83,-1.19 -2.82,-1.18 -2.65,-1.37 -2.64,-1.55 -2.56,-1.64 -2.45,-1.73 -2.37,-1.91 -2.28,-1.92 -2.19,-2.1 -2.09,-2.28 -1.92,-2.27 -1.82,-2.37 -1.73,-2.55 -1.55,-2.64 -0.91,-1.83 -0.82,-1.82 -0.82,-1.82 -0.64,-1.82 -0.64,-1.83 -0.46,-1.91 -0.45,-1.82 -0.36,-1.92 -0.28,-1.91 -0.27,-1.82 -0.18,-1.92 -0.09,-1.91 v -1.91 -1.92 l 0.18,-3.83 0.27,-3.82 0.55,-3.83 0.63,-3.92 0.74,-3.83 0.81,-3.82 0.82,-3.83 1.83,-7.57 1,-4.1 0.82,-4.1 0.82,-4.19 0.64,-4.19 0.18,-2.1 0.18,-2.09 0.18,-2.1 v -2.1 -2.09 l -0.09,-2.1 -0.09,-2.09 -0.27,-2.1 -0.37,-2.1 -0.36,-2 -0.55,-1.92 -0.55,-2 -0.63,-1.91 -0.73,-1.92 -0.82,-1.82 -0.82,-1.91 -1.73,-3.65 -1.92,-3.64 -3.92,-7.11 -1.91,-3.47 -1.82,-3.55 -1.73,-3.55 -1.55,-3.56 -0.73,-1.82 -0.64,-1.82 -0.55,-1.92 -0.54,-1.91 -0.46,-1.91 -0.36,-1.92 -0.28,-1.91 -0.27,-2 -0.09,-2.1 v -2.19 -2.1 l 0.18,-2.18 0.28,-2.1 0.27,-2.1 0.36,-2.09 0.46,-2.1 0.55,-2.09 0.63,-2.01 0.64,-2 0.73,-2.1 0.82,-1.91 0.82,-2 1.82,-3.83 1.82,-3.65 2.01,-3.46 2.19,-3.38 2.27,-3.28 2.38,-3.27 2.45,-3.1 2.56,-3.1 2.73,-3.01 2.73,-3.01 2.83,-2.82 2.92,-2.83 2.91,-2.73 3.01,-2.73 3.01,-2.65 6.19,-5.1 4.01,-3.28 4.1,-3.19 v 2.92 l -6.38,5.19 -6.28,5.29 -3.1,2.73 -3.01,2.73 -3.01,2.83 -2.91,2.91 -2.92,3.01 -2.92,3.1 -2.82,3.28 -2.73,3.28 -2.74,3.46 -2.55,3.56 -2.37,3.73 -2.19,3.74 -2.09,3.83 -0.91,1.91 -0.92,2.01 -0.81,1.91 -0.73,2.1 -0.73,2 -0.64,2 -0.54,2.1 -0.55,2.1 -0.46,2.1 -0.27,2.09 -0.27,2.1 -0.19,2.09 -0.09,2.19 -0.09,2.19 0.09,2.09 0.18,2.01 0.37,2 0.36,2.01 0.46,2 0.54,1.92 0.55,1.91 0.73,1.91 0.73,1.83 0.73,1.82 1.73,3.64 1.82,3.65 2.01,3.55 3.92,7.2 1.91,3.56 1.82,3.64 1.64,3.74 0.73,1.82 0.73,1.91 0.55,1.92 0.54,1.91 0.55,2.01 0.37,2 0.36,2.1 0.18,2 0.19,2.1 0.08,2 v 2.01 2.09 l -0.08,2.01 -0.19,2 -0.45,4.1 -0.64,4.02 -0.73,4 -0.91,4.01 -1.92,8.02 -1.91,8.02 -0.82,4.01 -0.82,4.01 -0.63,4.01 -0.46,4.01 -0.19,2.01 -0.08,2 v 1.92 2 l 0.08,2 0.1,1.92 0.27,1.91 0.28,1.92 0.36,1.91 0.45,1.91 0.46,1.92 0.64,1.82 0.64,1.91 0.72,1.73 0.91,1.83 0.92,1.82 0.91,1.55 0.91,1.55 1.09,1.46 1.01,1.46 1.09,1.45 1.18,1.37 1.19,1.37 1.27,1.27 1.28,1.28 1.37,1.18 1.37,1.19 1.45,1.18 1.37,1.1 1.55,1 3,2.01 1.83,1.09 1.82,1 1.91,0.91 1.92,0.82 1.91,0.82 2.01,0.64 1.91,0.64 2,0.63 z" /></g></g><path
       id="path90"
       style="fill:#db9d6a;fill-opacity:1;fill-rule:evenodd;stroke:none;stroke-width:1"
       d="m 256.12441,824.20966 -0.1871,-0.44031 -0.0936,-0.5137 0.18711,0.14678 z m 3.1755,10.46967 0.28066,-0.36693 0.23386,-0.36692 0.18712,-0.36693 0.14031,-0.43216 0.0936,-0.44031 0.0467,-0.44032 v -0.73385 -0.80725 l -0.0936,-0.73385 -0.14034,-0.80724 v -0.5137 -0.58708 l -0.14031,-1.09263 0.0936,-0.22016 0.0467,-0.14677 v -0.22016 -0.29354 l -0.0467,-0.0734 h 0.0467 l 0.0467,-0.5137 0.0467,-0.14677 v -0.29355 l -0.0467,-0.5137 -0.0936,-0.4403 -0.23388,-0.94586 -0.46775,-1.46771 -0.51453,-1.46771 -0.60287,-1.45956 -0.60808,-1.39432 -0.70163,-1.32094 -0.42097,-0.65232 -0.1871,-0.29354 -0.23388,-0.22832 -0.27545,-0.14677 -0.23907,-0.0652 h -0.22867 l -0.23388,0.0652 -0.23387,0.14677 -0.23389,0.14678 -0.18709,0.29354 -0.1871,0.29354 -0.28065,-0.0734 -0.23388,-0.0734 -0.28064,0.0734 -0.23388,0.14677 -0.23388,0.14677 -0.23387,0.22016 -0.1871,0.36692 -0.13513,0.36693 -0.1871,0.58709 -0.0467,0.66046 v 0.66047 l 0.0467,0.66048 0.0415,0.65231 0.0936,0.66047 0.23906,1.24756 0.28066,1.10078 0.27546,1.09263 0.32741,1.10078 0.37421,1.02739 0.0467,1.0274 0.14033,1.09263 0.23388,1.0274 0.28065,0.954 0.32742,0.88064 0.42098,0.80723 0.50931,0.7257 0.28066,0.37509 0.28065,0.212 0.5613,0.44032 0.65485,0.29354 0.32743,0.0734 h 0.69642 l 0.32743,-0.0734 v 0.29353 l 0.0467,0.22016 0.14033,0.0734 z" /><path
       id="path92"
       style="fill:#db9d6a;fill-opacity:1;fill-rule:evenodd;stroke:none;stroke-width:1"
       d="m 263.82669,808.60301 -0.0415,-1.17417 -0.14033,-1.17416 -0.23387,-1.16602 -0.28065,-1.10079 0.32741,0.95402 0.23389,1.01924 0.22867,1.17417 0.052,0.58709 v 0.29353 l -0.052,0.29354 z m 0,2.48695 0.23907,-0.0734 0.28065,-0.14678 0.22869,-0.29354 0.23387,-0.22015 0.14032,-0.29354 0.14033,-0.36693 0.0936,-0.29354 0.18711,0.0816 h 0.14032 l 0.18711,-0.14677 0.0936,-0.14677 0.0936,-0.29355 0.0935,-0.22016 0.0467,-0.29354 v -0.29354 l -0.23387,-1.61448 -0.32742,-1.61449 -0.3742,-1.53293 -0.46775,-1.46771 -0.55611,-1.39433 -0.65485,-1.38617 -0.65484,-1.24755 -0.7484,-1.17418 -0.42098,-0.58707 -0.46775,-0.50555 -0.22869,-0.22831 -0.23387,-0.0652 -0.28064,-0.0734 -0.28066,0.0734 -0.23387,0.212 -0.1871,0.14677 -0.14032,0.29355 -0.0936,0.29354 -0.0936,0.36692 -0.0936,0.36693 -0.0467,0.73386 v 0.88062 l -0.0935,0.58709 v 0.66046 l 0.14031,0.94586 0.18711,1.0274 0.28065,0.95401 0.28066,0.88063 0.28064,0.88062 0.23387,1.09263 0.32223,1.0274 0.3742,0.95402 0.46775,0.88062 0.42098,0.94586 0.46775,0.88063 0.23387,0.29353 0.23387,0.22016 0.23388,0.14677 0.28065,0.0734 z" /><path
       id="path94"
       style="fill:#db9d6a;fill-opacity:1;fill-rule:evenodd;stroke:none;stroke-width:1"
       d="m 262.19476,779.59127 -0.18709,-0.36693 -0.23389,-0.58709 -0.18709,-0.65231 -0.13513,-0.66862 v -0.13862 l 0.32222,0.66047 0.23389,0.57893 0.0936,0.5137 z m 0.37421,2.70711 0.1871,-0.0652 0.1871,-0.0815 0.1871,-0.21201 0.1871,-0.29354 0.0936,-0.36692 0.0936,-0.36693 0.0467,-0.44032 0.14033,0.14677 0.13512,0.0734 h 0.23907 l 0.1871,-0.14677 0.0936,-0.29354 0.0415,-0.29355 v -0.95401 -0.5137 l -0.0936,-0.4403 -0.18711,-0.94586 -0.22868,-0.88063 -0.32742,-0.88063 -0.32743,-0.73385 -0.46774,-0.66047 -0.46775,-0.65231 -0.0936,-0.14678 h -0.18709 l -0.14033,0.0652 -0.0936,0.0816 -0.14031,0.14676 -0.0936,0.21201 -0.0467,0.2283 v 0.21201 l 0.0467,0.36692 -0.14033,0.29355 h -0.3742 l -0.13514,0.0734 -0.14031,0.0734 -0.14033,0.14677 -0.14033,0.22016 -0.0935,0.22016 -0.0936,0.22015 -0.0936,0.5137 v 0.58708 0.50555 l 0.0936,0.58708 0.23388,1.0274 0.28066,0.95402 0.41577,0.88062 0.42098,0.88062 0.37419,0.35878 0.14033,0.14677 0.23388,0.0815 z" /><path
       id="path96"
       style="fill:#db9d6a;fill-opacity:1;fill-rule:evenodd;stroke:none;stroke-width:1"
       d="m 272.79191,816.21879 0.32742,-0.0734 0.37419,-0.22015 0.0936,-0.14677 0.3742,-0.0734 0.32743,-0.28539 0.28064,-0.37508 0.0936,-0.212 0.14032,-0.29355 0.0936,-0.44031 0.0467,-0.36692 0.0467,-0.44032 v -0.44031 l -0.0936,-0.80724 -0.0936,-0.88063 -0.23388,-1.53295 -0.32741,-1.54109 -0.42098,-1.5411 -0.46775,-1.39432 -0.50934,-1.38617 -0.61327,-1.39433 -0.64965,-1.24755 -0.3742,-0.57893 -0.37419,-0.52185 -0.28066,-0.28539 -0.28064,-0.22015 -0.28065,-0.14677 h -0.60288 l -0.28065,0.14677 -0.28065,0.29353 -0.23389,0.35878 -0.18709,0.29354 -0.0936,0.37508 -0.1871,0.72571 -0.0936,0.80723 -0.0467,0.80725 v 1.61448 l 0.14033,1.53293 0.28065,1.54111 0.32743,1.46771 0.42097,1.45955 0.51453,1.39432 0.60287,1.24756 0.70162,1.16601 0.51453,0.73386 0.32742,0.29354 0.28066,0.29355 0.32223,0.22015 z" /><path
       id="path98"
       style="fill:#db9d6a;fill-opacity:1;fill-rule:evenodd;stroke:none;stroke-width:1"
       d="m 270.31802,829.40373 0.23388,-0.14677 0.14033,-0.14678 0.1871,-0.14677 0.0936,-0.14677 0.0467,-0.0652 0.14032,-0.14677 0.0467,-0.22831 0.0936,-0.29354 0.0936,-0.7257 v -0.73386 -0.14677 -0.58708 l -0.0936,-0.66047 -0.0467,-0.29355 -0.0467,-0.36693 -0.14032,-0.4403 -0.1871,-0.35878 -0.14033,-0.36692 -0.14033,-0.29355 -0.0936,-0.0734 -0.0467,-0.0734 -0.0936,-0.14677 h -0.46775 l -0.1871,0.0734 h -0.0415 l -0.23908,0.14678 -0.1819,0.22015 -0.14032,0.28539 -0.0936,0.29354 -0.0936,0.37508 -0.0936,0.29355 -0.0467,0.7257 0.0467,0.73386 0.14032,0.66046 0.23387,0.58709 0.28065,0.5137 0.18711,0.212 0.22867,0.2283 0.052,0.0652 -0.052,0.29354 v 0.29354 l -0.0415,0.14677 v 0.0734 l 0.0415,0.14677 h 0.14552 l 0.0415,0.0734 0.0935,0.0734 z" /><path
       id="path100"
       style="fill:#db9d6a;fill-opacity:1;fill-rule:evenodd;stroke:none;stroke-width:1"
       d="m 254.2586,808.60301 0.28066,-0.0734 0.23387,-0.22016 0.1871,-0.29354 0.14032,-0.36692 0.13513,0.0734 h 0.0936 l 0.23906,-0.14677 0.13514,-0.29355 0.052,-0.14677 v -0.22016 -0.0734 l -0.052,0.0734 0.052,-0.36693 -0.0936,-0.4403 -0.0936,-0.36693 -0.0936,-0.29355 -0.052,-0.212 -0.0415,-0.0816 -0.0936,-0.44032 -0.14552,-0.43215 -0.27546,-0.88063 -0.1871,-0.5137 -0.23387,-0.73385 -0.28066,-0.73386 -0.28065,-0.66047 -0.3742,-0.65232 -0.14032,-0.2283 -0.23387,-0.0652 h -0.18711 l -0.23387,0.14677 -0.13514,0.21201 -0.0936,0.29355 -0.052,0.37507 v 0.35878 l 0.0936,0.5137 -0.13513,0.22016 -0.14552,0.22015 -0.0883,0.29354 -0.0467,0.36693 v 0.44031 0.5137 l 0.18711,0.94585 0.28064,1.02741 0.32222,0.954 0.14033,0.44032 0.1871,0.44032 0.0467,0.14677 0.1871,0.29353 0.18711,0.22016 0.0935,0.14677 0.23389,0.14677 z" /><path
       id="path102"
       style="fill:#db9d6a;fill-opacity:1;fill-rule:evenodd;stroke:none;stroke-width:1"
       d="m 245.6676,826.69662 0.23387,-0.14678 0.28064,-0.22015 0.1871,-0.29354 0.14034,-0.36693 0.0936,-0.44031 h 0.28066 l 0.28065,-0.22016 0.1819,-0.29355 0.14032,-0.4403 0.0936,-0.79909 v -0.80724 l -0.0467,-0.88063 -0.0936,-0.80724 -0.14032,-0.80724 -0.13513,-0.79908 -0.23906,-0.80725 -0.18711,-0.73385 -0.36901,-1.10079 -0.23387,-0.58708 -0.28065,-0.58708 -0.32743,-0.5137 -0.32741,-0.44032 -0.32744,-0.35877 -0.1871,-0.14677 -0.1871,-0.0734 -0.22867,-0.66046 -0.28065,-0.58709 -0.18711,-0.36693 -0.23387,-0.29354 -0.28065,-0.88063 -0.37419,-0.88062 -0.37421,-0.87247 -0.42098,-0.80725 -0.14032,-0.14677 -0.18709,-0.0734 h -0.14033 l -0.14033,0.14677 -0.13512,0.14677 -0.0936,0.29354 v 0.212 0.29355 l 0.41578,2.34834 -0.1871,0.22015 -0.13512,0.36693 -0.0936,0.36693 -0.052,0.36693 -0.0415,0.44031 v 0.44031 l 0.0415,0.88063 0.0936,0.87247 -0.0936,0.95401 v 0.95402 l 0.0936,0.88062 0.1871,0.88063 0.1871,0.87246 0.28065,0.88063 0.32743,0.73385 0.3742,0.80725 0.3742,0.7257 0.42098,0.81539 0.46255,0.65232 0.46775,0.58709 0.32742,0.29354 0.14032,0.29353 0.23388,0.29355 0.28065,0.14677 z" /><path
       id="path104"
       style="fill:#db9d6a;fill-opacity:1;fill-rule:evenodd;stroke:none;stroke-width:1"
       d="m 246.08857,806.03452 0.28064,-0.14677 0.27546,-0.22016 0.1871,-0.36693 0.0936,-0.44032 0.052,-0.4403 v -0.50555 l -0.0936,-0.36692 0.13511,-0.22016 0.052,-0.22016 0.0936,-0.58709 -0.052,-1.02739 -0.0936,-1.09263 0.18712,0.212 0.18709,0.14677 h 0.23388 l 0.18709,-0.14677 0.18711,-0.212 0.0936,-0.37508 v -0.35877 l -0.0467,-0.29354 -0.14034,-0.29355 -0.65485,-1.10078 -0.64965,-0.95402 -1.40324,-1.89986 -0.18711,-0.29355 -0.28065,-0.29354 -0.23388,-0.29354 -0.14031,-0.22016 -0.14033,-0.14676 -0.18711,-0.14677 -0.13512,-0.0734 -0.42097,-0.44032 -0.14033,-0.14677 -0.1871,-0.0734 h -0.14033 l -0.1871,0.0734 -0.14032,0.0734 -0.1871,0.14677 -0.0936,0.14677 -0.14031,0.22016 -0.0936,0.22016 -0.0467,0.29353 v 0.29354 0.29355 l -0.1871,0.44031 -0.18709,0.57893 -0.0467,0.58708 -0.0467,0.58709 v 0.66047 l 0.0936,0.58708 0.0936,0.58709 0.14031,0.58709 0.3742,1.09262 0.42097,1.0274 0.60808,1.24755 0.64965,1.10078 0.74841,1.01924 0.7484,0.95402 0.14032,0.14677 h 0.14033 z" /><path
       id="path106"
       style="fill:#db9d6a;fill-opacity:1;fill-rule:evenodd;stroke:none;stroke-width:1"
       d="m 234.9769,807.86916 0.32742,-0.14677 0.28066,-0.29355 h 0.0415 l 0.1871,-0.0734 0.23388,-0.0734 0.1871,-0.22016 0.14032,-0.22015 0.14033,-0.22016 0.0936,-0.36692 0.0467,-0.29355 0.0467,-0.36693 0.14033,-0.29354 0.14031,-0.35877 0.0936,-0.37508 0.0936,-0.35878 0.0467,-0.80724 v -0.80724 -0.95401 l -0.0936,-0.88063 -0.0936,-0.88062 -0.18709,-0.87247 -0.46776,-1.76126 -0.51452,-1.67971 -0.32743,-0.80724 -0.32223,-0.73386 -0.7484,-1.5411 -0.3742,-0.7257 -0.42097,-0.66862 -0.23387,-0.35877 -0.28065,-0.29354 -0.23387,-0.22016 -0.28065,-0.14677 -0.37421,-0.0734 -0.32743,0.14677 -0.28064,0.14677 -0.22868,0.36693 -0.18711,-0.29354 -0.1871,-0.22016 -0.32742,-0.29354 -0.37419,-0.14676 H 229.977 l -0.32742,0.0734 -0.32743,0.14676 -0.32223,0.29355 -0.28065,0.44031 -0.1871,0.43216 -0.14032,0.44032 -0.0936,0.44031 -0.0467,0.44031 -0.0467,0.44031 v 0.95402 l 0.0936,0.88062 0.18709,0.94586 0.18192,0.88062 0.23906,0.95402 0.22868,0.88062 0.5613,1.67972 0.65486,1.61448 0.42097,0.88062 0.42098,0.80725 0.46255,0.80723 0.51972,0.80725 0.50932,0.7257 0.51453,0.73385 0.56131,0.66047 0.60807,0.58709 0.14032,0.14677 0.14033,0.0734 z" /><path
       id="path108"
       style="fill:#db9d6a;fill-opacity:1;fill-rule:evenodd;stroke:none;stroke-width:1"
       d="m 273.49352,794.31729 0.28066,-0.0734 0.28065,-0.0734 0.23388,-0.22016 0.23387,-0.29353 0.23387,-0.44032 0.14033,-0.5137 0.0936,-0.51369 v -0.57894 l 0.0936,-0.22831 0.0415,-0.21199 0.052,-0.73386 v -0.36693 l -0.052,-0.44031 -0.13514,-0.66047 -0.1871,-0.66048 -0.32742,-1.09262 -0.1871,-0.95402 -0.18711,-0.88062 -0.23386,-0.88063 -0.28066,-0.88062 -0.28065,-0.88063 -0.32742,-0.79909 -0.22868,-0.36692 -0.1871,-0.29354 -0.28066,-0.29355 -0.28065,-0.22015 -0.23387,-0.0734 -0.23388,-0.0734 -0.23386,0.0734 -0.18711,0.0734 -0.23387,0.14677 -0.23388,0.14677 -0.14032,0.22016 -0.18711,0.29354 -0.23387,-0.14677 h -0.28065 l -0.22867,0.0734 -0.23388,0.14676 -0.1871,0.29354 -0.14033,0.29355 -0.0936,0.44031 -0.0467,0.35877 0.14033,1.61448 0.23388,1.46771 0.32743,1.53295 0.41578,1.39432 0.23387,0.66048 0.23388,0.66046 0.56129,1.24755 0.32743,0.57894 0.32743,0.58708 0.37419,0.5137 0.369,0.44032 0.23908,0.22014 0.28065,0.22016 0.27545,0.0734 z" /><path
       id="path110"
       style="fill:#db9d6a;fill-opacity:1;fill-rule:evenodd;stroke:none;stroke-width:1"
       d="m 256.35828,789.33524 0.32742,-0.0734 0.23388,-0.22016 0.23388,-0.36693 0.1871,-0.36693 0.0936,-0.36692 0.0936,-0.44031 0.0467,-0.43216 v -0.88063 l -0.0936,-0.80724 v -0.0734 l 0.0467,-0.36693 v -0.36693 l -0.0467,-0.44032 -0.0936,-0.36692 -0.28066,-0.73386 -0.32742,-0.73385 -0.37421,-0.65232 -0.42097,-0.58708 -0.22868,-0.36693 -0.1871,-0.36693 -0.28064,-0.29354 -0.32743,-0.22015 -0.32743,-0.0734 -0.32742,0.0734 -0.23388,0.14676 -0.23387,0.22016 -0.1871,0.29354 -0.14033,0.29355 -0.0936,0.29354 -0.0936,0.36693 -0.0467,0.66046 v 0.65232 l 0.0467,0.66047 0.14032,0.66047 0.18711,0.73386 0.3742,1.39432 0.46775,1.2394 0.23387,0.58709 0.28065,0.51369 0.22868,0.29354 0.28065,0.29355 0.28064,0.14677 0.28066,0.0734 z" /><path
       id="path112"
       style="fill:#db9d6a;fill-opacity:1;fill-rule:evenodd;stroke:none;stroke-width:1"
       d="m 250.84922,778.19695 0.14033,-0.0652 0.28064,-0.22831 0.18712,-0.35878 0.14032,-0.4403 0.0467,-0.44032 v -0.73386 l 0.1871,0.73386 0.0467,0.14677 0.0936,0.0734 h 0.14031 l 0.0936,-0.0734 0.0415,-0.0734 0.052,-0.14677 v -0.14678 l -0.28065,-1.68786 -0.18711,-0.80724 -0.28065,-0.79909 -0.28066,-0.73386 -0.42097,-0.73385 -0.1871,-0.66047 -0.1871,-0.36693 -0.28064,-0.22016 -0.28066,-0.0734 h -0.28065 l -0.18709,0.14677 h -0.0415 l -0.0936,0.14677 -0.0467,0.0734 -0.18709,0.36693 -0.0936,0.44031 v 0.5137 l 0.0936,0.44031 v 0.29354 0.87248 l 0.0935,0.80723 0.14033,0.73386 0.0936,0.29355 0.0728,0.29354 h -0.0312 l 0.052,0.0734 0.0935,0.44031 0.13514,0.44032 0.0936,0.22016 0.052,0.22015 0.13512,0.28539 0.18711,0.37508 0.23386,0.21201 0.28066,0.14677 z" /><path
       id="path114"
       style="fill:#db9d6a;fill-opacity:1;fill-rule:evenodd;stroke:none;stroke-width:1"
       d="m 244.87241,786.62812 0.18711,-0.0816 h 0.1871 l 0.14032,-0.14676 0.1871,-0.13863 0.14032,-0.0734 0.14033,-0.14677 0.0936,-0.22016 0.0936,-0.22015 0.0936,-0.22016 0.0467,-0.29354 0.0467,-0.29354 v -0.29355 l 0.0467,-0.22016 0.0467,-0.22015 -0.0936,-1.32094 -0.18709,-1.31278 -0.28066,-1.32095 -0.32742,-1.32093 -0.1871,-0.79909 -0.23388,-1.17417 -0.28065,-1.10078 -0.32742,-1.10078 -0.3742,-1.10078 -0.13513,-0.212 -0.14552,-0.14678 h -0.32223 l -0.3742,-0.88063 -0.23388,-0.36693 -0.23387,-0.36692 -0.3742,-0.44031 -0.42097,-0.36693 -0.69643,-1.10078 -0.1871,-0.14677 -0.23388,-0.13863 h -0.1871 l -0.23388,0.13863 -0.18709,0.14677 -0.18711,0.29354 -0.0467,0.29354 -0.0467,0.36693 0.14032,0.95401 -0.14032,0.36692 -0.0936,0.36693 -0.0467,0.58709 v 0.73385 l 0.0936,0.65232 0.0467,0.58708 0.18709,1.24755 0.28065,1.17418 0.28066,1.31278 0.3742,1.24756 0.46775,1.24755 0.46255,1.09263 0.51452,1.10078 0.56131,1.10078 0.65484,0.95402 0.64966,0.88062 0.14033,0.21201 0.18709,0.0815 z" /><path
       id="path116"
       style="fill:#db9d6a;fill-opacity:1;fill-rule:evenodd;stroke:none;stroke-width:1"
       d="m 239.64401,789.11508 v -0.0734 h 0.0467 z m -0.51453,1.97325 0.28065,-0.14677 0.23388,-0.212 0.18709,-0.29354 0.0936,-0.36693 0.0467,-0.44031 v -0.29354 -0.22016 l -0.14033,-0.44032 v -0.22015 -0.22016 l -0.0936,-0.51369 -0.0936,-0.50555 -0.1871,-0.66863 -0.3742,-0.94585 -0.23387,-0.44031 -0.27545,-0.44032 -0.14553,-0.14677 -0.13513,-0.0734 -0.14553,-0.0734 h -0.18709 l -0.13514,0.0734 -0.18709,0.14677 -0.0936,0.14678 -0.0936,0.22015 -0.1871,0.88063 -0.0467,0.88063 0.0467,0.7257 0.0936,0.73385 0.1871,0.73386 0.23387,0.66047 0.14033,0.36692 0.1871,0.29354 0.22868,0.36693 0.28065,0.22016 0.23388,0.14677 z" /><path
       id="path118"
       style="fill:#db9d6a;fill-opacity:1;fill-rule:evenodd;stroke:none;stroke-width:1"
       d="m 255.60988,764.3597 -0.13513,-0.22831 -0.0935,-0.50555 -0.14553,-0.51369 -0.13513,-0.44032 -0.1871,-0.36693 -0.23388,-0.73385 -0.28064,-0.66047 -0.0936,-0.22016 -0.14033,-0.36693 -0.14031,-0.212 -0.18712,-0.14677 -0.18709,-0.0816 h -0.1871 l -0.3742,-1.31278 0.46775,0.5137 0.3742,0.58707 0.32742,0.58709 0.28066,0.57893 0.28065,0.66047 0.28064,0.66047 0.18711,0.73386 0.18709,0.73385 z m 3.12873,5.19406 0.14033,-0.0734 0.0936,-0.13863 0.0936,-0.2283 0.0467,-0.29355 -0.0467,-0.7257 0.0936,-0.29354 v -0.29354 -0.29354 -0.29354 l -0.28065,-1.24755 -0.22868,-1.39434 -0.28066,-1.31278 -0.33261,-1.39432 -0.41578,-1.24756 -0.32743,-0.94586 -0.37419,-0.95401 -0.3742,-0.954 -0.42098,-0.88064 -0.46255,-0.87247 -0.46775,-0.81539 -0.51454,-0.79909 -0.51452,-0.73385 -0.5613,-0.73386 -0.28065,-0.29354 -0.28065,-0.29355 -0.32742,-0.22014 -0.3742,-0.14678 h -0.32222 l -0.32744,0.14678 -0.23387,0.14676 -0.18711,-0.0734 h -0.23387 l -0.1871,0.0734 -0.23387,0.0734 -0.18711,0.14678 -0.14031,0.14677 -0.18711,0.22016 -0.0936,0.29354 -0.13512,0.29354 -0.052,0.29355 -0.0936,0.58707 0.052,0.58709 0.0415,0.66047 0.14552,0.58708 0.36901,1.82648 0.46775,1.75311 0.60808,1.76125 0.65484,1.61448 0.64966,1.7531 0.7484,1.68786 0.23387,0.36693 0.28066,0.22016 0.51452,0.73385 0.5613,0.66047 0.5561,0.51371 0.60807,0.35877 0.14033,0.14677 0.23389,0.14677 0.23386,0.0734 h 0.18711 l 0.18709,-0.13863 0.51453,-0.0815 0.56131,-0.14677 0.0415,0.2283 0.14553,0.13863 0.13512,0.0734 z" /><path
       id="path120"
       style="fill:#db9d6a;fill-opacity:1;fill-rule:evenodd;stroke:none;stroke-width:1"
       d="m 246.50955,767.65389 0.18709,-0.14677 0.18711,-0.14677 0.13511,-0.29354 0.0936,-0.29355 0.0936,-0.29354 v -0.36693 -0.36692 l 0.14032,-0.44031 0.0467,-0.50555 v -0.52186 l -0.0467,-0.50554 v -0.66046 l -0.0467,-0.58709 -0.13513,-0.58709 -0.1871,-0.58708 -0.23907,-0.5137 -0.27545,-0.5137 -0.32743,-0.35877 -0.1871,-0.14677 -0.23388,-0.0815 v -0.0652 l -0.42098,-0.4403 -0.46773,-0.36693 -0.46775,-0.36693 -0.51454,-0.14677 -0.1871,-0.0734 -0.18189,0.0734 -0.14034,0.0734 -0.18709,0.0734 -0.14033,0.14677 -0.0936,0.22016 -0.0936,0.22016 -0.0467,0.29353 -0.0467,0.65233 v 0.66046 l 0.0467,0.66047 0.0467,0.66047 0.0936,0.66047 0.1871,0.58709 0.14031,0.66046 0.23389,0.58709 0.23387,0.50554 0.28065,0.5137 0.28065,0.44031 0.32223,0.44032 0.32742,0.36692 0.37419,0.36693 0.37422,0.29355 0.3742,0.22015 z" /><path
       id="path122"
       style="fill:#db9d6a;fill-opacity:1;fill-rule:evenodd;stroke:none;stroke-width:1"
       d="m 237.07658,765.81926 0.14033,-0.0734 0.18709,-0.14677 0.14033,-0.14677 0.0936,-0.29355 0.14033,-0.29354 0.0467,-0.44032 0.0936,-0.4403 v -0.79909 -0.44031 l -0.0467,-0.36693 -0.14032,-0.66047 -0.1871,-0.5137 -0.32742,-0.66047 -0.42098,-0.51369 -0.1871,-0.14678 -0.1871,-0.0652 -0.1871,0.0652 -0.28065,0.0815 -0.0936,0.14677 -0.0936,0.14677 -0.14033,0.28539 -0.13512,0.36693 -0.0936,0.36693 -0.052,0.36693 -0.0415,0.36692 v 0.36693 0.0734 h -0.0936 l -0.052,0.14677 -0.0415,0.22016 v 0.22016 l 0.0415,0.14677 0.33262,0.65232 0.27545,0.4403 0.0467,0.0816 0.0936,0.212 0.14032,0.22831 0.23388,0.35877 0.0936,0.22016 0.23387,0.29355 0.14033,0.0734 0.14032,0.0734 z" /><path
       id="path124"
       style="fill:#db9d6a;fill-opacity:1;fill-rule:evenodd;stroke:none;stroke-width:1"
       d="m 266.02511,763.18553 v 0 0 0 l -0.0936,-0.0734 z" /><path
       id="path126"
       style="fill:#db9d6a;fill-opacity:1;fill-rule:evenodd;stroke:none;stroke-width:1"
       d="m 265.22994,769.19499 0.28065,-0.0816 0.23388,-0.14677 0.23388,-0.212 0.14032,-0.37509 0.0936,-0.43216 v -0.22016 l 0.23387,-0.36692 0.18191,-0.36693 0.1871,-0.73386 0.052,-0.73385 v -0.36693 l -0.052,-0.35877 -0.0416,-0.37509 -0.0935,-0.35877 -0.14552,-0.29354 -0.13514,-0.22016 -0.18709,-0.22015 -0.18711,-0.14677 -0.0467,-0.0734 -0.14032,-0.0734 h -0.42097 l -0.14033,0.14677 h -0.0467 l -0.42097,-0.88063 -0.51453,-0.80724 -0.1871,-0.29354 -0.22868,-0.0734 -0.28064,-0.0734 -0.23387,0.14677 -0.23388,0.22016 -0.14034,0.29354 -0.0936,0.44031 -0.0467,0.36693 0.0467,1.02739 0.0936,1.01925 v 0.29354 l 0.0936,0.88063 0.1871,0.80724 0.28065,0.58708 0.369,0.5137 0.23908,0.58708 0.32223,0.51371 0.23386,0.29354 0.23388,0.14677 z" /><path
       id="path128"
       style="fill:#db9d6a;fill-opacity:1;fill-rule:evenodd;stroke:none;stroke-width:1"
       d="m 233.38655,784.64671 0.32743,-0.0734 0.23387,-0.22016 0.23388,-0.29354 0.14033,-0.36692 0.0935,-0.36693 0.0467,-0.58709 v -0.58708 -0.57893 l -0.0936,-0.58709 v -0.14677 -0.29354 -0.36693 l -0.18709,-0.66046 -0.23388,-0.51371 -0.28065,-0.5137 -0.0467,-0.35877 -0.18709,-0.66862 -0.28066,-0.65232 -0.32742,-0.66047 -0.42098,-0.51369 -0.41577,-0.44032 -0.46776,-0.36693 -0.18709,-0.0734 -0.1871,0.0734 -0.1871,0.0734 -0.14033,0.22016 -0.14033,0.22015 -0.0936,0.22016 -0.0467,0.29354 -0.0467,0.29354 0.0935,0.95402 0.14033,0.88062 0.23388,0.87247 0.28064,0.80725 0.1871,0.36692 0.0936,0.29354 0.13514,0.22016 0.0936,0.14677 v 0.5137 0.44031 l 0.0936,0.50555 0.0936,0.44031 0.14553,0.44031 0.13512,0.44032 0.18711,0.36693 0.23388,0.29353 0.23387,0.29355 0.28064,0.14677 z" /><path
       id="path130"
       style="fill:#e1c7af;fill-opacity:1;fill-rule:evenodd;stroke:none;stroke-width:1"
       d="m 36.918481,841.92003 -0.37524,-1.00293 -0.375239,-1.05186 -0.33678,-1.00293 -0.29988,-1.1171 -0.26194,-1.06001 -0.22504,-1.11709 -0.22348,-1.17417 -0.188659,-1.17416 -0.149681,-1.41064 -0.11174,-1.41063 -0.03846,-1.41063 v -1.46771 l 0.03846,-1.41064 0.07484,-1.35355 0.111741,-1.41063 0.1502,-1.41063 0.18658,-1.41064 0.22504,-1.41063 0.26402,-1.34541 0.261419,-1.41063 0.598721,-2.76419 0.675119,-2.76419 1.42196,-5.58545 0.712021,-2.82126 0.675638,-2.76419 0.59872,-2.82127 0.263499,-1.46771 0.261941,-1.41063 0.22504,-1.41063 0.186581,-1.46771 0.186579,-1.41064 0.11382,-1.46771 0.11122,-2.06294 0.07536,-2.0548 v -2.0548 l -0.07536,-2.05478 -0.11122,-2.06296 -0.11382,-2.05479 -0.33678,-4.10959 -0.300399,-4.11774 -0.149681,-2.0548 -0.11174,-2.06294 -0.07536,-2.0548 -0.03638,-2.05479 v -2.12003 l 0.111739,-2.0548 0.11174,-1.59001 0.07484,-0.82355 0.113818,-0.8154 0.149681,-0.76647 0.150198,-0.76646 0.223482,-0.75833 0.22504,-0.70939 0.411619,-1.00293 0.4506,-0.88063 0.523361,-0.75832 0.56182,-0.70939 0.600279,-0.58709 0.63718,-0.53 0.67356,-0.46478 0.712019,-0.35877 0.748402,-0.29354 0.750478,-0.23647 0.7484,-0.17123 0.78738,-0.12231 0.748399,-0.0571 h 0.786861 l 0.787379,0.0571 0.75048,0.0652 0.97188,0.17122 0.977079,0.23647 0.971881,0.29354 0.97188,0.29354 0.977079,0.35063 0.9355,0.41585 0.9355,0.47293 0.935501,0.46477 0.940698,0.58709 0.935499,0.58707 0.89912,0.58709 0.89912,0.7094 0.86274,0.70939 0.857541,0.70124 0.862739,0.82355 0.862739,0.82354 0.821163,0.82355 0.789978,0.9377 0.784781,0.88063 0.789977,0.99478 0.748401,1.00294 0.7484,1.06001 0.71202,1.06002 0.712019,1.11708 0.675639,1.1171 0.634062,1.17416 0.639258,1.17417 0.597681,1.23125 0.597681,1.2394 0.5613,1.28832 0.52492,1.29648 0.48854,1.3454 0.899119,2.52773 0.821161,2.59295 0.86274,2.5848 0.862739,2.52773 0.452158,1.23124 0.488539,1.17417 0.519722,1.17417 0.561302,1.11709 0.5613,1.06001 0.639257,0.99478 0.639259,0.94586 0.71202,0.88062 0.524921,0.53001 0.483341,0.47293 0.524919,0.46477 0.5613,0.41586 0.524919,0.35062 0.561301,0.35062 1.127798,0.58709 1.158981,0.53 1.200558,0.41585 1.195362,0.4077 1.20056,0.35062 2.432301,0.70939 1.200557,0.35062 1.200556,0.47293 1.158998,0.53001 1.12779,0.64415 0.5613,0.41586 0.51973,0.35062 0.56129,0.46478 0.53012,0.47293 0.7484,0.82354 0.71201,0.88063 0.67564,0.9377 0.63406,1.00294 0.5977,1.11708 0.52492,1.17417 0.52491,1.17418 0.45215,1.23124 0.44697,1.29647 0.3742,1.35356 0.33781,1.35355 0.30145,1.35356 0.25986,1.40248 0.26506,1.41064 0.18709,1.47585 0.15072,1.41064 0.14553,1.41063 0.0779,1.46771 0.0727,1.41063 0.0727,1.46771 0.0415,2.87835 v 2.8865 l -0.0415,2.93542 -0.0727,2.87834 -0.0727,2.87834 -0.0364,2.94358 v 1.11709 1.23124 z" /><path
       id="path132"
       style="fill:#9c5e43;fill-opacity:1;fill-rule:evenodd;stroke:none;stroke-width:1"
       d="m 0.369329,841.92003 v -78.51434 l 0.9291961,-0.79909 0.7613933,-0.57078 0.7613934,-0.53001 0.7598342,-0.48923 0.7613934,-0.44032 0.7888346,-0.39954 0.8178873,-0.35062 0.7889386,-0.35877 0.8159642,-0.30985 1.634527,-0.53001 1.6340069,-0.53 3.297119,-0.97033 2.057062,-0.70938 2.085646,-0.75017 4.141148,-1.54925 4.171292,-1.59002 2.084608,-0.75016 2.085646,-0.66047 2.05706,-0.6197 2.085647,-0.53001 1.042043,-0.22016 1.042043,-0.17938 1.042044,-0.13862 1.043604,-0.13046 1.042562,-0.0897 1.042043,-0.0408 h 1.043603 l 1.042044,0.0408 1.042043,0.0897 1.042042,0.13046 1.044123,0.17939 1.042044,0.26908 1.071148,0.30985 1.071148,0.44032 0.533754,0.22014 0.535835,0.26909 0.507768,0.30169 0.50673,0.35878 0.477625,0.35062 0.478144,0.39954 0.452159,0.44032 0.420976,0.48923 0.426172,0.53 0.394988,0.57894 0.363805,0.57077 0.337821,0.66048 0.28065,0.57892 0.228678,0.61971 0.197494,0.57077 0.197495,0.6197 0.16631,0.6197 0.140325,0.66047 0.11434,0.61969 0.114339,0.66048 0.08316,0.66862 0.08316,0.66047 0.08836,1.36986 0.05717,1.41879 0.02599,1.41063 -0.02599,1.45956 -0.03119,1.45956 -0.05716,2.91911 -0.02599,1.45955 v 1.45956 l 0.02599,1.45141 0.08836,1.41878 0.08316,0.92955 0.08316,0.92955 0.11434,0.97032 0.140324,0.88878 0.166311,0.9214 0.17151,0.92955 0.394988,1.81017 0.446962,1.81833 0.452158,1.76941 0.987473,3.57958 0.452158,1.76941 0.446961,1.81018 0.426173,1.7694 0.363806,1.81018 0.145522,0.92954 0.140325,0.88063 0.109141,0.92956 0.11434,0.92954 0.05717,0.92955 0.05716,0.92955 0.02599,0.97033 v 0.92954 l -0.02599,0.83986 -0.05716,0.79908 -0.08836,0.79093 -0.08316,0.79909 -0.109141,0.79094 -0.11434,0.79909 -0.280649,1.54924 -0.33782,1.5411 -0.394989,1.54925 -0.394989,1.50848 -0.420975,1.54109 -0.904316,3.00881 -0.420976,1.54925 -0.426173,1.50032 -0.363806,1.54926 -0.369003,1.59001 -0.28065,1.54926 -0.254663,1.63894 -0.140326,1.28017 -0.08316,1.32094 -0.05716,1.2394 v 1.28017 l 0.05716,1.2394 0.11434,1.19863 0.109142,1.2394 0.171508,1.19047 z" /><g
       id="g134"
       transform="matrix(0.51972245,0,0,0.81539464,-1.3740741e-6,155.42298)"
       style="stroke-width:1.53614"><g
         clip-path="url(#clipPath140)"
         id="g136"
         style="stroke-width:1.53614"><path
           id="path142"
           style="fill:#333333;fill-opacity:1;fill-rule:evenodd;stroke:none;stroke-width:1.53614"
           d="m 87.938,841.88 -1.061,-0.97 -1.06,-0.96 -0.967,-1.06 -0.967,-1.16 -0.768,-1.16 -0.867,-1.26 -0.679,-1.25 -0.675,-1.35 -0.867,-2.03 -0.674,-2.02 -0.679,-2.03 -0.481,-2.12 -0.481,-2.12 -0.486,-2.13 -0.674,-4.24 -0.773,-4.25 -0.768,-4.34 -0.486,-2.03 -0.481,-2.12 -0.58,-2.12 -0.674,-2.03 -0.867,-2.03 -0.873,-1.93 -1.061,-1.93 -1.154,-1.73 -1.255,-1.74 -1.447,-1.55 -1.547,-1.44 -1.734,-1.35 -1.066,-0.77 -1.061,-0.58 -2.121,-1.16 -2.221,-0.97 -2.315,-0.77 -2.414,-0.58 -2.409,-0.48 -2.414,-0.39 -2.508,-0.19 -2.702,-0.19 H 38.92 l -2.701,0.1 -2.702,0.09 -5.502,0.39 -5.403,0.38 -2.895,0.1 -2.801,0.1 h -2.894 l -2.796,-0.2 -2.8946,-0.38 -2.8008,-0.58 -1.3533,-0.39 -1.3481,-0.39 -1.3534,-0.48 -1.25404,-0.58 -1.44736,-0.67 -1.3482,-0.77 v 3.38 l 1.83411,0.86 1.83409,0.78 1.9281,0.67 1.9281,0.48 2.0274,0.39 1.9281,0.38 2.0279,0.2 2.027,0.19 2.989,0.1 h 2.9 l 2.989,-0.2 2.988,-0.09 5.889,-0.48 2.895,-0.2 2.989,-0.19 h 5.021 l 2.509,0.09 2.508,0.2 2.508,0.38 2.508,0.49 2.414,0.77 2.315,0.87 2.126,0.96 1.929,1.16 1.834,1.35 1.64,1.45 1.542,1.64 1.353,1.83 1.155,1.93 1.066,2.03 0.867,2.03 0.768,2.12 0.68,2.03 0.48,2.22 0.58,2.12 0.387,2.12 0.768,4.34 0.774,4.44 0.867,4.34 0.486,2.13 0.58,2.12 0.674,2.12 0.773,2.03 0.674,1.45 0.674,1.35 0.774,1.35 0.773,1.35 0.867,1.25 0.962,1.26 0.967,1.16 1.06,1.06 z" /></g></g><g
       id="g144"
       transform="matrix(0.51972245,0,0,0.81539464,-1.3740741e-6,155.42298)"
       style="stroke-width:1.53614"><g
         clip-path="url(#clipPath150)"
         id="g146"
         style="stroke-width:1.53614"><path
           id="path152"
           style="fill:#333333;fill-opacity:1;fill-rule:evenodd;stroke:none;stroke-width:1.53614"
           d="m 106.08,841.88 -1.73,-1.16 -1.55,-1.26 -1.64,-1.25 -1.543,-1.35 -1.448,-1.45 -1.447,-1.44 -1.353,-1.55 -1.348,-1.54 -1.641,-2.13 -1.448,-2.21 -1.447,-2.22 -1.254,-2.32 -1.16,-2.41 -1.061,-2.42 -0.966,-2.51 -0.774,-2.5 -0.386,-1.64 -0.382,-1.65 -0.58,-3.18 -0.387,-3.28 -0.193,-3.28 -0.094,-3.38 -0.099,-3.28 -0.194,-6.56 -0.193,-3.18 -0.387,-3.09 -0.386,-3.09 -0.575,-2.99 -0.773,-2.99 -0.967,-3 -0.58,-1.44 -0.674,-1.35 -0.674,-1.45 -0.674,-1.45 -1.448,-2.32 -1.546,-2.31 -1.735,-2.12 -1.834,-2.12 -1.928,-1.94 -2.028,-1.83 -2.22,-1.74 -2.221,-1.54 -1.348,-0.87 -1.254,-0.67 -2.707,-1.36 -2.796,-1.15 -2.8,-0.97 -2.895,-0.87 -2.989,-0.58 -2.895,-0.58 -2.994,-0.48 -6.557,-0.67 -3.188,-0.39 -3.281,-0.48 -3.282,-0.58 -3.088,-0.77 -1.641,-0.39 -1.541,-0.48 -1.542,-0.58 -1.447,-0.67 -2.414,-1.16 L 8.2322,731 6.1108,729.46 4.1774,727.91 2.2493,726.18 0.51453,724.25 -1.0322,722.32 -2.5736,720.2 v 5.69 l 1.73479,1.83 1.74001,1.74 1.9281,1.64 2.0274,1.54 1.2541,0.87 1.3481,0.87 1.3533,0.68 1.3478,0.77 1.354,0.58 1.447,0.58 2.895,0.96 2.994,0.87 2.989,0.67 3.088,0.48 2.989,0.49 6.563,0.67 3.281,0.39 3.282,0.48 3.182,0.58 3.187,0.68 1.641,0.48 1.541,0.48 1.547,0.58 1.542,0.58 2.508,1.26 2.414,1.34 2.314,1.45 2.221,1.74 2.122,1.84 2.027,1.92 1.834,2.13 1.641,2.12 0.967,1.35 0.768,1.25 0.773,1.36 0.773,1.35 1.254,2.7 1.061,2.8 0.868,2.89 0.773,2.99 0.481,3 0.292,3.08 0.288,3.48 0.099,3.47 0.287,6.95 0.194,3.47 0.193,3.48 0.481,3.47 0.58,3.38 0.674,2.61 0.773,2.6 0.967,2.51 1.06,2.5 1.155,2.42 1.354,2.31 1.353,2.32 1.541,2.22 1.354,1.74 1.447,1.73 1.448,1.64 1.541,1.64 1.641,1.65 1.734,1.44 1.743,1.55 1.73,1.35 z" /></g></g><g
       id="g164"
       transform="matrix(0.51972245,0,0,0.81539464,-1.3740741e-6,155.42298)"
       style="stroke-width:1.53614"><g
         clip-path="url(#clipPath170)"
         id="g166"
         style="stroke-width:1.53614"><text
   id="text174"
   style="font-variant:normal;font-weight:normal;font-size:1.2px;font-family:Calibri;-inkscape-font-specification:Calibri;writing-mode:lr-tb;fill:#000000;fill-opacity:0;fill-rule:nonzero;stroke:none;stroke-width:1.53614"
   transform="matrix(1,0,0,-1,349.99,33.36)"><tspan
     id="tspan172"
     y="0"
     x="0 0.5988 0.83880001 1.0788 1.6788 2.2764001 2.7576001 3.3564"
     style="stroke-width:1.53614">Slidesgo</tspan></text>
</g></g><path
       id="path3"
       style="fill:#e1c7af;fill-opacity:1;fill-rule:evenodd;stroke:none;stroke-width:1;image-rendering:auto"
       d="m 309.53856,160.3465 -0.78997,-0.76176 -0.82852,-0.76175 -0.78996,-0.68369 -0.87989,-0.60879 -0.83493,-0.53174 -0.87989,-0.45685 -0.92484,-0.45368 -0.92484,-0.38298 -1.11109,-0.30386 -1.11112,-0.22685 -1.11109,-0.0781 h -1.15606 l -1.1111,0.0781 -1.06615,0.15194 -1.11109,0.22683 -1.11109,0.30492 -1.1111,0.37877 -1.1111,0.45684 -1.05972,0.53599 -1.1111,0.53069 -2.17723,1.21544 -2.17724,1.37053 -4.39944,2.88669 -2.2222,1.44546 -2.17723,1.37157 -2.22221,1.21545 -1.15605,0.53493 -1.11109,0.53175 -1.11111,0.45685 -1.15605,0.37876 -1.1111,0.37877 -1.15607,0.23108 -1.62489,0.22578 -1.61849,0.15297 h -1.61847 l -1.61847,-0.15297 -1.62491,-0.22578 -1.61848,-0.23108 -3.23695,-0.68368 -3.24339,-0.60983 -1.61847,-0.30386 -1.62491,-0.22684 -1.61848,-0.15298 -1.61847,-0.0738 h -1.66986 l -1.61848,0.22683 -1.2524,0.22684 -0.64867,0.15194 -0.64225,0.23105 -0.60372,0.30386 -0.60372,0.30492 -0.5973,0.45369 -0.55874,0.45683 -0.78999,0.83562 -0.69364,0.91475 -0.59728,1.06245 -0.55876,1.14054 -0.46242,1.2186 -0.41749,1.29353 -0.36607,1.36737 -0.28259,1.44545 -0.23121,1.51931 -0.18626,1.52352 -0.13486,1.5193 -0.0963,1.59843 -0.0449,1.51931 v 1.59737 l 0.0449,1.59843 0.0514,1.52352 0.13487,1.97299 0.18625,1.98354 0.23121,1.97298 0.23121,1.97298 0.27618,1.98355 0.32755,1.89913 0.3725,1.89912 0.36609,1.89914 0.46242,1.90967 0.46243,1.89913 0.46241,1.82528 0.55877,1.82528 0.55875,1.75141 0.55235,1.74087 0.64866,1.75141 0.64869,1.75144 0.64867,1.667 0.73859,1.60371 0.69364,1.59316 0.78355,1.6037 0.78996,1.5193 0.83494,1.5193 0.83493,1.44546 0.87988,1.44545 0.87988,1.3716 0.92486,1.28719 0.92484,1.29774 0.96981,1.21332 0.97621,1.21334 1.01476,1.13947 1.02118,1.06563 1.05972,0.99177 1.99099,1.82528 2.04237,1.66701 2.03595,1.75142 1.99098,1.75141 0.9698,0.91792 0.92485,0.99177 0.92485,1.05506 0.87988,1.13949 0.83493,1.13947 0.78355,1.29774 0.74503,1.29774 0.69362,1.44545 0.41747,1.0656 0.37251,0.98123 0.36608,1.06562 0.32754,1.13948 0.27618,1.06563 0.27615,1.13948 0.46244,2.2895 0.41746,2.35281 0.32755,2.43721 0.32112,2.42668 0.27618,2.4372 0.55875,4.93775 0.27617,2.43721 0.3725,2.43722 0.41747,2.35281 0.50739,2.2895 0.32755,1.13948 0.27616,1.05507 0.36609,1.13947 0.37251,1.07618 0.64867,1.5193 0.69363,1.44545 0.7386,1.37159 0.78996,1.2872 0.8799,1.21332 0.92484,1.06563 0.92484,1.06562 0.96981,0.91791 1.02118,0.90736 1.06614,0.75966 1.06614,0.6858 1.06614,0.61194 1.10468,0.52753 1.1111,0.53809 1.16247,0.37984 1.1111,0.30595 1.11111,0.29543 1.15605,0.15825 1.1111,0.14773 1.15606,0.1477 2.26714,0.0844 h 2.27359 l 2.31211,-0.0844 2.26715,-0.1477 2.26715,-0.14773 2.31853,-0.0739 h 0.8799 0.9698 z" /><path
       id="path4"
       style="fill:#db9d6a;fill-opacity:1;fill-rule:evenodd;stroke:none;stroke-width:1"
       d="m 309.1672,155.57185 v 82.78076 l -1.00261,0.84251 -0.82155,0.60179 -0.82156,0.55881 -0.81986,0.51581 -0.82154,0.46425 -0.85116,0.42125 -0.8825,0.36967 -0.85128,0.37827 -0.88043,0.32669 -1.76367,0.55881 -1.7631,0.5588 -3.55761,1.02305 -2.21959,0.74794 -2.25043,0.79093 -4.46832,1.63343 -4.50085,1.67643 -2.24932,0.79092 -2.25042,0.69635 -2.21959,0.65338 -2.25042,0.55881 -1.12438,0.23211 -1.12437,0.18914 -1.12437,0.14615 -1.12606,0.13755 -1.12494,0.0946 -1.12436,0.0429 h -1.12605 l -1.12437,-0.0429 -1.12439,-0.0946 -1.12437,-0.13755 -1.12661,-0.18913 -1.12437,-0.2837 -1.15578,-0.32669 -1.15577,-0.46424 -0.57593,-0.23213 -0.57817,-0.2837 -0.54789,-0.31808 -0.54676,-0.37827 -0.51536,-0.36968 -0.51593,-0.42124 -0.48787,-0.46425 -0.45424,-0.51582 -0.45984,-0.5588 -0.4262,-0.61039 -0.39254,-0.6018 -0.36453,-0.69636 -0.3028,-0.61039 -0.24676,-0.65337 -0.21309,-0.60179 -0.2131,-0.65338 -0.17945,-0.65337 -0.15141,-0.69636 -0.12338,-0.65337 -0.12337,-0.69636 -0.0896,-0.70495 -0.0896,-0.69637 -0.0953,-1.4443 -0.0617,-1.49589 -0.028,-1.48728 0.028,-1.53887 0.0336,-1.53887 0.0617,-3.07773 0.0281,-1.53887 v -1.53887 l -0.0281,-1.53027 -0.0953,-1.49588 -0.0896,-0.98006 -0.0896,-0.98006 -0.12336,-1.02305 -0.15141,-0.93708 -0.17945,-0.97146 -0.18507,-0.98006 -0.42619,-1.90854 -0.48228,-1.91714 -0.48787,-1.86555 -1.06551,-3.77408 -0.48787,-1.86556 -0.48228,-1.90854 -0.45984,-1.86555 -0.39255,-1.90854 -0.15702,-0.98006 -0.15141,-0.92848 -0.11776,-0.98006 -0.12339,-0.98006 -0.0617,-0.98006 -0.0617,-0.98006 -0.028,-1.02306 v -0.98005 l 0.028,-0.88549 0.0617,-0.84252 0.0953,-0.8339 0.0896,-0.84251 0.11776,-0.83391 0.12338,-0.84252 0.30282,-1.63343 0.36451,-1.62483 0.4262,-1.63344 0.42619,-1.59045 0.45424,-1.62483 0.97576,-3.17231 0.45423,-1.63343 0.45985,-1.58185 0.39254,-1.63344 0.39817,-1.67642 0.30281,-1.63344 0.27479,-1.728 0.15141,-1.34973 0.0896,-1.39273 0.0617,-1.30674 v -1.34973 l -0.0617,-1.30675 -0.12338,-1.26377 -0.11776,-1.30674 -0.18506,-1.25517 z" /><g
       id="g154"
       transform="matrix(0.51972245,0,0,0.81539464,-9.6513468e-7,155.96777)"
       style="fill:#c99d87;fill-opacity:1;stroke-width:1.53614"><g
         clip-path="url(#clipPath160)"
         id="g156"
         style="fill:#c99d87;fill-opacity:1;stroke-width:1.53614"><path
           id="path162"
           style="fill:#c99d87;fill-opacity:1;fill-rule:evenodd;stroke:none;stroke-width:1.53614"
           d="M 595.24,-2.3044 V 57.216 l -1.11,0.603 -0.9,0.435 -0.91,0.403 -0.9,0.368 -0.91,0.336 -0.94,0.301 -0.97,0.269 -0.94,0.269 -0.97,0.234 -1.94,0.401 -1.94,0.403 -3.93,0.736 -2.44,0.538 -2.48,0.569 -4.93,1.173 -4.96,1.207 -2.48,0.569 -2.48,0.503 -2.45,0.468 -2.48,0.403 -1.24,0.167 -1.24,0.134 -1.24,0.102 -1.24,0.1 -1.24,0.067 -1.24,0.033 h -1.24 l -1.24,-0.033 -1.24,-0.067 -1.24,-0.1 -1.24,-0.134 -1.24,-0.202 -1.27,-0.234 -1.27,-0.335 -0.64,-0.167 -0.64,-0.202 -0.6,-0.234 -0.6,-0.269 -0.57,-0.268 -0.57,-0.301 -0.54,-0.336 -0.5,-0.369 -0.51,-0.402 -0.46,-0.436 -0.44,-0.436 -0.4,-0.502 -0.34,-0.436 -0.26,-0.468 -0.24,-0.435 -0.23,-0.471 -0.2,-0.468 -0.17,-0.502 -0.14,-0.47 -0.13,-0.503 -0.1,-0.503 -0.1,-0.503 -0.1,-1.039 -0.07,-1.073 -0.03,-1.071 0.03,-1.107 0.03,-1.105 0.07,-2.212 0.03,-1.107 v -1.105 l -0.03,-1.105 -0.1,-1.073 -0.1,-0.704 -0.1,-0.704 -0.13,-0.737 -0.17,-0.671 -0.2,-0.703 -0.2,-0.704 -0.47,-1.374 -0.54,-1.375 -0.54,-1.34 -1.17,-2.714 -0.54,-1.341 -0.53,-1.374 -0.5,-1.341 -0.44,-1.374 -0.17,-0.704 -0.17,-0.67 -0.13,-0.704 -0.13,-0.704 -0.07,-0.704 -0.07,-0.703 -0.03,-0.738 v -0.703 l 0.03,-0.637 0.07,-0.604 0.1,-0.602 0.1,-0.605 0.13,-0.602 0.14,-0.603 0.33,-1.174 0.41,-1.172 0.47,-1.173 0.46,-1.139 0.51,-1.174 1.07,-2.28 0.5,-1.172 0.5,-1.14 0.44,-1.172 0.44,-1.2068 0.33,-1.1724 0.3,-1.2412 0.17,-0.9709 0.1,-1.0054 0.07,-0.9382 V 1.3813 l -0.07,-0.93818 -0.13,-0.90558 -0.14,-0.93824 -0.2,-0.9037 z" /></g></g><g
       id="g9"
       transform="matrix(0.51972245,0,0,0.81539464,-131.71192,228.60302)"
       style="fill:#c99d87;fill-opacity:1;stroke-width:1.53614"><g
         clip-path="url(#clipPath160)"
         id="g8"
         style="fill:#c99d87;fill-opacity:1;stroke-width:1.53614" /></g></g><g
     inkscape:groupmode="layer"
     id="layer3"
     inkscape:label="Layer 1"
     style="display:inline"><path
       id="path3-8"
       style="fill:#e1c7af;fill-opacity:1;fill-rule:evenodd;stroke:none;stroke-width:0.352778;image-rendering:auto"
       d="m 108.8522,239.79851 -0.27868,0.26873 -0.29229,0.26873 -0.27868,0.24119 -0.3104,0.21477 -0.29455,0.18758 -0.3104,0.16117 -0.32626,0.16005 -0.32627,0.13511 -0.39197,0.10719 -0.39197,0.08 -0.39197,0.0276 h -0.40783 l -0.39198,-0.0276 -0.37611,-0.0536 -0.39197,-0.08 -0.39196,-0.10757 -0.39198,-0.13362 -0.39197,-0.16117 -0.37384,-0.18908 -0.39197,-0.18722 -0.76808,-0.42878 -0.76808,-0.48349 -1.552025,-1.01836 -0.78394,-0.50993 -0.76808,-0.48386 -0.78395,-0.42878 -0.40783,-0.18871 -0.39196,-0.18759 -0.39198,-0.16117 -0.40783,-0.13362 -0.391969,-0.13362 -0.407835,-0.0815 -0.573225,-0.0796 -0.570968,-0.054 h -0.57096 l -0.57096,0.054 -0.573232,0.0796 -0.570964,0.0815 -1.141924,0.24119 -1.144196,0.21513 -0.57096,0.1072 -0.573232,0.08 -0.570964,0.054 -0.57096,0.026 h -0.58909 l -0.570964,-0.08 -0.441818,-0.08 -0.228837,-0.0536 -0.226571,-0.0815 -0.212979,-0.10719 -0.212979,-0.10757 -0.210715,-0.16005 -0.197111,-0.16116 -0.27869,-0.29479 -0.244701,-0.32271 -0.210707,-0.3748 -0.197118,-0.40236 -0.163132,-0.4299 -0.147281,-0.45633 -0.129142,-0.48237 -0.09969,-0.50993 -0.08157,-0.53597 -0.06571,-0.53747 -0.04758,-0.53597 -0.03397,-0.56389 -0.01584,-0.53598 v -0.56352 l 0.01584,-0.56389 0.01813,-0.53746 0.04758,-0.69603 0.0657,-0.69975 0.08157,-0.69602 0.08157,-0.69603 0.09743,-0.69975 0.115553,-0.66997 0.131409,-0.66997 0.129149,-0.66997 0.163131,-0.67369 0.163135,-0.66997 0.163128,-0.64392 0.197122,-0.64392 0.197114,-0.61786 0.194857,-0.61414 0.228833,-0.61786 0.228843,-0.61786 0.228837,-0.58809 0.260558,-0.56575 0.244701,-0.56203 0.276419,-0.56575 0.27868,-0.53597 0.294548,-0.53598 0.294545,-0.50993 0.310402,-0.50992 0.310402,-0.48387 0.32627,-0.45409 0.326263,-0.45781 0.342128,-0.42804 0.344385,-0.42804 0.357985,-0.40198 0.360249,-0.37593 0.373846,-0.34987 0.702377,-0.64392 0.720503,-0.58808 0.718238,-0.61787 0.702373,-0.61785 0.342124,-0.32383 0.326266,-0.34987 0.326267,-0.3722 0.310402,-0.40199 0.294545,-0.40198 0.276419,-0.45781 0.26283,-0.45782 0.244694,-0.50992 0.147274,-0.37592 0.131413,-0.34615 0.129145,-0.37593 0.115549,-0.40198 0.09743,-0.37594 0.09742,-0.40198 0.163143,-0.80768 0.14727,-0.83002 0.11555,-0.8598 0.11329,-0.85607 0.0974,-0.85979 0.19711,-1.74193 0.0974,-0.8598 0.13141,-0.85979 0.14727,-0.83002 0.179,-0.80769 0.11555,-0.40198 0.0974,-0.37221 0.12915,-0.40198 0.13142,-0.37965 0.22883,-0.53597 0.2447,-0.50993 0.26056,-0.48386 0.27868,-0.4541 0.31041,-0.42803 0.32626,-0.37593 0.32627,-0.37593 0.34212,-0.32382 0.36025,-0.32009 0.37611,-0.26799 0.37611,-0.24194 0.376105,-0.21588 0.38971,-0.1861 0.39197,-0.18982 0.4101,-0.134 0.39197,-0.10794 0.39197,-0.10422 0.40783,-0.0558 0.39197,-0.0521 0.40783,-0.0521 0.7998,-0.0298 h 0.80207 l 0.81566,0.0298 0.7998,0.0521 0.7998,0.0521 0.81793,0.0261 h 0.31041 0.34212 z" /><path
       id="path4-2"
       style="fill:#db9d6a;fill-opacity:1;fill-rule:evenodd;stroke:none;stroke-width:0.352778"
       d="m 108.79849,242.17036 v -29.20321 l -0.3537,-0.29722 -0.28983,-0.2123 -0.28982,-0.19713 -0.28923,-0.18197 -0.28982,-0.16378 -0.30027,-0.14861 -0.31133,-0.13041 -0.30031,-0.13344 -0.3106,-0.11525 -0.62218,-0.19714 -0.62199,-0.19713 -1.25504,-0.36091 -0.78302,-0.26386 -0.79391,-0.27902 -1.57632,-0.57624 -1.587794,-0.5914 -0.79351,-0.27902 -0.7939,-0.24566 -0.78302,-0.2305 -0.7939,-0.19713 -0.39665,-0.0819 -0.39666,-0.0667 -0.39665,-0.0516 -0.39725,-0.0485 -0.39685,-0.0334 -0.39665,-0.0151 h -0.39725 l -0.39665,0.0151 -0.39666,0.0334 -0.39665,0.0485 -0.39744,0.0667 -0.39666,0.10009 -0.40773,0.11524 -0.40773,0.16378 -0.20318,0.0819 -0.20396,0.10008 -0.19329,0.11221 -0.19288,0.13345 -0.18181,0.13041 -0.18201,0.14861 -0.17211,0.16377 -0.160242,0.18197 -0.162221,0.19714 -0.150354,0.21533 -0.138479,0.2123 -0.128598,0.24566 -0.106821,0.21533 -0.08705,0.2305 -0.07517,0.21229 -0.07518,0.2305 -0.06331,0.2305 -0.05341,0.24566 -0.04353,0.23049 -0.04352,0.24566 -0.03161,0.24869 -0.03161,0.24567 -0.03362,0.50951 -0.02177,0.52772 -0.0099,0.52468 0.0099,0.54288 0.01185,0.54288 0.02177,1.08575 0.0099,0.54288 v 0.54288 l -0.0099,0.53985 -0.03362,0.52771 -0.03161,0.34574 -0.03161,0.34575 -0.04352,0.36091 -0.05341,0.33058 -0.06331,0.34271 -0.06529,0.34574 -0.150351,0.67329 -0.170137,0.67632 -0.17211,0.65813 -0.375888,1.33141 -0.17211,0.65813 -0.170137,0.67329 -0.162222,0.65812 -0.138483,0.67329 -0.05539,0.34575 -0.05341,0.32754 -0.04154,0.34575 -0.04353,0.34574 -0.02177,0.34574 -0.02177,0.34575 -0.0099,0.36091 v 0.34574 l 0.0099,0.31238 0.02177,0.29722 0.03362,0.29419 0.03161,0.29721 0.04154,0.29419 0.04353,0.29722 0.106828,0.57624 0.128591,0.5732 0.150354,0.57624 0.15035,0.56108 0.160246,0.5732 0.344226,1.11912 0.160243,0.57624 0.162224,0.55804 0.13848,0.57624 0.140465,0.59141 0.106825,0.57624 0.09694,0.6096 0.05341,0.47615 0.03161,0.49133 0.02177,0.46099 v 0.47615 l -0.02177,0.46099 -0.04353,0.44583 -0.04154,0.46099 -0.06529,0.4428 z" /><path
       id="path8"
       style="fill:#c99d87;fill-opacity:1;fill-rule:evenodd;stroke:none;stroke-width:0.352778"
       d="M 108.92534,241.96293 V 224.8417 l -0.20351,-0.17345 -0.16501,-0.12513 -0.16685,-0.11592 -0.16501,-0.10586 -0.16685,-0.0966 -0.17234,-0.0866 -0.17785,-0.0774 -0.17234,-0.0774 -0.17785,-0.0673 -0.35569,-0.11535 -0.35569,-0.11593 -0.72056,-0.21171 -0.44736,-0.15476 -0.4547,-0.16367 -0.9039,-0.33742 -0.9094,-0.3472 -0.4547,-0.16367 -0.4547,-0.14469 -0.4492,-0.13462 -0.4547,-0.11593 -0.22735,-0.048 -0.22735,-0.0385 -0.22735,-0.0293 -0.22734,-0.0288 -0.22735,-0.0193 -0.22735,-0.009 h -0.227349 l -0.227354,0.009 -0.227349,0.0193 -0.22735,0.0288 -0.22735,0.0385 -0.227349,0.0581 -0.232851,0.0673 -0.23285,0.0964 -0.117341,0.048 -0.117342,0.0581 -0.110008,0.0673 -0.110008,0.0774 -0.104508,0.0771 -0.104507,0.0866 -0.09901,0.0967 -0.09167,0.10614 -0.09351,0.11564 -0.08434,0.12541 -0.08067,0.12542 -0.07334,0.1444 -0.06234,0.12542 -0.04767,0.13462 -0.044,0.12513 -0.04217,0.13548 -0.03667,0.13462 -0.03117,0.14441 -0.02567,0.13519 -0.02383,0.14469 -0.01834,0.14469 -0.01833,0.14469 -0.01833,0.29887 -0.01283,0.30866 -0.0055,0.30807 0.0055,0.31843 0.0055,0.31786 0.01283,0.63629 0.0055,0.31843 v 0.31786 l -0.0055,0.31785 -0.01833,0.30866 -0.01833,0.2025 -0.01834,0.20251 -0.02383,0.212 -0.03117,0.19302 -0.03667,0.20222 -0.03667,0.20251 -0.08617,0.39523 -0.09901,0.39552 -0.09901,0.38546 -0.214516,0.78069 -0.09901,0.38574 -0.09717,0.39524 -0.09167,0.38574 -0.08067,0.39524 -0.03117,0.2025 -0.03117,0.19273 -0.02384,0.20251 -0.02383,0.20251 -0.01284,0.2025 -0.01283,0.20222 -0.0055,0.21229 v 0.20222 l 0.0055,0.18324 0.01283,0.17374 0.01834,0.17317 0.01833,0.17403 0.02384,0.17316 0.02567,0.17346 0.06051,0.3377 0.07517,0.33713 0.08617,0.33742 0.08434,0.32764 0.09351,0.3377 0.196181,0.65585 0.09167,0.33713 0.09167,0.32792 0.08067,0.33713 0.08067,0.34714 0.0605,0.33725 0.055,0.35703 0.03117,0.27929 0.01834,0.2892 0.01283,0.26988 v 0.27983 l -0.01283,0.26987 -0.02384,0.26049 -0.02567,0.26989 -0.03667,0.25995 z" /></g></svg>
