<?xml version="1.0" encoding="UTF-8" standalone="no"?>
<svg
   viewBox="0 0 793.59998 1122.5601"
   height="1122.5601"
   width="793.59998"
   xml:space="preserve"
   id="svg2"
   version="1.1"
   sodipodi:docname="Curriculum.svg"
   inkscape:version="1.3.2 (091e20e, 2023-11-25, custom)"
   xmlns:inkscape="http://www.inkscape.org/namespaces/inkscape"
   xmlns:sodipodi="http://sodipodi.sourceforge.net/DTD/sodipodi-0.dtd"
   xmlns="http://www.w3.org/2000/svg"
   xmlns:svg="http://www.w3.org/2000/svg"
   xmlns:rdf="http://www.w3.org/1999/02/22-rdf-syntax-ns#"
   xmlns:cc="http://creativecommons.org/ns#"
   xmlns:dc="http://purl.org/dc/elements/1.1/"><sodipodi:namedview
     id="namedview1"
     pagecolor="#ffffff"
     bordercolor="#000000"
     borderopacity="0.25"
     inkscape:showpageshadow="2"
     inkscape:pageopacity="0.0"
     inkscape:pagecheckerboard="0"
     inkscape:deskcolor="#d1d1d1"
     inkscape:zoom="0.79372145"
     inkscape:cx="396.23472"
     inkscape:cy="575.1388"
     inkscape:window-width="1920"
     inkscape:window-height="1129"
     inkscape:window-x="-8"
     inkscape:window-y="-8"
     inkscape:window-maximized="1"
     inkscape:current-layer="g10" /><metadata
     id="metadata8"><rdf:RDF><cc:Work
         rdf:about=""><dc:format>image/svg+xml</dc:format><dc:type
           rdf:resource="http://purl.org/dc/dcmitype/StillImage" /></cc:Work></rdf:RDF></metadata><defs
     id="defs6"><clipPath
       id="clipPath18"
       clipPathUnits="userSpaceOnUse"><path
         style="clip-rule:evenodd"
         id="path16"
         d="M 0,1.8311e-4 H 595.2 V 841.92018 H 0 Z" /></clipPath><clipPath
       id="clipPath28"
       clipPathUnits="userSpaceOnUse"><path
         style="clip-rule:evenodd"
         id="path26"
         d="M -2.861e-6,-1.8311e-4 H 595.2 V 841.91982 H -2.861e-6 Z" /></clipPath><clipPath
       id="clipPath38"
       clipPathUnits="userSpaceOnUse"><path
         style="clip-rule:evenodd"
         id="path36"
         d="M -3.0518e-5,1.8311e-4 H 595.19997 V 841.92018 H -3.0518e-5 Z" /></clipPath><clipPath
       id="clipPath48"
       clipPathUnits="userSpaceOnUse"><path
         style="clip-rule:evenodd"
         id="path46"
         d="M 0,1.8311e-4 H 595.2 V 841.92018 H 0 Z" /></clipPath><clipPath
       id="clipPath64"
       clipPathUnits="userSpaceOnUse"><path
         style="clip-rule:evenodd"
         id="path62"
         d="M -6.1035e-5,1.8311e-4 H 595.19994 V 841.92018 H -6.1035e-5 Z" /></clipPath><clipPath
       id="clipPath76"
       clipPathUnits="userSpaceOnUse"><path
         style="clip-rule:evenodd"
         id="path74"
         d="M 3.4332e-5,2.4414e-4 H 595.20003 V 841.92024 H 3.4332e-5 Z" /></clipPath><clipPath
       id="clipPath86"
       clipPathUnits="userSpaceOnUse"><path
         style="clip-rule:evenodd"
         id="path84"
         d="M -6.1035e-5,4.2725e-4 H 595.19994 V 841.92043 H -6.1035e-5 Z" /></clipPath><clipPath
       id="clipPath140"
       clipPathUnits="userSpaceOnUse"><path
         style="clip-rule:evenodd"
         id="path138"
         d="M 3.0518e-5,4.2725e-4 H 595.20003 V 841.92043 H 3.0518e-5 Z" /></clipPath><clipPath
       id="clipPath150"
       clipPathUnits="userSpaceOnUse"><path
         style="clip-rule:evenodd"
         id="path148"
         d="M 3.0518e-5,4.2725e-4 H 595.20003 V 841.92043 H 3.0518e-5 Z" /></clipPath><clipPath
       id="clipPath160"
       clipPathUnits="userSpaceOnUse"><path
         style="clip-rule:evenodd"
         id="path158"
         d="M -6.1035e-5,0 H 595.19994 V 841.92 H -6.1035e-5 Z" /></clipPath><clipPath
       id="clipPath170"
       clipPathUnits="userSpaceOnUse"><path
         style="clip-rule:evenodd"
         id="path168"
         d="m 349.99,19.92 h 41.28 v 14.52 h -41.28 z" /></clipPath><clipPath
       id="clipPath182"
       clipPathUnits="userSpaceOnUse"><path
         style="clip-rule:evenodd"
         id="path180"
         d="M 8.869e-6,0 H 595.20001 V 841.92 H 8.869e-6 Z" /></clipPath><clipPath
       id="clipPath194"
       clipPathUnits="userSpaceOnUse"><path
         style="clip-rule:evenodd"
         id="path192"
         d="M 8.869e-6,0 H 595.20001 V 841.92 H 8.869e-6 Z" /></clipPath></defs><g
     transform="matrix(1.3333333,0,0,-1.3333333,0,1122.56)"
     id="g10"><g
       id="g12"><g
         clip-path="url(#clipPath18)"
         id="g14"><path
           id="path20"
           style="fill:#fff5e9;fill-opacity:1;fill-rule:evenodd;stroke:none"
           d="M 0,0.044983 H 595.25 V 841.92498 H 0 Z" /></g></g><g
       id="g22"><g
         clip-path="url(#clipPath28)"
         id="g24"><path
           id="path30"
           style="fill:#e1c7af;fill-opacity:1;fill-rule:evenodd;stroke:none"
           d="m -6.6451,-1.2298 -0.4862,0.82526 -0.4862,0.8725 -0.4363,0.82524 -0.3889,0.9225 -0.3391,0.8752 -0.2917,0.9225 -0.2891,0.9698 -0.2444,0.9697 -0.1945,1.1643 -0.1445,1.1669 -0.05,1.1643 v 1.2146 l 0.05,1.164 0.0972,1.117 0.1445,1.164 0.1945,1.164 0.2418,1.165 0.2917,1.164 0.3417,1.117 0.339,1.164 0.7753,2.281 0.8752,2.282 1.8423,4.612 0.9225,2.329 0.8752,2.281 0.7753,2.331 0.3417,1.212 0.339,1.164 0.2917,1.167 0.2418,1.211 0.24179,1.167 0.14718,1.212 0.14455,1.7 0.09724,1.698 v 1.698 l -0.09724,1.7 -0.14455,1.698 -0.14718,1.698 -0.43629,3.398 -0.3889,3.398 -0.1945,1.698 -0.1446,1.7 -0.0972,1.698 -0.0473,1.698 v 1.748 l 0.1445,1.7 0.1446,1.309 0.0972,0.681 0.1472,0.678 0.1945,0.63 0.1945,0.631 0.28905,0.631 0.29173,0.583 0.533509,0.826 0.583451,0.727 0.67806,0.631 0.728,0.584 0.7779,0.483 0.8253,0.439 0.8725,0.387 0.9225,0.291 0.9698,0.242 0.9724,0.195 0.9698,0.147 1.0197,0.097 0.9694,0.047 h 1.02 l 1.02,-0.047 0.97,-0.05 1.261,-0.145 1.264,-0.194 1.262,-0.242 1.261,-0.244 1.262,-0.292 1.214,-0.339 1.212,-0.389 1.214,-0.386 1.214,-0.486 1.214,-0.487 1.164,-0.483 1.165,-0.584 1.117,-0.583 1.114,-0.581 1.117,-0.681 1.117,-0.678 1.067,-0.68 1.02,-0.776 1.019,-0.728 1.02,-0.825 0.97,-0.825 0.97,-0.875 0.922,-0.873 0.923,-0.922 0.875,-0.923 0.822,-0.97 0.826,-0.969 0.778,-1.02 0.775,-1.02 0.728,-1.067 0.681,-1.07 0.63,-1.114 1.165,-2.087 1.067,-2.136 1.117,-2.137 1.117,-2.087 0.583,-1.02 0.631,-0.969 0.678,-0.97 0.728,-0.923 0.728,-0.875 0.825,-0.822 0.825,-0.778 0.923,-0.728 0.681,-0.437 0.63,-0.389 0.678,-0.389 0.728,-0.339 0.681,-0.291 0.728,-0.292 1.456,-0.484 1.503,-0.436 1.554,-0.341 1.553,-0.34 1.553,-0.291 3.154,-0.581 1.553,-0.292 1.553,-0.389 1.506,-0.436 1.456,-0.534 0.728,-0.341 0.678,-0.289 0.728,-0.389 0.681,-0.389 0.97,-0.678 0.922,-0.728 0.875,-0.778 0.826,-0.825 0.775,-0.923 0.681,-0.97 0.678,-0.97 0.583,-1.019 0.581,-1.067 0.486,-1.117 0.436,-1.117 0.389,-1.117 0.339,-1.164 0.342,-1.165 0.242,-1.214 0.194,-1.164 0.195,-1.164 0.097,-1.215 0.095,-1.164 0.097,-1.214 0.05,-2.379 V 10.321 L 90.423,7.8951 90.326,5.5167 90.231,3.1382 90.181,0.7124 V -0.21008 -1.2298 Z" /></g></g><g
       id="g32"><g
         clip-path="url(#clipPath38)"
         id="g34"><path
           id="path40"
           style="fill:#ffead7;fill-opacity:1;fill-rule:evenodd;stroke:none"
           d="m 596.24,841.92 -11.23,-6.57 -5.49,-3.11 -5.5,-3.1 -10.87,-5.86 -5.37,-3.1 -5.26,-3.1 -5.14,-3.35 -5.01,-3.47 -2.39,-1.9 -2.51,-1.92 -2.27,-1.91 -2.27,-2.03 -3.47,-3.34 -3.34,-3.47 -3.22,-3.58 -2.99,-3.7 -2.86,-3.83 -2.87,-3.94 -2.63,-3.94 -2.63,-4.06 -2.86,-4.54 -2.64,-4.78 -2.5,-4.78 -1.2,-2.51 -1.07,-2.51 -0.96,-2.51 -0.83,-2.51 -0.84,-2.62 -0.71,-2.51 -0.48,-2.63 -0.48,-2.62 -0.36,-2.63 -0.12,-2.75 v -2.51 l 0.12,-2.62 0.24,-2.51 0.23,-2.51 0.48,-2.51 0.6,-2.51 0.6,-2.39 0.72,-2.51 0.83,-2.39 0.84,-2.51 2.03,-4.78 2.15,-4.65 2.39,-4.54 2.86,-5.26 3.11,-5.13 3.11,-5.02 3.34,-5.02 3.59,-4.77 3.58,-4.78 3.82,-4.66 3.94,-4.42 3.35,-3.71 3.46,-3.58 6.81,-7.29 3.34,-3.82 3.23,-3.82 2.99,-3.94 1.31,-2.04 1.43,-2.03 1.92,-3.34 1.9,-3.46 1.56,-3.58 1.56,-3.59 1.42,-3.7 1.2,-3.59 1.2,-3.82 1.07,-3.7 2.03,-7.65 1.91,-7.64 2.03,-7.77 2.03,-7.52 1.8,-5.5 1.79,-5.38 2.03,-5.25 2.27,-5.26 2.27,-5.25 2.51,-5.02 2.62,-5.13 2.75,-4.9 z" /></g></g><g
       id="g42"><g
         clip-path="url(#clipPath48)"
         id="g44"><path
           id="path50"
           style="fill:#555555;fill-opacity:1;fill-rule:evenodd;stroke:none"
           d="m 592.13,229.49 -0.36,-0.54 -0.18,-0.62 0.36,0.18 z m 6.11,12.85 0.54,-0.45 0.45,-0.45 0.36,-0.45 0.26,-0.53 0.18,-0.54 0.1,-0.54 v -0.9 -0.99 l -0.18,-0.9 -0.27,-0.99 v -0.63 -0.72 l -0.27,-1.35 0.18,-0.26 0.09,-0.18 v -0.27 -0.36 l -0.09,-0.09 h 0.09 l 0.09,-0.63 0.08,-0.18 v -0.36 l -0.08,-0.63 -0.18,-0.54 -0.45,-1.17 -0.9,-1.79 -0.99,-1.8 -1.17,-1.8 -1.16,-1.7 -1.35,-1.62 -0.81,-0.81 -0.36,-0.36 -0.45,-0.27 -0.54,-0.18 -0.45,-0.09 h -0.45 l -0.44,0.09 -0.46,0.18 -0.44,0.18 -0.36,0.36 -0.36,0.36 -0.54,-0.09 -0.45,-0.09 -0.54,0.09 -0.45,0.18 -0.45,0.18 -0.45,0.27 -0.36,0.45 -0.27,0.45 -0.36,0.72 -0.08,0.8 v 0.82 l 0.08,0.8 0.09,0.81 0.18,0.81 0.45,1.53 0.54,1.34 0.54,1.35 0.63,1.35 0.72,1.26 0.09,1.25 0.27,1.35 0.45,1.26 0.53,1.17 0.64,1.08 0.8,0.99 0.99,0.89 0.54,0.46 0.54,0.26 1.08,0.54 1.26,0.36 0.62,0.09 h 1.35 l 0.63,-0.09 v 0.36 l 0.09,0.27 0.27,0.09 z" /></g></g><path
       id="path52"
       style="fill:#555555;fill-opacity:1;fill-rule:evenodd;stroke:none"
       d="m 588.54,210.36 0.53,-0.09 0.46,-0.27 0.36,-0.36 0.26,-0.45 0.27,0.09 h 0.18 l 0.45,-0.18 0.27,-0.36 0.09,-0.18 v -0.27 -0.09 l -0.09,0.09 0.09,-0.45 -0.18,-0.54 -0.18,-0.45 -0.18,-0.36 -0.09,-0.26 -0.09,-0.1 -0.18,-0.54 -0.27,-0.53 -0.53,-1.08 -0.36,-0.63 -0.46,-0.9 -0.53,-0.9 -0.54,-0.81 -0.72,-0.8 -0.27,-0.28 -0.45,-0.08 h -0.36 l -0.45,0.18 -0.27,0.26 -0.18,0.36 -0.09,0.46 v 0.44 l 0.18,0.63 -0.27,0.27 -0.27,0.27 -0.17,0.36 -0.1,0.45 v 0.54 0.63 l 0.36,1.16 0.54,1.26 0.63,1.17 0.27,0.54 0.36,0.54 0.09,0.18 0.36,0.36 0.36,0.27 0.18,0.18 0.45,0.18 z" /><path
       id="path54"
       style="fill:#555555;fill-opacity:1;fill-rule:evenodd;stroke:none"
       d="m 592.58,186.73 0.63,-0.09 0.45,-0.27 0.45,-0.45 0.35,-0.45 0.18,-0.45 0.18,-0.54 0.1,-0.53 v -1.08 l -0.18,-0.99 v -0.09 l 0.08,-0.45 v -0.45 l -0.08,-0.54 -0.18,-0.45 -0.54,-0.9 -0.63,-0.9 -0.72,-0.8 -0.81,-0.72 -0.45,-0.45 -0.36,-0.45 -0.54,-0.36 -0.62,-0.27 -0.64,-0.09 -0.62,0.09 -0.45,0.18 -0.45,0.27 -0.36,0.36 -0.27,0.36 -0.18,0.36 -0.18,0.45 -0.09,0.81 v 0.8 l 0.09,0.81 0.27,0.81 0.36,0.9 0.72,1.71 0.9,1.52 0.44,0.72 0.54,0.63 0.45,0.36 0.54,0.36 0.54,0.18 0.54,0.09 z" /><path
       id="path56"
       style="fill:#555555;fill-opacity:1;fill-rule:evenodd;stroke:none"
       d="m 581.98,173.07 0.27,-0.08 0.54,-0.28 0.36,-0.44 0.27,-0.54 0.08,-0.54 v -0.9 l 0.36,0.9 0.1,0.18 0.18,0.09 h 0.26 l 0.18,-0.09 0.09,-0.09 0.09,-0.18 v -0.18 l -0.54,-2.07 -0.36,-0.99 -0.54,-0.98 -0.53,-0.9 -0.81,-0.9 -0.36,-0.81 -0.36,-0.45 -0.54,-0.27 -0.54,-0.09 h -0.54 l -0.36,0.18 h -0.09 l -0.18,0.18 -0.08,0.09 -0.36,0.45 -0.18,0.54 v 0.63 l 0.18,0.54 v 0.36 1.07 l 0.18,0.99 0.26,0.9 0.18,0.36 0.15,0.36 h -0.06 l 0.09,0.09 0.18,0.54 0.27,0.54 0.18,0.27 0.09,0.27 0.27,0.35 0.36,0.46 0.45,0.26 0.54,0.18 z" /><g
       id="g58"><g
         clip-path="url(#clipPath64)"
         id="g60"><path
           id="path66"
           style="fill:#555555;fill-opacity:1;fill-rule:evenodd;stroke:none"
           d="m 591.14,156.1 -0.27,-0.28 -0.18,-0.62 -0.27,-0.63 -0.27,-0.54 -0.36,-0.45 -0.44,-0.9 -0.54,-0.81 -0.18,-0.27 -0.27,-0.45 -0.27,-0.26 -0.36,-0.18 -0.36,-0.1 h -0.36 l -0.72,-1.61 0.9,0.63 0.72,0.72 0.63,0.72 0.53,0.71 0.54,0.81 0.54,0.81 0.36,0.9 0.36,0.9 z m 6.02,6.37 0.27,-0.09 0.18,-0.17 0.18,-0.28 0.09,-0.36 -0.09,-0.89 0.18,-0.36 v -0.36 -0.36 -0.36 l -0.54,-1.53 -0.45,-1.71 -0.54,-1.61 -0.63,-1.71 -0.81,-1.53 -0.62,-1.16 -0.72,-1.17 -0.72,-1.17 -0.81,-1.08 -0.9,-1.08 -0.9,-0.99 -0.98,-0.99 -0.99,-0.89 -1.08,-0.9 -0.54,-0.36 -0.54,-0.36 -0.63,-0.27 -0.72,-0.18 h -0.63 l -0.62,0.18 -0.45,0.18 -0.36,-0.09 h -0.45 l -0.36,0.09 -0.45,0.09 -0.36,0.18 -0.27,0.18 -0.36,0.27 -0.18,0.36 -0.27,0.36 -0.09,0.36 -0.18,0.72 0.09,0.72 0.09,0.8 0.27,0.72 0.72,2.25 0.9,2.15 1.17,2.16 1.26,1.98 1.25,2.15 1.44,2.07 0.45,0.45 0.54,0.27 0.99,0.9 1.08,0.81 1.07,0.63 1.17,0.44 0.27,0.18 0.45,0.18 0.45,0.09 h 0.36 l 0.36,-0.17 0.98,-0.1 1.08,-0.18 0.09,0.28 0.27,0.17 0.27,0.09 z" /></g></g><path
       id="path68"
       style="fill:#e1c7af;fill-opacity:1;fill-rule:evenodd;stroke:none"
       d="m 0.56598,531.71 7.15622,-4.18 3.5038,-1.98 3.5,-1.98 6.929,-3.73 3.426,-1.98 3.347,-1.98 3.277,-2.13 3.195,-2.21 1.521,-1.22 1.6,-1.22 1.447,-1.21 1.447,-1.3 2.209,-2.13 2.131,-2.21 2.053,-2.28 1.905,-2.36 1.826,-2.43 1.826,-2.52 1.678,-2.51 1.673,-2.59 1.826,-2.89 1.678,-3.05 1.595,-3.04 0.763,-1.6 0.684,-1.6 0.61,-1.6 0.532,-1.6 0.532,-1.67 0.458,-1.6 0.305,-1.68 0.305,-1.67 0.226,-1.67 0.079,-1.75 v -1.6 l -0.079,-1.68 -0.152,-1.6 -0.149,-1.6 -0.305,-1.6 -0.383,-1.6 -0.379,-1.52 -0.458,-1.6 -0.532,-1.52 -0.531,-1.6 -1.295,-3.04 -1.372,-2.97 -1.521,-2.89 -1.827,-3.35 -1.978,-3.27 -1.983,-3.2 -2.131,-3.2 -2.284,-3.04 -2.284,-3.05 -2.436,-2.97 -2.51,-2.81 -2.132,-2.37 -2.209,-2.28 -4.337,-4.65 -2.131,-2.43 -2.057,-2.43 -1.904,-2.52 -0.837,-1.29 -0.911,-1.3 -1.22,-2.13 -1.217,-2.2 -0.993,-2.29 -0.989,-2.28 -0.911,-2.36 -0.763,-2.29 -0.763,-2.43 -0.684,-2.36 -1.294,-4.87 -1.216,-4.88 -1.295,-4.95 -1.294,-4.79 -1.142,-3.51 -1.1418,-3.42 -1.2944,-3.35 -1.4469,-3.35 -1.4469,-3.35 -1.5994,-3.2 -1.6737,-3.27 -1.75192,-3.12 z" /><g
       id="g70"><g
         clip-path="url(#clipPath76)"
         id="g72"><path
           id="path78"
           style="fill:#35332e;fill-opacity:1;fill-rule:evenodd;stroke:none"
           d="m -1.3419,548.9 2.5482,-0.79 2.4662,-0.8 2.4706,-1.03 2.4662,-1.04 2.3107,-1.19 2.311,-1.35 2.229,-1.44 2.148,-1.51 2.069,-1.67 1.992,-1.68 1.91,-1.83 1.833,-1.99 1.673,-1.99 1.591,-2.07 1.513,-2.23 1.354,-2.31 0.797,-1.59 0.716,-1.59 0.716,-1.59 0.556,-1.6 0.561,-1.59 0.396,-1.67 0.397,-1.6 0.319,-1.67 0.241,-1.67 0.238,-1.59 0.159,-1.68 0.078,-1.67 v -1.67 -1.67 l -0.16,-3.35 -0.237,-3.34 -0.479,-3.34 -0.556,-3.43 -0.638,-3.34 -0.716,-3.34 -0.715,-3.35 -1.596,-6.61 -0.875,-3.58 -0.716,-3.59 -0.715,-3.66 -0.557,-3.66 -0.159,-1.84 -0.16,-1.82 -0.159,-1.84 v -1.83 -1.83 l 0.077,-1.83 0.082,-1.83 0.238,-1.83 0.319,-1.84 0.319,-1.75 0.478,-1.67 0.479,-1.75 0.556,-1.67 0.638,-1.68 0.716,-1.59 0.716,-1.67 1.513,-3.19 1.673,-3.18 3.423,-6.21 1.673,-3.03 1.591,-3.1 1.514,-3.11 1.353,-3.1 0.634,-1.6 0.561,-1.59 0.478,-1.67 0.475,-1.68 0.401,-1.66 0.319,-1.68 0.237,-1.67 0.237,-1.75 0.082,-1.83 v -1.91 -1.84 l -0.16,-1.91 -0.241,-1.83 -0.237,-1.83 -0.319,-1.83 -0.397,-1.83 -0.479,-1.83 -0.556,-1.76 -0.556,-1.75 -0.638,-1.83 -0.716,-1.67 -0.72,-1.75 -1.591,-3.35 -1.591,-3.18 -1.755,-3.03 -1.91,-2.95 -1.987,-2.86 -2.074,-2.87 -2.147,-2.7 -2.23,-2.71 -2.388,-2.63 -2.389,-2.63 -2.47,-2.47 -2.549,-2.47 -2.548,-2.38 -2.625,-2.39 -2.631,-2.31 -5.4106,-4.46 -3.5053,-2.87 -3.583,-2.78 v 2.54 l 5.5749,4.54 5.493,4.62 2.708,2.39 2.625,2.39 2.631,2.47 2.548,2.54 2.548,2.63 2.548,2.71 2.466,2.86 2.389,2.87 2.389,3.03 2.229,3.1 2.069,3.27 1.915,3.26 1.828,3.35 0.797,1.67 0.798,1.75 0.716,1.67 0.638,1.84 0.634,1.75 0.56,1.75 0.474,1.83 0.479,1.83 0.401,1.84 0.237,1.82 0.237,1.84 0.16,1.83 0.082,1.91 0.077,1.91 -0.077,1.83 -0.16,1.75 -0.319,1.76 -0.319,1.75 -0.397,1.75 -0.478,1.67 -0.479,1.67 -0.638,1.68 -0.634,1.59 -0.638,1.59 -1.513,3.19 -1.591,3.18 -1.755,3.11 -3.423,6.29 -1.673,3.1 -1.591,3.19 -1.432,3.26 -0.638,1.59 -0.638,1.68 -0.479,1.67 -0.474,1.67 -0.478,1.75 -0.319,1.75 -0.32,1.84 -0.159,1.75 -0.16,1.83 -0.077,1.75 v 1.75 1.83 l 0.077,1.76 0.16,1.75 0.397,3.58 0.56,3.51 0.638,3.5 0.794,3.5 1.672,7.01 1.673,7.01 0.716,3.5 0.716,3.5 0.556,3.51 0.401,3.5 0.16,1.76 0.077,1.75 v 1.67 1.75 l -0.077,1.75 -0.082,1.67 -0.238,1.68 -0.241,1.67 -0.315,1.67 -0.401,1.67 -0.396,1.67 -0.557,1.59 -0.56,1.68 -0.634,1.51 -0.798,1.6 -0.797,1.59 -0.794,1.35 -0.797,1.36 -0.957,1.27 -0.876,1.27 -0.952,1.28 -1.035,1.19 -1.039,1.19 -1.113,1.12 -1.116,1.11 -1.195,1.04 -1.194,1.03 -1.272,1.04 -1.194,0.96 -1.354,0.87 -2.626,1.76 -1.595,0.95 -1.5912,0.87 -1.6729,0.8 -1.673,0.72 -1.6729,0.71 -1.7505,0.56 -1.67288,0.56 -1.75052,0.56 z" /></g></g><g
       id="g80"><g
         clip-path="url(#clipPath86)"
         id="g82"><path
           id="path88"
           style="fill:#9c5e43;fill-opacity:1;fill-rule:evenodd;stroke:none"
           d="m 596.24,841.88 -2.91,-0.91 -2.82,-0.91 -2.83,-1.19 -2.82,-1.18 -2.65,-1.37 -2.64,-1.55 -2.56,-1.64 -2.45,-1.73 -2.37,-1.91 -2.28,-1.92 -2.19,-2.1 -2.09,-2.28 -1.92,-2.27 -1.82,-2.37 -1.73,-2.55 -1.55,-2.64 -0.91,-1.83 -0.82,-1.82 -0.82,-1.82 -0.64,-1.82 -0.64,-1.83 -0.46,-1.91 -0.45,-1.82 -0.36,-1.92 -0.28,-1.91 -0.27,-1.82 -0.18,-1.92 -0.09,-1.91 v -1.91 -1.92 l 0.18,-3.83 0.27,-3.82 0.55,-3.83 0.63,-3.92 0.74,-3.83 0.81,-3.82 0.82,-3.83 1.83,-7.57 1,-4.1 0.82,-4.1 0.82,-4.19 0.64,-4.19 0.18,-2.1 0.18,-2.09 0.18,-2.1 v -2.1 -2.09 l -0.09,-2.1 -0.09,-2.09 -0.27,-2.1 -0.37,-2.1 -0.36,-2 -0.55,-1.92 -0.55,-2 -0.63,-1.91 -0.73,-1.92 -0.82,-1.82 -0.82,-1.91 -1.73,-3.65 -1.92,-3.64 -3.92,-7.11 -1.91,-3.47 -1.82,-3.55 -1.73,-3.55 -1.55,-3.56 -0.73,-1.82 -0.64,-1.82 -0.55,-1.92 -0.54,-1.91 -0.46,-1.91 -0.36,-1.92 -0.28,-1.91 -0.27,-2 -0.09,-2.1 v -2.19 -2.1 l 0.18,-2.18 0.28,-2.1 0.27,-2.1 0.36,-2.09 0.46,-2.1 0.55,-2.09 0.63,-2.01 0.64,-2 0.73,-2.1 0.82,-1.91 0.82,-2 1.82,-3.83 1.82,-3.65 2.01,-3.46 2.19,-3.38 2.27,-3.28 2.38,-3.27 2.45,-3.1 2.56,-3.1 2.73,-3.01 2.73,-3.01 2.83,-2.82 2.92,-2.83 2.91,-2.73 3.01,-2.73 3.01,-2.65 6.19,-5.1 4.01,-3.28 4.1,-3.19 v 2.92 l -6.38,5.19 -6.28,5.29 -3.1,2.73 -3.01,2.73 -3.01,2.83 -2.91,2.91 -2.92,3.01 -2.92,3.1 -2.82,3.28 -2.73,3.28 -2.74,3.46 -2.55,3.56 -2.37,3.73 -2.19,3.74 -2.09,3.83 -0.91,1.91 -0.92,2.01 -0.81,1.91 -0.73,2.1 -0.73,2 -0.64,2 -0.54,2.1 -0.55,2.1 -0.46,2.1 -0.27,2.09 -0.27,2.1 -0.19,2.09 -0.09,2.19 -0.09,2.19 0.09,2.09 0.18,2.01 0.37,2 0.36,2.01 0.46,2 0.54,1.92 0.55,1.91 0.73,1.91 0.73,1.83 0.73,1.82 1.73,3.64 1.82,3.65 2.01,3.55 3.92,7.2 1.91,3.56 1.82,3.64 1.64,3.74 0.73,1.82 0.73,1.91 0.55,1.92 0.54,1.91 0.55,2.01 0.37,2 0.36,2.1 0.18,2 0.19,2.1 0.08,2 v 2.01 2.09 l -0.08,2.01 -0.19,2 -0.45,4.1 -0.64,4.02 -0.73,4 -0.91,4.01 -1.92,8.02 -1.91,8.02 -0.82,4.01 -0.82,4.01 -0.63,4.01 -0.46,4.01 -0.19,2.01 -0.08,2 v 1.92 2 l 0.08,2 0.1,1.92 0.27,1.91 0.28,1.92 0.36,1.91 0.45,1.91 0.46,1.92 0.64,1.82 0.64,1.91 0.72,1.73 0.91,1.83 0.92,1.82 0.91,1.55 0.91,1.55 1.09,1.46 1.01,1.46 1.09,1.45 1.18,1.37 1.19,1.37 1.27,1.27 1.28,1.28 1.37,1.18 1.37,1.19 1.45,1.18 1.37,1.1 1.55,1 3,2.01 1.83,1.09 1.82,1 1.91,0.91 1.92,0.82 1.91,0.82 2.01,0.64 1.91,0.64 2,0.63 z" /></g></g><path
       id="path90"
       style="fill:#db9d6a;fill-opacity:1;fill-rule:evenodd;stroke:none"
       d="m 492.81,820.2 -0.36,-0.54 -0.18,-0.63 0.36,0.18 z m 6.11,12.84 0.54,-0.45 0.45,-0.45 0.36,-0.45 0.27,-0.53 0.18,-0.54 0.09,-0.54 v -0.9 -0.99 l -0.18,-0.9 -0.27,-0.99 v -0.63 -0.72 l -0.27,-1.34 0.18,-0.27 0.09,-0.18 v -0.27 -0.36 l -0.09,-0.09 h 0.09 l 0.09,-0.63 0.09,-0.18 v -0.36 l -0.09,-0.63 -0.18,-0.54 -0.45,-1.16 -0.9,-1.8 -0.99,-1.8 -1.16,-1.79 -1.17,-1.71 -1.35,-1.62 -0.81,-0.8 -0.36,-0.36 -0.45,-0.28 -0.53,-0.18 -0.46,-0.08 h -0.44 l -0.45,0.08 -0.45,0.18 -0.45,0.18 -0.36,0.36 -0.36,0.36 -0.54,-0.09 -0.45,-0.09 -0.54,0.09 -0.45,0.18 -0.45,0.18 -0.45,0.27 -0.36,0.45 -0.26,0.45 -0.36,0.72 -0.09,0.81 v 0.81 l 0.09,0.81 0.08,0.8 0.18,0.81 0.46,1.53 0.54,1.35 0.53,1.34 0.63,1.35 0.72,1.26 0.09,1.26 0.27,1.34 0.45,1.26 0.54,1.17 0.63,1.08 0.81,0.99 0.98,0.89 0.54,0.46 0.54,0.26 1.08,0.54 1.26,0.36 0.63,0.09 h 1.34 l 0.63,-0.09 v 0.36 l 0.09,0.27 0.27,0.09 z" /><path
       id="path92"
       style="fill:#db9d6a;fill-opacity:1;fill-rule:evenodd;stroke:none"
       d="m 507.63,801.06 -0.08,-1.44 -0.27,-1.44 -0.45,-1.43 -0.54,-1.35 0.63,1.17 0.45,1.25 0.44,1.44 0.1,0.72 v 0.36 l -0.1,0.36 z m 0,3.05 0.46,-0.09 0.54,-0.18 0.44,-0.36 0.45,-0.27 0.27,-0.36 0.27,-0.45 0.18,-0.36 0.36,0.1 h 0.27 l 0.36,-0.18 0.18,-0.18 0.18,-0.36 0.18,-0.27 0.09,-0.36 v -0.36 l -0.45,-1.98 -0.63,-1.98 -0.72,-1.88 -0.9,-1.8 -1.07,-1.71 -1.26,-1.7 -1.26,-1.53 -1.44,-1.44 -0.81,-0.72 -0.9,-0.62 -0.44,-0.28 -0.45,-0.08 -0.54,-0.09 -0.54,0.09 -0.45,0.26 -0.36,0.18 -0.27,0.36 -0.18,0.36 -0.18,0.45 -0.18,0.45 -0.09,0.9 v 1.08 l -0.18,0.72 v 0.81 l 0.27,1.16 0.36,1.26 0.54,1.17 0.54,1.08 0.54,1.08 0.45,1.34 0.62,1.26 0.72,1.17 0.9,1.08 0.81,1.16 0.9,1.08 0.45,0.36 0.45,0.27 0.45,0.18 0.54,0.09 z" /><path
       id="path94"
       style="fill:#db9d6a;fill-opacity:1;fill-rule:evenodd;stroke:none"
       d="m 504.49,765.48 -0.36,-0.45 -0.45,-0.72 -0.36,-0.8 -0.26,-0.82 v -0.17 l 0.62,0.81 0.45,0.71 0.18,0.63 z m 0.72,3.32 0.36,-0.08 0.36,-0.1 0.36,-0.26 0.36,-0.36 0.18,-0.45 0.18,-0.45 0.09,-0.54 0.27,0.18 0.26,0.09 h 0.46 l 0.36,-0.18 0.18,-0.36 0.08,-0.36 v -1.17 -0.63 l -0.18,-0.54 -0.36,-1.16 -0.44,-1.08 -0.63,-1.08 -0.63,-0.9 -0.9,-0.81 -0.9,-0.8 -0.18,-0.18 h -0.36 l -0.27,0.08 -0.18,0.1 -0.27,0.18 -0.18,0.26 -0.09,0.28 v 0.26 l 0.09,0.45 -0.27,0.36 h -0.72 l -0.26,0.09 -0.27,0.09 -0.27,0.18 -0.27,0.27 -0.18,0.27 -0.18,0.27 -0.18,0.63 v 0.72 0.62 l 0.18,0.72 0.45,1.26 0.54,1.17 0.8,1.08 0.81,1.08 0.72,0.44 0.27,0.18 0.45,0.1 z" /><path
       id="path96"
       style="fill:#db9d6a;fill-opacity:1;fill-rule:evenodd;stroke:none"
       d="m 524.88,810.4 0.63,-0.09 0.72,-0.27 0.18,-0.18 0.72,-0.09 0.63,-0.35 0.54,-0.46 0.18,-0.26 0.27,-0.36 0.18,-0.54 0.09,-0.45 0.09,-0.54 v -0.54 l -0.18,-0.99 -0.18,-1.08 -0.45,-1.88 -0.63,-1.89 -0.81,-1.89 -0.9,-1.71 -0.98,-1.7 -1.18,-1.71 -1.25,-1.53 -0.72,-0.71 -0.72,-0.64 -0.54,-0.35 -0.54,-0.27 -0.54,-0.18 h -1.16 l -0.54,0.18 -0.54,0.36 -0.45,0.44 -0.36,0.36 -0.18,0.46 -0.36,0.89 -0.18,0.99 -0.09,0.99 v 1.98 l 0.27,1.88 0.54,1.89 0.63,1.8 0.81,1.79 0.99,1.71 1.16,1.53 1.35,1.43 0.99,0.9 0.63,0.36 0.54,0.36 0.62,0.27 z" /><path
       id="path98"
       style="fill:#db9d6a;fill-opacity:1;fill-rule:evenodd;stroke:none"
       d="m 520.12,826.57 0.45,-0.18 0.27,-0.18 0.36,-0.18 0.18,-0.18 0.09,-0.08 0.27,-0.18 0.09,-0.28 0.18,-0.36 0.18,-0.89 v -0.9 -0.18 -0.72 l -0.18,-0.81 -0.09,-0.36 -0.09,-0.45 -0.27,-0.54 -0.36,-0.44 -0.27,-0.45 -0.27,-0.36 -0.18,-0.09 -0.09,-0.09 -0.18,-0.18 h -0.9 l -0.36,0.09 h -0.08 l -0.46,0.18 -0.35,0.27 -0.27,0.35 -0.18,0.36 -0.18,0.46 -0.18,0.36 -0.09,0.89 0.09,0.9 0.27,0.81 0.45,0.72 0.54,0.63 0.36,0.26 0.44,0.28 0.1,0.08 -0.1,0.36 v 0.36 l -0.08,0.18 v 0.09 l 0.08,0.18 h 0.28 l 0.08,0.09 0.18,0.09 z" /><path
       id="path100"
       style="fill:#db9d6a;fill-opacity:1;fill-rule:evenodd;stroke:none"
       d="m 489.22,801.06 0.54,-0.09 0.45,-0.27 0.36,-0.36 0.27,-0.45 0.26,0.09 h 0.18 l 0.46,-0.18 0.26,-0.36 0.1,-0.18 v -0.27 -0.09 l -0.1,0.09 0.1,-0.45 -0.18,-0.54 -0.18,-0.45 -0.18,-0.36 -0.1,-0.26 -0.08,-0.1 -0.18,-0.54 -0.28,-0.53 -0.53,-1.08 -0.36,-0.63 -0.45,-0.9 -0.54,-0.9 -0.54,-0.81 -0.72,-0.8 -0.27,-0.28 -0.45,-0.08 h -0.36 l -0.45,0.18 -0.26,0.26 -0.18,0.36 -0.1,0.46 v 0.44 l 0.18,0.63 -0.26,0.27 -0.28,0.27 -0.17,0.36 -0.09,0.45 v 0.54 0.63 l 0.36,1.16 0.54,1.26 0.62,1.17 0.27,0.54 0.36,0.54 0.09,0.18 0.36,0.36 0.36,0.27 0.18,0.18 0.45,0.18 z" /><path
       id="path102"
       style="fill:#db9d6a;fill-opacity:1;fill-rule:evenodd;stroke:none"
       d="m 472.69,823.25 0.45,-0.18 0.54,-0.27 0.36,-0.36 0.27,-0.45 0.18,-0.54 h 0.54 l 0.54,-0.27 0.35,-0.36 0.27,-0.54 0.18,-0.98 v -0.99 l -0.09,-1.08 -0.18,-0.99 -0.27,-0.99 -0.26,-0.98 -0.46,-0.99 -0.36,-0.9 -0.71,-1.35 -0.45,-0.72 -0.54,-0.72 -0.63,-0.63 -0.63,-0.54 -0.63,-0.44 -0.36,-0.18 -0.36,-0.09 -0.44,-0.81 -0.54,-0.72 -0.36,-0.45 -0.45,-0.36 -0.54,-1.08 -0.72,-1.08 -0.72,-1.07 -0.81,-0.99 -0.27,-0.18 -0.36,-0.09 h -0.27 l -0.27,0.18 -0.26,0.18 -0.18,0.36 v 0.26 0.36 l 0.8,2.88 -0.36,0.27 -0.26,0.45 -0.18,0.45 -0.1,0.45 -0.08,0.54 v 0.54 l 0.08,1.08 0.18,1.07 -0.18,1.17 v 1.17 l 0.18,1.08 0.36,1.08 0.36,1.07 0.54,1.08 0.63,0.9 0.72,0.99 0.72,0.89 0.81,1 0.89,0.8 0.9,0.72 0.63,0.36 0.27,0.36 0.45,0.36 0.54,0.18 z" /><path
       id="path104"
       style="fill:#db9d6a;fill-opacity:1;fill-rule:evenodd;stroke:none"
       d="m 473.5,797.91 0.54,-0.18 0.53,-0.27 0.36,-0.45 0.18,-0.54 0.1,-0.54 v -0.62 l -0.18,-0.45 0.26,-0.27 0.1,-0.27 0.18,-0.72 -0.1,-1.26 -0.18,-1.34 0.36,0.26 0.36,0.18 h 0.45 l 0.36,-0.18 0.36,-0.26 0.18,-0.46 v -0.44 l -0.09,-0.36 -0.27,-0.36 -1.26,-1.35 -1.25,-1.17 -2.7,-2.33 -0.36,-0.36 -0.54,-0.36 -0.45,-0.36 -0.27,-0.27 -0.27,-0.18 -0.36,-0.18 -0.26,-0.09 -0.81,-0.54 -0.27,-0.18 -0.36,-0.09 h -0.27 l -0.36,0.09 -0.27,0.09 -0.36,0.18 -0.18,0.18 -0.27,0.27 -0.18,0.27 -0.09,0.36 v 0.36 0.36 l -0.36,0.54 -0.36,0.71 -0.09,0.72 -0.09,0.72 v 0.81 l 0.18,0.72 0.18,0.72 0.27,0.72 0.72,1.34 0.81,1.26 1.17,1.53 1.25,1.35 1.44,1.25 1.44,1.17 0.27,0.18 h 0.27 z" /><path
       id="path106"
       style="fill:#db9d6a;fill-opacity:1;fill-rule:evenodd;stroke:none"
       d="m 452.12,800.16 0.63,-0.18 0.54,-0.36 h 0.08 l 0.36,-0.09 0.45,-0.09 0.36,-0.27 0.27,-0.27 0.27,-0.27 0.18,-0.45 0.09,-0.36 0.09,-0.45 0.27,-0.36 0.27,-0.44 0.18,-0.46 0.18,-0.44 0.09,-0.99 v -0.99 -1.17 l -0.18,-1.08 -0.18,-1.08 -0.36,-1.07 -0.9,-2.16 -0.99,-2.06 -0.63,-0.99 -0.62,-0.9 -1.44,-1.89 -0.72,-0.89 -0.81,-0.82 -0.45,-0.44 -0.54,-0.36 -0.45,-0.27 -0.54,-0.18 -0.72,-0.09 -0.63,0.18 -0.54,0.18 -0.44,0.45 -0.36,-0.36 -0.36,-0.27 -0.63,-0.36 -0.72,-0.18 h -0.72 l -0.63,0.09 -0.63,0.18 -0.62,0.36 -0.54,0.54 -0.36,0.53 -0.27,0.54 -0.18,0.54 -0.09,0.54 -0.09,0.54 v 1.17 l 0.18,1.08 0.36,1.16 0.35,1.08 0.46,1.17 0.44,1.08 1.08,2.06 1.26,1.98 0.81,1.08 0.81,0.99 0.89,0.99 1,0.99 0.98,0.89 0.99,0.9 1.08,0.81 1.17,0.72 0.27,0.18 0.27,0.09 z" /><path
       id="path108"
       style="fill:#db9d6a;fill-opacity:1;fill-rule:evenodd;stroke:none"
       d="m 526.23,783.54 0.54,-0.09 0.54,-0.09 0.45,-0.27 0.45,-0.36 0.45,-0.54 0.27,-0.63 0.18,-0.63 v -0.71 l 0.18,-0.28 0.08,-0.26 0.1,-0.9 v -0.45 l -0.1,-0.54 -0.26,-0.81 -0.36,-0.81 -0.63,-1.34 -0.36,-1.17 -0.36,-1.08 -0.45,-1.08 -0.54,-1.08 -0.54,-1.08 -0.63,-0.98 -0.44,-0.45 -0.36,-0.36 -0.54,-0.36 -0.54,-0.27 -0.45,-0.09 -0.45,-0.09 -0.45,0.09 -0.36,0.09 -0.45,0.18 -0.45,0.18 -0.27,0.27 -0.36,0.36 -0.45,-0.18 h -0.54 l -0.44,0.09 -0.45,0.18 -0.36,0.36 -0.27,0.36 -0.18,0.54 -0.09,0.44 0.27,1.98 0.45,1.8 0.63,1.88 0.8,1.71 0.45,0.81 0.45,0.81 1.08,1.53 0.63,0.71 0.63,0.72 0.72,0.63 0.71,0.54 0.46,0.27 0.54,0.27 0.53,0.09 z" /><path
       id="path110"
       style="fill:#db9d6a;fill-opacity:1;fill-rule:evenodd;stroke:none"
       d="m 493.26,777.43 0.63,-0.09 0.45,-0.27 0.45,-0.45 0.36,-0.45 0.18,-0.45 0.18,-0.54 0.09,-0.53 v -1.08 l -0.18,-0.99 v -0.09 l 0.09,-0.45 v -0.45 l -0.09,-0.54 -0.18,-0.45 -0.54,-0.9 -0.63,-0.9 -0.72,-0.8 -0.81,-0.72 -0.44,-0.45 -0.36,-0.45 -0.54,-0.36 -0.63,-0.27 -0.63,-0.09 -0.63,0.09 -0.45,0.18 -0.45,0.27 -0.36,0.36 -0.27,0.36 -0.18,0.36 -0.18,0.45 -0.09,0.81 v 0.8 l 0.09,0.81 0.27,0.81 0.36,0.9 0.72,1.71 0.9,1.52 0.45,0.72 0.54,0.63 0.44,0.36 0.54,0.36 0.54,0.18 0.54,0.09 z" /><path
       id="path112"
       style="fill:#db9d6a;fill-opacity:1;fill-rule:evenodd;stroke:none"
       d="m 482.66,763.77 0.27,-0.08 0.54,-0.28 0.36,-0.44 0.27,-0.54 0.09,-0.54 v -0.9 l 0.36,0.9 0.09,0.18 0.18,0.09 h 0.27 l 0.18,-0.09 0.08,-0.09 0.1,-0.18 v -0.18 l -0.54,-2.07 -0.36,-0.99 -0.54,-0.98 -0.54,-0.9 -0.81,-0.9 -0.36,-0.81 -0.36,-0.45 -0.54,-0.27 -0.54,-0.09 h -0.54 l -0.36,0.18 h -0.08 l -0.18,0.18 -0.09,0.09 -0.36,0.45 -0.18,0.54 v 0.63 l 0.18,0.54 v 0.36 1.07 l 0.18,0.99 0.27,0.9 0.18,0.36 0.14,0.36 h -0.06 l 0.1,0.09 0.18,0.54 0.26,0.54 0.18,0.27 0.1,0.27 0.26,0.35 0.36,0.46 0.45,0.26 0.54,0.18 z" /><path
       id="path114"
       style="fill:#db9d6a;fill-opacity:1;fill-rule:evenodd;stroke:none"
       d="m 471.16,774.11 0.36,-0.1 h 0.36 l 0.27,-0.18 0.36,-0.17 0.27,-0.09 0.27,-0.18 0.18,-0.27 0.18,-0.27 0.18,-0.27 0.09,-0.36 0.09,-0.36 v -0.36 l 0.09,-0.27 0.09,-0.27 -0.18,-1.62 -0.36,-1.61 -0.54,-1.62 -0.63,-1.62 -0.36,-0.98 -0.45,-1.44 -0.54,-1.35 -0.63,-1.35 -0.72,-1.35 -0.26,-0.26 -0.28,-0.18 h -0.62 l -0.72,-1.08 -0.45,-0.45 -0.45,-0.45 -0.72,-0.54 -0.81,-0.45 -1.34,-1.35 -0.36,-0.18 -0.45,-0.17 h -0.36 l -0.45,0.17 -0.36,0.18 -0.36,0.36 -0.09,0.36 -0.09,0.45 0.27,1.17 -0.27,0.45 -0.18,0.45 -0.09,0.72 v 0.9 l 0.18,0.8 0.09,0.72 0.36,1.53 0.54,1.44 0.54,1.61 0.72,1.53 0.9,1.53 0.89,1.34 0.99,1.35 1.08,1.35 1.26,1.17 1.25,1.08 0.27,0.26 0.36,0.1 z" /><path
       id="path116"
       style="fill:#db9d6a;fill-opacity:1;fill-rule:evenodd;stroke:none"
       d="m 461.1,777.16 v -0.09 h 0.09 z m -0.99,2.42 0.54,-0.18 0.45,-0.26 0.36,-0.36 0.18,-0.45 0.09,-0.54 v -0.36 -0.27 l -0.27,-0.54 v -0.27 -0.27 l -0.18,-0.63 -0.18,-0.62 -0.36,-0.82 -0.72,-1.16 -0.45,-0.54 -0.53,-0.54 -0.28,-0.18 -0.26,-0.09 -0.28,-0.09 h -0.36 l -0.26,0.09 -0.36,0.18 -0.18,0.18 -0.18,0.27 -0.36,1.08 -0.09,1.08 0.09,0.89 0.18,0.9 0.36,0.9 0.45,0.81 0.27,0.45 0.36,0.36 0.44,0.45 0.54,0.27 0.45,0.18 z" /><path
       id="path118"
       style="fill:#db9d6a;fill-opacity:1;fill-rule:evenodd;stroke:none"
       d="m 491.82,746.8 -0.26,-0.28 -0.18,-0.62 -0.28,-0.63 -0.26,-0.54 -0.36,-0.45 -0.45,-0.9 -0.54,-0.81 -0.18,-0.27 -0.27,-0.45 -0.27,-0.26 -0.36,-0.18 -0.36,-0.1 h -0.36 l -0.72,-1.61 0.9,0.63 0.72,0.72 0.63,0.72 0.54,0.71 0.54,0.81 0.54,0.81 0.36,0.9 0.36,0.9 z m 6.02,6.37 0.27,-0.09 0.18,-0.17 0.18,-0.28 0.09,-0.36 -0.09,-0.89 0.18,-0.36 v -0.36 -0.36 -0.36 l -0.54,-1.53 -0.44,-1.71 -0.54,-1.61 -0.64,-1.71 -0.8,-1.53 -0.63,-1.16 -0.72,-1.17 -0.72,-1.17 -0.81,-1.08 -0.89,-1.07 -0.9,-1 -0.99,-0.98 -0.99,-0.9 -1.08,-0.9 -0.54,-0.36 -0.54,-0.36 -0.63,-0.27 -0.72,-0.18 h -0.62 l -0.63,0.18 -0.45,0.18 -0.36,-0.09 h -0.45 l -0.36,0.09 -0.45,0.09 -0.36,0.18 -0.27,0.18 -0.36,0.27 -0.18,0.36 -0.26,0.36 -0.1,0.36 -0.18,0.72 0.1,0.72 0.08,0.81 0.28,0.72 0.71,2.24 0.9,2.15 1.17,2.16 1.26,1.98 1.25,2.15 1.44,2.07 0.45,0.45 0.54,0.27 0.99,0.9 1.08,0.81 1.07,0.63 1.17,0.44 0.27,0.18 0.45,0.18 0.45,0.09 h 0.36 l 0.36,-0.17 0.99,-0.1 1.08,-0.18 0.08,0.28 0.28,0.17 0.26,0.09 z" /><path
       id="path120"
       style="fill:#db9d6a;fill-opacity:1;fill-rule:evenodd;stroke:none"
       d="m 474.31,750.84 0.36,-0.18 0.36,-0.18 0.26,-0.36 0.18,-0.36 0.18,-0.36 v -0.45 -0.45 l 0.27,-0.54 0.09,-0.62 v -0.64 l -0.09,-0.62 v -0.81 l -0.09,-0.72 -0.26,-0.72 -0.36,-0.72 -0.46,-0.63 -0.53,-0.63 -0.63,-0.44 -0.36,-0.18 -0.45,-0.1 v -0.08 l -0.81,-0.54 -0.9,-0.45 -0.9,-0.45 -0.99,-0.18 -0.36,-0.09 -0.35,0.09 -0.27,0.09 -0.36,0.09 -0.27,0.18 -0.18,0.27 -0.18,0.27 -0.09,0.36 -0.09,0.8 v 0.81 l 0.09,0.81 0.09,0.81 0.18,0.81 0.36,0.72 0.27,0.81 0.45,0.72 0.45,0.62 0.54,0.63 0.54,0.54 0.62,0.54 0.63,0.45 0.72,0.45 0.72,0.36 0.72,0.27 z" /><path
       id="path122"
       style="fill:#db9d6a;fill-opacity:1;fill-rule:evenodd;stroke:none"
       d="m 456.16,748.59 0.27,-0.09 0.36,-0.18 0.27,-0.18 0.18,-0.36 0.27,-0.36 0.09,-0.54 0.18,-0.54 v -0.98 -0.54 l -0.09,-0.45 -0.27,-0.81 -0.36,-0.63 -0.63,-0.81 -0.81,-0.63 -0.36,-0.18 -0.36,-0.08 -0.36,0.08 -0.54,0.1 -0.18,0.18 -0.18,0.18 -0.27,0.35 -0.26,0.45 -0.18,0.45 -0.1,0.45 -0.08,0.45 v 0.45 0.09 h -0.18 l -0.1,0.18 -0.08,0.27 v 0.27 l 0.08,0.18 0.64,0.8 0.53,0.54 0.09,0.1 0.18,0.26 0.27,0.28 0.45,0.44 0.18,0.27 0.45,0.36 0.27,0.09 0.27,0.09 z" /><path
       id="path124"
       style="fill:#db9d6a;fill-opacity:1;fill-rule:evenodd;stroke:none"
       d="m 511.86,745.36 v 0 0 0 l -0.18,-0.09 0.18,0.09 z" /><path
       id="path126"
       style="fill:#db9d6a;fill-opacity:1;fill-rule:evenodd;stroke:none"
       d="m 510.33,752.73 0.54,-0.1 0.45,-0.18 0.45,-0.26 0.27,-0.46 0.18,-0.53 v -0.27 l 0.45,-0.45 0.35,-0.45 0.36,-0.9 0.1,-0.9 v -0.45 l -0.1,-0.44 -0.08,-0.46 -0.18,-0.44 -0.28,-0.36 -0.26,-0.27 -0.36,-0.27 -0.36,-0.18 -0.09,-0.09 -0.27,-0.09 h -0.81 l -0.27,0.18 h -0.09 l -0.81,-1.08 -0.99,-0.99 -0.36,-0.36 -0.44,-0.09 -0.54,-0.09 -0.45,0.18 -0.45,0.27 -0.27,0.36 -0.18,0.54 -0.09,0.45 0.09,1.26 0.18,1.25 v 0.36 l 0.18,1.08 0.36,0.99 0.54,0.72 0.71,0.63 0.46,0.72 0.62,0.63 0.45,0.36 0.45,0.18 z" /><path
       id="path128"
       style="fill:#db9d6a;fill-opacity:1;fill-rule:evenodd;stroke:none"
       d="m 449.06,771.68 0.63,-0.09 0.45,-0.27 0.45,-0.36 0.27,-0.45 0.18,-0.45 0.09,-0.72 v -0.72 -0.71 l -0.18,-0.72 v -0.18 -0.36 -0.45 l -0.36,-0.81 -0.45,-0.63 -0.54,-0.63 -0.09,-0.44 -0.36,-0.82 -0.54,-0.8 -0.63,-0.81 -0.81,-0.63 -0.8,-0.54 -0.9,-0.45 -0.36,-0.09 -0.36,0.09 -0.36,0.09 -0.27,0.27 -0.27,0.27 -0.18,0.27 -0.09,0.36 -0.09,0.36 0.18,1.17 0.27,1.08 0.45,1.07 0.54,0.99 0.36,0.45 0.18,0.36 0.26,0.27 0.18,0.18 v 0.63 0.54 l 0.18,0.62 0.18,0.54 0.28,0.54 0.26,0.54 0.36,0.45 0.45,0.36 0.45,0.36 0.54,0.18 z" /><path
       id="path130"
       style="fill:#e1c7af;fill-opacity:1;fill-rule:evenodd;stroke:none"
       d="m 71.035,841.92 -0.722,-1.23 -0.722,-1.29 -0.648,-1.23 -0.577,-1.37 -0.504,-1.3 -0.433,-1.37 -0.43,-1.44 -0.363,-1.44 -0.288,-1.73 -0.215,-1.73 -0.074,-1.73 v -1.8 l 0.074,-1.73 0.144,-1.66 0.215,-1.73 0.289,-1.73 0.359,-1.73 0.433,-1.73 0.508,-1.65 0.503,-1.73 1.152,-3.39 1.299,-3.39 2.736,-6.85 1.37,-3.46 1.3,-3.39 1.152,-3.46 0.507,-1.8 0.504,-1.73 0.433,-1.73 0.359,-1.8 0.359,-1.73 0.219,-1.8 0.214,-2.53 0.145,-2.52 v -2.52 l -0.145,-2.52 -0.214,-2.53 -0.219,-2.52 -0.648,-5.04 -0.578,-5.05 -0.288,-2.52 -0.215,-2.53 -0.145,-2.52 -0.07,-2.52 v -2.6 l 0.215,-2.52 0.215,-1.95 0.144,-1.01 0.219,-1 0.288,-0.94 0.289,-0.94 0.43,-0.93 0.433,-0.87 0.792,-1.23 0.867,-1.08 1.007,-0.93 1.081,-0.87 1.155,-0.72 1.226,-0.65 1.296,-0.57 1.37,-0.44 1.44,-0.36 1.444,-0.29 1.44,-0.21 1.515,-0.15 1.44,-0.07 h 1.514 l 1.515,0.07 1.444,0.08 1.87,0.21 1.88,0.29 1.87,0.36 1.87,0.36 1.88,0.43 1.8,0.51 1.8,0.58 1.8,0.57 1.81,0.72 1.8,0.72 1.73,0.72 1.73,0.87 1.66,0.87 1.65,0.86 1.66,1.01 1.66,1.01 1.58,1.01 1.52,1.15 1.51,1.08 1.52,1.22 1.44,1.23 1.44,1.3 1.37,1.3 1.37,1.37 1.3,1.37 1.22,1.44 1.23,1.44 1.15,1.51 1.15,1.52 1.08,1.58 1.01,1.59 0.94,1.65 1.73,3.1 1.58,3.18 1.66,3.17 1.66,3.1 0.87,1.51 0.94,1.44 1,1.44 1.08,1.37 1.08,1.3 1.23,1.22 1.23,1.16 1.37,1.08 1.01,0.65 0.93,0.58 1.01,0.57 1.08,0.51 1.01,0.43 1.08,0.43 2.17,0.72 2.23,0.65 2.31,0.51 2.3,0.5 2.31,0.43 4.68,0.87 2.31,0.43 2.31,0.58 2.23,0.65 2.17,0.79 1.08,0.51 1,0.43 1.08,0.57 1.02,0.58 1.44,1.01 1.37,1.08 1.3,1.15 1.22,1.23 1.15,1.37 1.01,1.44 1.01,1.44 0.87,1.51 0.86,1.59 0.72,1.66 0.65,1.66 0.58,1.66 0.5,1.72 0.51,1.73 0.36,1.81 0.29,1.73 0.28,1.73 0.15,1.8 0.14,1.73 0.14,1.8 0.08,3.53 v 3.54 l -0.08,3.6 -0.14,3.53 -0.14,3.53 -0.07,3.61 v 1.37 1.51 z" /><path
       id="path132"
       style="fill:#9c5e43;fill-opacity:1;fill-rule:evenodd;stroke:none"
       d="m 0.71063,841.92 v -96.29 l 1.78787,-0.98 1.465,-0.7 1.465,-0.65 1.462,-0.6 1.465,-0.54 1.5178,-0.49 1.5737,-0.43 1.518,-0.44 1.57,-0.38 3.145,-0.65 3.144,-0.65 6.344,-1.19 3.958,-0.87 4.013,-0.92 7.968,-1.9 8.026,-1.95 4.011,-0.92 4.013,-0.81 3.958,-0.76 4.013,-0.65 2.005,-0.27 2.005,-0.22 2.005,-0.17 2.008,-0.16 2.006,-0.11 2.005,-0.05 h 2.008 l 2.005,0.05 2.005,0.11 2.005,0.16 2.009,0.22 2.005,0.33 2.061,0.38 2.061,0.54 1.027,0.27 1.031,0.33 0.977,0.37 0.975,0.44 0.919,0.43 0.92,0.49 0.87,0.54 0.81,0.6 0.82,0.65 0.76,0.71 0.7,0.7 0.65,0.81 0.54,0.71 0.44,0.76 0.38,0.7 0.38,0.76 0.32,0.76 0.27,0.81 0.22,0.76 0.22,0.81 0.16,0.82 0.16,0.81 0.17,1.68 0.11,1.74 0.05,1.73 -0.05,1.79 -0.06,1.79 -0.11,3.58 -0.05,1.79 v 1.79 l 0.05,1.78 0.17,1.74 0.16,1.14 0.16,1.14 0.22,1.19 0.27,1.09 0.32,1.13 0.33,1.14 0.76,2.22 0.86,2.23 0.87,2.17 1.9,4.39 0.87,2.17 0.86,2.22 0.82,2.17 0.7,2.22 0.28,1.14 0.27,1.08 0.21,1.14 0.22,1.14 0.11,1.14 0.11,1.14 0.05,1.19 v 1.14 l -0.05,1.03 -0.11,0.98 -0.17,0.97 -0.16,0.98 -0.21,0.97 -0.22,0.98 -0.54,1.9 -0.65,1.89 -0.76,1.9 -0.76,1.85 -0.81,1.89 -1.74,3.69 -0.81,1.9 -0.82,1.84 -0.7,1.9 -0.71,1.95 -0.54,1.9 -0.49,2.01 -0.27,1.57 -0.16,1.62 -0.11,1.52 v 1.57 l 0.11,1.52 0.22,1.47 0.21,1.52 0.33,1.46 z" /><g
       id="g134"><g
         clip-path="url(#clipPath140)"
         id="g136"><path
           id="path142"
           style="fill:#333333;fill-opacity:1;fill-rule:evenodd;stroke:none"
           d="m 87.938,841.88 -1.061,-0.97 -1.06,-0.96 -0.967,-1.06 -0.967,-1.16 -0.768,-1.16 -0.867,-1.26 -0.679,-1.25 -0.675,-1.35 -0.867,-2.03 -0.674,-2.02 -0.679,-2.03 -0.481,-2.12 -0.481,-2.12 -0.486,-2.13 -0.674,-4.24 -0.773,-4.25 -0.768,-4.34 -0.486,-2.03 -0.481,-2.12 -0.58,-2.12 -0.674,-2.03 -0.867,-2.03 -0.873,-1.93 -1.061,-1.93 -1.154,-1.73 -1.255,-1.74 -1.447,-1.55 -1.547,-1.44 -1.734,-1.35 -1.066,-0.77 -1.061,-0.58 -2.121,-1.16 -2.221,-0.97 -2.315,-0.77 -2.414,-0.58 -2.409,-0.48 -2.414,-0.39 -2.508,-0.19 -2.702,-0.19 H 38.92 l -2.701,0.1 -2.702,0.09 -5.502,0.39 -5.403,0.38 -2.895,0.1 -2.801,0.1 h -2.894 l -2.796,-0.2 -2.8946,-0.38 -2.8008,-0.58 -1.3533,-0.39 -1.3481,-0.39 -1.3534,-0.48 -1.25404,-0.58 -1.44736,-0.67 -1.3482,-0.77 v 3.38 l 1.83411,0.86 1.83409,0.78 1.9281,0.67 1.9281,0.48 2.0274,0.39 1.9281,0.38 2.0279,0.2 2.027,0.19 2.989,0.1 h 2.9 l 2.989,-0.2 2.988,-0.09 5.889,-0.48 2.895,-0.2 2.989,-0.19 h 5.021 l 2.509,0.09 2.508,0.2 2.508,0.38 2.508,0.49 2.414,0.77 2.315,0.87 2.126,0.96 1.929,1.16 1.834,1.35 1.64,1.45 1.542,1.64 1.353,1.83 1.155,1.93 1.066,2.03 0.867,2.03 0.768,2.12 0.68,2.03 0.48,2.22 0.58,2.12 0.387,2.12 0.768,4.34 0.774,4.44 0.867,4.34 0.486,2.13 0.58,2.12 0.674,2.12 0.773,2.03 0.674,1.45 0.674,1.35 0.774,1.35 0.773,1.35 0.867,1.25 0.962,1.26 0.967,1.16 1.06,1.06 z" /></g></g><g
       id="g144"><g
         clip-path="url(#clipPath150)"
         id="g146"><path
           id="path152"
           style="fill:#333333;fill-opacity:1;fill-rule:evenodd;stroke:none"
           d="m 106.08,841.88 -1.73,-1.16 -1.55,-1.26 -1.64,-1.25 -1.543,-1.35 -1.448,-1.45 -1.447,-1.44 -1.353,-1.55 -1.348,-1.54 -1.641,-2.13 -1.448,-2.21 -1.447,-2.22 -1.254,-2.32 -1.16,-2.41 -1.061,-2.42 -0.966,-2.51 -0.774,-2.5 -0.386,-1.64 -0.382,-1.65 -0.58,-3.18 -0.387,-3.28 -0.193,-3.28 -0.094,-3.38 -0.099,-3.28 -0.194,-6.56 -0.193,-3.18 -0.387,-3.09 -0.386,-3.09 -0.575,-2.99 -0.773,-2.99 -0.967,-3 -0.58,-1.44 -0.674,-1.35 -0.674,-1.45 -0.674,-1.45 -1.448,-2.32 -1.546,-2.31 -1.735,-2.12 -1.834,-2.12 -1.928,-1.94 -2.028,-1.83 -2.22,-1.74 -2.221,-1.54 -1.348,-0.87 -1.254,-0.67 -2.707,-1.36 -2.796,-1.15 -2.8,-0.97 -2.895,-0.87 -2.989,-0.58 -2.895,-0.58 -2.994,-0.48 -6.557,-0.67 -3.188,-0.39 -3.281,-0.48 -3.282,-0.58 -3.088,-0.77 -1.641,-0.39 -1.541,-0.48 -1.542,-0.58 -1.447,-0.67 -2.414,-1.16 L 8.2322,731 6.1108,729.46 4.1774,727.91 2.2493,726.18 0.51453,724.25 -1.0322,722.32 -2.5736,720.2 v 5.69 l 1.73479,1.83 1.74001,1.74 1.9281,1.64 2.0274,1.54 1.2541,0.87 1.3481,0.87 1.3533,0.68 1.3478,0.77 1.354,0.58 1.447,0.58 2.895,0.96 2.994,0.87 2.989,0.67 3.088,0.48 2.989,0.49 6.563,0.67 3.281,0.39 3.282,0.48 3.182,0.58 3.187,0.68 1.641,0.48 1.541,0.48 1.547,0.58 1.542,0.58 2.508,1.26 2.414,1.34 2.314,1.45 2.221,1.74 2.122,1.84 2.027,1.92 1.834,2.13 1.641,2.12 0.967,1.35 0.768,1.25 0.773,1.36 0.773,1.35 1.254,2.7 1.061,2.8 0.868,2.89 0.773,2.99 0.481,3 0.292,3.08 0.288,3.48 0.099,3.47 0.287,6.95 0.194,3.47 0.193,3.48 0.481,3.47 0.58,3.38 0.674,2.61 0.773,2.6 0.967,2.51 1.06,2.5 1.155,2.42 1.354,2.31 1.353,2.32 1.541,2.22 1.354,1.74 1.447,1.73 1.448,1.64 1.541,1.64 1.641,1.65 1.734,1.44 1.743,1.55 1.73,1.35 z" /></g></g><g
       id="g154"><g
         clip-path="url(#clipPath160)"
         id="g156"><path
           id="path162"
           style="fill:#db9d6a;fill-opacity:1;fill-rule:evenodd;stroke:none"
           d="M 595.24,-2.3044 V 57.216 l -1.11,0.603 -0.9,0.435 -0.91,0.403 -0.9,0.368 -0.91,0.336 -0.94,0.301 -0.97,0.269 -0.94,0.269 -0.97,0.234 -1.94,0.401 -1.94,0.403 -3.93,0.736 -2.44,0.538 -2.48,0.569 -4.93,1.173 -4.96,1.207 -2.48,0.569 -2.48,0.503 -2.45,0.468 -2.48,0.403 -1.24,0.167 -1.24,0.134 -1.24,0.102 -1.24,0.1 -1.24,0.067 -1.24,0.033 h -1.24 l -1.24,-0.033 -1.24,-0.067 -1.24,-0.1 -1.24,-0.134 -1.24,-0.202 -1.27,-0.234 -1.27,-0.335 -0.64,-0.167 -0.64,-0.202 -0.6,-0.234 -0.6,-0.269 -0.57,-0.268 -0.57,-0.301 -0.54,-0.336 -0.5,-0.369 -0.51,-0.402 -0.46,-0.436 -0.44,-0.436 -0.4,-0.502 -0.34,-0.436 -0.26,-0.468 -0.24,-0.435 -0.23,-0.471 -0.2,-0.468 -0.17,-0.502 -0.14,-0.47 -0.13,-0.503 -0.1,-0.503 -0.1,-0.503 -0.1,-1.039 -0.07,-1.073 -0.03,-1.071 0.03,-1.107 0.03,-1.105 0.07,-2.212 0.03,-1.107 v -1.105 l -0.03,-1.105 -0.1,-1.073 -0.1,-0.704 -0.1,-0.704 -0.13,-0.737 -0.17,-0.671 -0.2,-0.703 -0.2,-0.704 -0.47,-1.374 -0.54,-1.375 -0.54,-1.34 -1.17,-2.714 -0.54,-1.341 -0.53,-1.374 -0.5,-1.341 -0.44,-1.374 -0.17,-0.704 -0.17,-0.67 -0.13,-0.704 -0.13,-0.704 -0.07,-0.704 -0.07,-0.703 -0.03,-0.738 v -0.703 l 0.03,-0.637 0.07,-0.604 0.1,-0.602 0.1,-0.605 0.13,-0.602 0.14,-0.603 0.33,-1.174 0.41,-1.172 0.47,-1.173 0.46,-1.139 0.51,-1.174 1.07,-2.28 0.5,-1.172 0.5,-1.14 0.44,-1.172 0.44,-1.2068 0.33,-1.1724 0.3,-1.2412 0.17,-0.9709 0.1,-1.0054 0.07,-0.9382 V 1.3813 l -0.07,-0.93818 -0.13,-0.90558 -0.14,-0.93824 -0.2,-0.9037 z" /></g></g><g
       id="g164"><g
         clip-path="url(#clipPath170)"
         id="g166"><text
   id="text174"
   style="font-variant:normal;font-weight:normal;font-size:1.20000005px;font-family:Calibri;-inkscape-font-specification:Calibri;writing-mode:lr-tb;fill:#000000;fill-opacity:0;fill-rule:nonzero;stroke:none"
   transform="matrix(1,0,0,-1,349.99,33.36)"><tspan
     id="tspan172"
     y="0"
     x="0 0.5988 0.83880001 1.0788 1.6788 2.2764001 2.7576001 3.3564">Slidesgo</tspan></text>
</g></g></g></svg>
