<?xml version="1.0" encoding="UTF-8" standalone="no"?>
<!-- Created with Inkscape (http://www.inkscape.org/) -->

<svg
   version="1.1"
   id="svg1"
   width="512"
   height="512"
   viewBox="0 0 512 512"
   sodipodi:docname="github.svg"
   inkscape:version="1.3.2 (091e20e, 2023-11-25, custom)"
   xmlns:inkscape="http://www.inkscape.org/namespaces/inkscape"
   xmlns:sodipodi="http://sodipodi.sourceforge.net/DTD/sodipodi-0.dtd"
   xmlns="http://www.w3.org/2000/svg"
   xmlns:svg="http://www.w3.org/2000/svg">
  <defs
     id="defs1" />
  <sodipodi:namedview
     id="namedview1"
     pagecolor="#ffffff"
     bordercolor="#000000"
     borderopacity="0.25"
     inkscape:showpageshadow="2"
     inkscape:pageopacity="0.0"
     inkscape:pagecheckerboard="0"
     inkscape:deskcolor="#d1d1d1"
     inkscape:zoom="1.7402344"
     inkscape:cx="255.71268"
     inkscape:cy="256.57463"
     inkscape:window-width="1920"
     inkscape:window-height="1129"
     inkscape:window-x="-8"
     inkscape:window-y="-8"
     inkscape:window-maximized="1"
     inkscape:current-layer="g1" />
  <g
     inkscape:groupmode="layer"
     inkscape:label="Image"
     id="g1">
    <path
       style="opacity:0.99;fill:#9c5e43;fill-rule:evenodd;stroke-width:1.00157;stroke-linecap:round;stroke-linejoin:round"
       d="m 69.243546,511.13804 c 0,-0.34276 -2.202767,-0.57464 -5.459035,-0.57464 -3.256268,0 -5.459035,-0.23187 -5.459035,-0.57463 0,-0.31605 -1.019081,-0.57464 -2.264628,-0.57464 -1.245545,0 -2.40947,-0.23436 -2.5865,-0.5208 -0.17703,-0.28644 -1.614513,-0.69858 -3.194407,-0.91587 -1.579894,-0.21729 -2.872534,-0.6294 -2.872534,-0.91579 0,-0.28639 -0.646465,-0.52071 -1.436588,-0.52071 -0.790124,0 -1.436588,-0.25859 -1.436588,-0.57464 0,-0.31605 -0.379106,-0.57463 -0.842458,-0.57463 -1.038969,0 -5.120334,-1.85175 -5.382757,-2.4422 -0.10535,-0.23704 -0.557876,-0.43098 -1.005612,-0.43098 -0.447737,0 -0.814067,-0.25858 -0.814067,-0.57463 0,-0.31605 -0.498701,-0.57464 -1.108225,-0.57464 -0.609524,0 -1.496104,-0.38788 -1.970178,-0.86195 -0.474074,-0.47408 -1.139009,-0.86195 -1.477633,-0.86195 -0.338624,0 -0.615681,-0.20284 -0.615681,-0.45074 0,-0.24791 -0.806613,-0.92722 -1.792473,-1.50958 -3.988933,-2.35633 -12.85385,-11.22124 -15.21017,-15.21018 -0.582363,-0.98585 -1.261673,-1.79247 -1.50958,-1.79247 -0.247906,0 -0.450739,-0.35621 -0.450739,-0.79159 0,-0.43537 -0.387879,-1.1135 -0.861953,-1.50695 -0.474074,-0.39345 -0.861953,-1.20087 -0.861953,-1.79426 0,-0.59341 -0.258586,-1.07891 -0.574635,-1.07891 -0.3160498,0 -0.5746357,-0.36633 -0.5746357,-0.81407 0,-0.44774 -0.1939393,-0.90026 -0.4309764,-1.00561 -0.5904526,-0.26242 -2.4421997,-4.34379 -2.4421997,-5.38276 0,-0.46335 -0.2585859,-0.84246 -0.5746353,-0.84246 -0.3160493,0 -0.5746352,-0.64646 -0.5746352,-1.43659 0,-0.79012 -0.2343207,-1.43658 -0.5207126,-1.43658 -0.286392,0 -0.6984962,-1.29265 -0.9157872,-2.87254 -0.217291,-1.57989 -0.6294349,-3.01738 -0.9158754,-3.19441 -0.2864405,-0.17702 -0.520801,-1.34095 -0.520801,-2.5865 0,-1.24554 -0.2585858,-2.26462 -0.5746352,-2.26462 -0.3425128,0 -0.5746352,-2.19147 -0.5746352,-5.42512 0,-2.9969 -0.2572007,-5.58408 -0.57463525,-5.78027 -0.79674744,-0.49242 -0.79674744,-372.44585 0,-372.938267 0.31743455,-0.196186 0.57463525,-2.783372 0.57463525,-5.780267 0,-3.233656 0.2321224,-5.42512 0.5746352,-5.42512 0.3160494,0 0.5746352,-1.019081 0.5746352,-2.264628 0,-1.245545 0.2343605,-2.40947 0.520801,-2.5865 0.2864405,-0.17703 0.6985844,-1.614513 0.9158754,-3.194407 0.217291,-1.579894 0.6293952,-2.872534 0.9157872,-2.872534 0.2863919,0 0.5207126,-0.646465 0.5207126,-1.436588 0,-0.790124 0.2585859,-1.436588 0.5746352,-1.436588 0.3160494,0 0.5746353,-0.379106 0.5746353,-0.842458 0,-0.850232 1.7409821,-4.946475 2.3284811,-5.47853 0.174492,-0.158025 0.7634593,-1.192368 1.3088157,-2.298541 1.220085,-2.474757 2.173316,-4.017995 3.11843,-5.048599 0.397131,-0.433053 0.99475,-1.296901 1.328041,-1.919661 1.522844,-2.845461 11.408908,-12.731525 14.254369,-14.254369 0.62276,-0.333291 1.475687,-0.934263 1.895393,-1.335491 1.351588,-1.292085 3.85808,-2.72583 4.765332,-2.72583 0.485194,0 0.88217,-0.258586 0.88217,-0.574635 0,-0.3160498 0.36633,-0.5746357 0.814067,-0.5746357 0.447736,0 0.900262,-0.1939393 1.005612,-0.4309764 0.262423,-0.5904526 4.343788,-2.4421997 5.382757,-2.4421997 0.463352,0 0.842458,-0.2585859 0.842458,-0.5746353 0,-0.3160493 0.646464,-0.5746352 1.436588,-0.5746352 0.790123,0 1.436588,-0.2343207 1.436588,-0.5207127 0,-0.2863919 1.29264,-0.6984961 2.872534,-0.9157871 1.579894,-0.217291 3.017377,-0.6294349 3.194407,-0.9158754 0.17703,-0.2864405 1.340955,-0.520801 2.5865,-0.520801 1.245547,0 2.264628,-0.2585858 2.264628,-0.5746352 0,-0.3427648 2.202767,-0.5746352 5.459035,-0.5746352 3.256268,0 5.459035,-0.2318704 5.459035,-0.57463525 0,-0.38191143 62.635244,-0.57463523 186.756454,-0.57463523 124.12121,0 186.75645,0.1927238 186.75645,0.57463523 0,0.34276485 2.20276,0.57463525 5.45903,0.57463525 3.25627,0 5.45904,0.2318704 5.45904,0.5746352 0,0.3160494 1.01908,0.5746352 2.26462,0.5746352 1.24555,0 2.40948,0.2343605 2.5865,0.520801 0.17703,0.2864405 1.61452,0.6985844 3.19441,0.9158754 1.57989,0.217291 2.87254,0.6293952 2.87254,0.9157871 0,0.286392 0.64646,0.5207127 1.43658,0.5207127 0.79013,0 1.43659,0.2585859 1.43659,0.5746352 0,0.3160494 0.37911,0.5746353 0.84246,0.5746353 0.85023,0 4.94647,1.7409821 5.47853,2.3284811 0.15802,0.174492 1.19237,0.7634593 2.29854,1.3088157 2.47476,1.220085 4.01799,2.173316 5.0486,3.11843 0.43305,0.397131 1.2969,0.99475 1.91966,1.328041 3.09957,1.658841 12.447,11.135064 14.63147,14.833074 0.58236,0.98586 1.26167,1.792473 1.50958,1.792473 0.2479,0 0.45074,0.387879 0.45074,0.861953 0,0.474074 0.20882,0.861953 0.46404,0.861953 0.25523,0 0.94333,1.09899 1.52911,2.4422 0.58579,1.343209 1.21737,2.571492 1.40352,2.729517 0.59117,0.501857 2.34968,4.601999 2.34968,5.47853 0,0.463352 0.25858,0.842458 0.57463,0.842458 0.31605,0 0.57464,0.646464 0.57464,1.436588 0,0.790123 0.23432,1.436588 0.52071,1.436588 0.28639,0 0.6985,1.29264 0.91579,2.872534 0.21729,1.579894 0.62943,3.017377 0.91587,3.194407 0.28644,0.17703 0.5208,1.340955 0.5208,2.5865 0,1.245547 0.25859,2.264628 0.57464,2.264628 0.34251,0 0.57463,2.191464 0.57463,5.42512 0,2.996895 0.25721,5.584081 0.57464,5.780267 0.79675,0.492417 0.79675,372.445847 0,372.938267 -0.31743,0.19619 -0.57464,2.78337 -0.57464,5.78027 0,3.23365 -0.23212,5.42512 -0.57463,5.42512 -0.31605,0 -0.57464,1.01908 -0.57464,2.26462 0,1.24555 -0.23436,2.40948 -0.5208,2.5865 -0.28644,0.17703 -0.69858,1.61452 -0.91587,3.19441 -0.21729,1.57989 -0.6294,2.87254 -0.91579,2.87254 -0.28639,0 -0.52071,0.64646 -0.52071,1.43658 0,0.79013 -0.25859,1.43659 -0.57464,1.43659 -0.31605,0 -0.57463,0.37911 -0.57463,0.84246 0,0.87653 -1.75851,4.97667 -2.34968,5.47853 -0.18615,0.15802 -0.81773,1.38631 -1.40352,2.72952 -0.58578,1.34321 -1.27388,2.4422 -1.52911,2.4422 -0.25522,0 -0.46404,0.38788 -0.46404,0.86195 0,0.47407 -0.20284,0.86195 -0.45074,0.86195 -0.24791,0 -0.92722,0.80662 -1.50958,1.79247 -2.35633,3.98894 -11.22124,12.85385 -15.21018,15.21018 -0.98585,0.58236 -1.79247,1.26167 -1.79247,1.50958 0,0.2479 -0.38788,0.45074 -0.86195,0.45074 -0.47407,0 -0.86195,0.20882 -0.86195,0.46404 0,0.25523 -1.09899,0.94333 -2.4422,1.52911 -1.34321,0.58579 -2.5715,1.21737 -2.72952,1.40352 -0.50186,0.59117 -4.602,2.34968 -5.47853,2.34968 -0.46335,0 -0.84246,0.25858 -0.84246,0.57463 0,0.31605 -0.64646,0.57464 -1.43659,0.57464 -0.79012,0 -1.43658,0.23432 -1.43658,0.52071 0,0.28639 -1.29265,0.6985 -2.87254,0.91579 -1.57989,0.21729 -3.01738,0.62943 -3.19441,0.91587 -0.17702,0.28644 -1.34095,0.5208 -2.5865,0.5208 -1.24554,0 -2.26462,0.25859 -2.26462,0.57464 0,0.34276 -2.20277,0.57463 -5.45904,0.57463 -3.25627,0 -5.45903,0.23188 -5.45903,0.57464 0,0.38191 -62.63524,0.57464 -186.75645,0.57464 -124.12121,0 -186.756454,-0.19273 -186.756454,-0.57464 z M 210.3165,410.00224 c 0.19533,-0.31605 0.87694,-0.57464 1.5147,-0.57464 1.51562,0 4.51897,-3.02589 4.51897,-4.55288 0,-0.6564 0.26295,-1.19347 0.58433,-1.19347 0.38487,0 0.53199,-5.05106 0.43098,-14.79686 l -0.15336,-14.79685 -4.30977,0.19795 c -2.37037,0.10887 -4.55542,0.4321 -4.85566,0.71829 -0.75399,0.71869 -15.09712,0.66859 -15.54389,-0.0543 -0.19533,-0.31605 -1.23589,-0.57464 -2.31237,-0.57464 -2.99115,0 -9.33391,-2.21862 -11.08894,-3.87878 -0.41764,-0.39507 -1.12875,-0.7183 -1.58025,-0.7183 -0.4515,10e-6 -0.82091,-0.21488 -0.82091,-0.47752 0,-0.26264 -0.70664,-0.84446 -1.5703,-1.29293 -1.9855,-1.03099 -8.77313,-7.91001 -8.77313,-8.89125 0,-0.40437 -0.19394,-0.82141 -0.43098,-0.92677 -0.62449,-0.27755 -2.4422,-3.87634 -2.4422,-4.83519 0,-0.44846 -0.25858,-0.81538 -0.57463,-0.81538 -0.31605,0 -0.57464,-0.25681 -0.57464,-0.5707 0,-0.98127 -1.9726,-5.17566 -2.43409,-5.17566 -0.2415,0 -0.43908,-0.51717 -0.43908,-1.14927 0,-0.6321 -0.23056,-1.14927 -0.51234,-1.14927 -0.28179,0 -0.67459,-0.64646 -0.8729,-1.43659 -0.19831,-0.79012 -0.61422,-1.43658 -0.92425,-1.43658 -0.31003,0 -0.56369,-0.31414 -0.56369,-0.69809 0,-0.38395 -0.49579,-1.22435 -1.10177,-1.86756 -5.17581,-5.49388 -8.19456,-8.35242 -8.82053,-8.35242 -0.40813,0 -1.11481,-0.51718 -1.5704,-1.14927 -0.4556,-0.6321 -1.15023,-1.14927 -1.54363,-1.14927 -1.01939,0 -4.20273,-3.24145 -4.20273,-4.27945 0,-0.47871 0.66095,-1.03626 1.46877,-1.23901 2.23434,-0.56079 11.10751,0.0512 11.87534,0.81902 0.37235,0.37235 1.1209,0.67699 1.66345,0.67699 0.54255,0 1.07265,0.19394 1.178,0.43098 0.19662,0.44237 4.84868,3.59147 5.30558,3.59147 0.58582,0 5.51672,5.32011 5.51672,5.95218 0,0.37935 0.51717,1.06248 1.14927,1.51807 0.6321,0.4556 1.14927,1.04089 1.14927,1.30067 0,0.45085 3.80224,5.80278 5.68348,7.99991 0.49111,0.57358 1.22333,1.04286 1.62717,1.04286 0.40383,0 0.73424,0.24683 0.73424,0.54852 0,0.83567 2.8201,3.47392 3.71337,3.47392 0.43337,0 0.87414,0.20345 0.97949,0.4521 0.45138,1.06539 6.77422,3.57035 9.012,3.57035 1.31171,0 2.38493,0.25859 2.38493,0.57464 0,0.34478 2.29854,0.57463 5.74635,0.57463 3.1605,0 5.74636,-0.22119 5.74636,-0.49154 0,-0.27034 1.72711,-0.65282 3.83804,-0.84994 2.11092,-0.19712 4.10204,-0.62239 4.42469,-0.94505 0.32265,-0.32265 1.0521,-0.58664 1.62099,-0.58664 0.56889,0 1.03434,-0.25859 1.03434,-0.57464 0,-0.31605 0.51718,-0.57463 1.14928,-0.57463 0.93036,0 1.14927,-0.3831 1.14927,-2.01123 0,-1.10617 0.25858,-2.01122 0.57463,-2.01122 0.31605,0 0.57572,-0.84041 0.57704,-1.86757 0.003,-2.82178 5.55103,-12.96813 7.87,-14.39443 0.41092,-0.25274 0.74712,-0.9345 0.74712,-1.51503 0,-1.23663 -1.21653,-1.55915 -9.33782,-2.47558 -3.08148,-0.34772 -5.60269,-0.84626 -5.60269,-1.10788 0,-0.2616 -0.88979,-0.47565 -1.97731,-0.47565 -1.08752,0 -2.11947,-0.23002 -2.29321,-0.51114 -0.17376,-0.28113 -1.15871,-0.65459 -2.1888,-0.8299 -3.3623,-0.57223 -7.33193,-1.7836 -7.33193,-2.23742 0,-0.24419 -0.6312,-0.44399 -1.40267,-0.44399 -0.77147,0 -1.55019,-0.23869 -1.7305,-0.53042 -0.1803,-0.29174 -1.10061,-0.70016 -2.04514,-0.90761 -0.94452,-0.20745 -1.71731,-0.61523 -1.71731,-0.90617 0,-0.29093 -0.41261,-0.52897 -0.9169,-0.52897 -0.5043,0 -1.60329,-0.48325 -2.4422,-1.07388 -0.83891,-0.59064 -2.17176,-1.27409 -2.96189,-1.51879 -0.79012,-0.2447 -1.85479,-0.92509 -2.36594,-1.51198 -0.51115,-0.58689 -1.11143,-1.06707 -1.33397,-1.06707 -0.22255,0 -0.75785,-0.32323 -1.18957,-0.71829 -0.43171,-0.39507 -1.75284,-1.49406 -2.93581,-2.4422 -3.68954,-2.95713 -7.42718,-7.02474 -9.17735,-9.98756 -0.58236,-0.98585 -1.26167,-1.79247 -1.50958,-1.79247 -0.24791,0 -0.45074,-0.38788 -0.45074,-0.86195 0,-0.47407 -0.21962,-0.86195 -0.48804,-0.86195 -0.26842,0 -0.9679,-1.16364 -1.5544,-2.58586 -0.5865,-1.42222 -1.27193,-2.58586 -1.52318,-2.58586 -0.25126,0 -0.45683,-0.46775 -0.45683,-1.03944 0,-0.57169 -0.37965,-1.54139 -0.84368,-2.15488 -0.46401,-0.61349 -0.85189,-1.69726 -0.86195,-2.40837 -0.01,-0.71111 -0.27686,-1.29293 -0.59291,-1.29293 -0.31605,0 -0.57463,-0.6312 -0.57463,-1.40268 0,-0.77147 -0.23314,-1.54676 -0.51809,-1.72287 -0.28496,-0.17611 -0.69828,-1.87265 -0.9185,-3.77007 -0.22022,-1.89743 -0.63354,-3.59397 -0.9185,-3.77008 -0.28495,-0.17611 -0.51809,-1.58261 -0.51809,-3.12555 0,-1.54294 -0.25858,-2.96516 -0.57463,-3.16049 -0.31702,-0.19593 -0.57464,-2.77207 -0.57464,-5.74635 0,-2.97429 -0.25761,-5.55043 -0.57463,-5.74636 -0.31605,-0.19533 -0.57464,-1.8914 -0.57464,-3.76904 0,-1.89284 0.25603,-3.4139 0.57464,-3.4139 0.3316,0 0.57463,-1.80837 0.57463,-4.27585 0,-2.35171 0.25859,-4.43566 0.57464,-4.63099 0.31605,-0.19533 0.57463,-1.37423 0.57463,-2.61978 0,-1.24554 0.23432,-2.26462 0.52071,-2.26462 0.28639,0 0.69854,-1.29293 0.91588,-2.87318 0.21734,-1.58025 0.62948,-2.87317 0.91588,-2.87317 0.28639,0 0.52071,-0.51718 0.52071,-1.14927 0,-0.6321 0.20166,-1.14928 0.44813,-1.14928 0.24647,0 0.94987,-1.29292 1.56309,-2.87317 0.61322,-1.58025 1.31662,-2.87318 1.56309,-2.87318 0.24647,0 0.44813,-0.48951 0.44813,-1.08779 0,-0.59829 0.38788,-1.23663 0.86196,-1.41855 0.47407,-0.18192 0.86195,-0.70575 0.86195,-1.16407 0,-0.45831 0.90505,-1.68696 2.01122,-2.73033 1.10618,-1.04338 2.01123,-2.17094 2.01123,-2.5057 0,-0.33475 0.51717,-0.9814 1.14927,-1.43699 1.17637,-0.84788 1.60969,-3.44781 0.57463,-3.44781 -0.31605,0 -0.57463,-0.59475 -0.57463,-1.32166 0,-0.72692 -0.32324,-1.64534 -0.7183,-2.04094 -0.53225,-0.53299 -0.71829,-4.08507 -0.71829,-13.71473 0,-9.88564 0.17189,-13.05274 0.71829,-13.23479 0.39506,-0.13163 0.72219,-0.6703 0.72695,-1.19705 0.005,-0.52675 0.40191,-1.99207 0.88257,-3.25626 0.48066,-1.2642 1.03367,-2.78771 1.22893,-3.38558 0.32764,-1.00321 0.80204,-1.0598 6.15151,-0.7339 3.18807,0.19423 5.88503,0.61875 5.99324,0.94337 0.10821,0.32464 1.08025,0.59025 2.16009,0.59025 1.07983,0 1.96333,0.25858 1.96333,0.57463 0,0.31605 0.35832,0.57464 0.79627,0.57464 0.43795,0 1.53694,0.38628 2.4422,0.85841 0.90526,0.47213 2.07691,0.86 2.60366,0.86195 0.52675,0.002 1.04392,0.19748 1.14927,0.43452 0.25535,0.57454 6.33637,3.59147 7.23907,3.59147 0.39053,0 0.71005,0.25859 0.71005,0.57463 0,0.31605 0.38788,0.57464 0.86195,0.57464 0.47408,0 0.86196,0.25859 0.86196,0.57464 0,0.31604 0.51717,0.57463 1.14927,0.57463 0.6321,0 1.14927,0.25366 1.14927,0.56369 0,0.31003 0.64646,0.72594 1.43658,0.92425 0.79013,0.1983 1.43659,0.59111 1.43659,0.8729 0,0.28178 0.38788,0.51234 0.86196,0.51234 0.47407,0 0.86195,0.22721 0.86195,0.50492 0,0.98174 3.40548,1.92521 5.5898,1.54863 1.19227,-0.20556 3.13747,-0.52028 4.32266,-0.69937 1.18518,-0.17909 2.15488,-0.55705 2.15488,-0.83991 0,-0.28285 1.14209,-0.51427 2.53797,-0.51427 1.39588,0 2.62417,-0.24395 2.72952,-0.54211 0.10535,-0.29817 3.55316,-0.72019 7.6618,-0.93786 4.10864,-0.21765 7.76947,-0.63188 8.13516,-0.92051 1.40059,-1.10546 34.26591,0.54377 36.53493,1.83337 0.5488,0.31191 2.03567,0.56711 3.30416,0.56711 1.26848,0 2.30633,0.23142 2.30633,0.51427 0,0.28286 0.9697,0.66082 2.15489,0.83991 1.18518,0.17909 3.13038,0.49381 4.32266,0.69937 2.18432,0.37658 5.58979,-0.56689 5.58979,-1.54863 0,-0.27771 0.38788,-0.50492 0.86196,-0.50492 0.47407,0 0.86195,-0.24117 0.86195,-0.53591 0,-0.29476 0.58182,-0.71749 1.29293,-0.93941 0.71111,-0.22192 1.42222,-0.56258 1.58025,-0.75701 0.42419,-0.52195 3.37685,-2.22584 6.32098,-3.64766 1.42223,-0.68683 2.67206,-1.45492 2.77741,-1.70685 0.10535,-0.25193 0.6719,-0.45806 1.25902,-0.45806 0.5871,0 1.20916,-0.22927 1.38235,-0.50949 0.17318,-0.28022 1.22279,-0.67982 2.33245,-0.88799 1.10967,-0.20817 2.01757,-0.62537 2.01757,-0.92709 0,-0.30173 0.64647,-0.5486 1.43659,-0.5486 0.79012,0 1.43659,-0.25859 1.43659,-0.57464 0,-0.31605 0.75421,-0.57463 1.67602,-0.57463 0.92181,0 1.76464,-0.26588 1.87297,-0.59084 0.11446,-0.3434 2.72153,-0.64422 6.22521,-0.7183 l 6.02827,-0.12745 0.19232,1.43659 c 0.10577,0.79012 0.429,1.68224 0.71829,1.98249 0.28928,0.30025 0.52598,1.14065 0.52598,1.86756 0,0.72692 0.25858,1.32166 0.57463,1.32166 0.31605,0 0.57464,0.88351 0.57464,1.96334 0,1.07983 0.31699,2.069 0.70442,2.19815 1.02465,0.34155 1.03809,22.36127 0.0138,22.7027 -0.39506,0.13169 -0.71829,1.12295 -0.71829,2.20278 0,1.07983 -0.25859,1.96334 -0.57464,1.96334 -1.14028,0 -0.60879,4.03814 0.7183,5.45749 2.06624,2.20986 2.72951,3.08115 2.72951,3.58556 0,0.25962 0.51718,0.84479 1.14928,1.30038 0.63209,0.45559 1.14927,1.14067 1.14927,1.5224 0,0.38173 0.33258,1.03576 0.73906,1.45339 0.83205,0.85486 3.85802,7.09658 3.85802,7.95799 0,0.30741 0.25858,0.55893 0.57463,0.55893 0.31605,0 0.57464,0.64646 0.57464,1.43658 0,0.79013 0.21535,1.43659 0.47855,1.43659 0.53372,0 1.75067,5.14702 2.2078,9.33782 0.16376,1.50124 0.53138,2.72952 0.81692,2.72952 0.68404,0 0.67724,19.7184 -0.007,20.42828 -0.28942,0.30025 -0.65403,2.09742 -0.81025,3.99372 -0.3927,4.76682 -1.45477,10.71902 -2.12621,11.91588 -0.30787,0.5488 -0.55976,1.46678 -0.55976,2.03996 0,0.57317 -0.2129,1.28779 -0.47309,1.58804 -0.2602,0.30025 -0.96021,2.03277 -1.55559,3.85006 -0.59537,1.81728 -1.28753,3.30415 -1.53814,3.30415 -0.2506,0 -0.45563,0.51717 -0.45563,1.14927 0,0.6321 -0.23804,1.14927 -0.52898,1.14927 -0.29093,0 -0.71356,0.84039 -0.93916,1.86754 -0.22559,1.02715 -0.89261,2.20545 -1.48224,2.61844 -0.58964,0.413 -1.07207,1.12412 -1.07207,1.58027 0,0.45616 -0.24116,0.82937 -0.53591,0.82937 -0.29475,0 -0.68678,0.47534 -0.87117,1.0563 -0.38906,1.22595 -9.8511,11.01104 -10.64747,11.01104 -0.29433,0 -1.12872,0.58182 -1.8542,1.29293 -0.72547,0.71111 -2.35338,1.8101 -3.61758,2.4422 -1.2642,0.6321 -2.38474,1.34321 -2.49009,1.58025 -0.10535,0.23704 -0.55788,0.43098 -1.00561,0.43098 -0.44774,0 -0.81407,0.25858 -0.81407,0.57463 0,0.31605 -0.51717,0.57464 -1.14927,0.57464 -0.6321,0 -1.14927,0.23804 -1.14927,0.52897 0,0.29094 -0.83191,0.7117 -1.8487,0.93502 -1.01679,0.22333 -2.24507,0.60158 -2.72952,0.84057 -2.26328,1.11653 -4.03524,1.73054 -7.48912,2.5951 -2.05432,0.51422 -4.18414,1.17369 -4.73294,1.46546 -0.5488,0.29177 -1.90638,0.5305 -3.01684,0.5305 -1.11045,0 -2.01902,0.22519 -2.01902,0.50043 0,0.27525 -2.13333,0.6716 -4.74074,0.88079 -5.74613,0.461 -10.19977,1.48397 -10.19977,2.34282 0,0.34849 0.90505,1.59313 2.01122,2.76588 1.10617,1.17275 2.01122,2.39026 2.01122,2.70558 0,0.31531 0.21962,0.5733 0.48804,0.5733 0.26843,0 0.96791,1.16363 1.5544,2.58586 0.5865,1.42222 1.27193,2.58586 1.52319,2.58586 0.25125,0 0.45682,0.62491 0.45682,1.3887 0,0.76378 0.26849,1.4782 0.59664,1.58758 0.32815,0.10938 0.75424,2.07868 0.94685,4.37621 0.19262,2.29753 0.57059,4.31353 0.83995,4.48 0.26936,0.16647 0.48974,12.18236 0.48974,26.70198 0,17.21645 0.19988,26.39931 0.57463,26.39931 0.31605,0 0.57464,0.41107 0.57464,0.9135 0,1.32257 2.33371,3.06759 4.13219,3.08983 0.85048,0.0105 1.70615,0.2777 1.90148,0.59375 0.19533,0.31605 0.97108,0.57463 1.7239,0.57463 0.75282,0 1.52858,-0.25858 1.72391,-0.57463 0.19533,-0.31605 1.24493,-0.57464 2.33245,-0.57464 1.08752,0 1.97731,-0.22922 1.97731,-0.50939 0,-0.28016 1.16364,-0.68388 2.58586,-0.89716 1.42222,-0.21327 2.58586,-0.63051 2.58586,-0.9272 0,-0.29668 0.64646,-0.53942 1.43659,-0.53942 0.79012,0 1.43659,-0.25859 1.43659,-0.57464 0,-0.31605 0.50191,-0.57463 1.11535,-0.57463 0.61345,0 1.25706,-0.22928 1.43025,-0.5095 0.17318,-0.28022 1.22279,-0.67981 2.33245,-0.88799 1.10966,-0.20817 2.01757,-0.62537 2.01757,-0.92709 0,-0.30173 0.51717,-0.5486 1.14927,-0.5486 0.6321,0 1.14927,-0.25859 1.14927,-0.57463 0,-0.31605 0.38788,-0.57464 0.86195,-0.57464 0.47408,0 0.86196,-0.22981 0.86196,-0.51068 0,-0.28088 0.90505,-0.68048 2.01122,-0.88799 1.10617,-0.20752 2.01122,-0.57591 2.01122,-0.81866 0,-0.24273 0.90505,-0.79645 2.01123,-1.23048 1.10617,-0.43403 2.01122,-0.97143 2.01122,-1.19423 0,-0.2228 0.64646,-0.56734 1.43659,-0.76565 0.79012,-0.19831 1.43659,-0.61422 1.43659,-0.92424 0,-0.31003 0.51717,-0.56369 1.14927,-0.56369 0.63209,0 1.14927,-0.22843 1.14927,-0.50762 0,-0.27918 0.45252,-0.65956 1.00561,-0.84527 1.38148,-0.46386 3.10503,-1.61137 4.22541,-2.81322 0.5156,-0.55308 1.21188,-1.00561 1.5473,-1.00561 0.33541,0 0.95155,-0.33428 1.36918,-0.74285 0.41764,-0.40856 2.5048,-1.98278 4.63813,-3.49825 2.13333,-1.51547 3.87879,-2.97386 3.87879,-3.24087 0,-0.26701 0.56671,-0.66534 1.25935,-0.88518 1.33519,-0.42377 21.15142,-19.92452 21.15142,-20.81468 0,-0.2876 0.84041,-1.45008 1.86757,-2.58329 3.52334,-3.88712 5.02805,-5.85724 5.02805,-6.58321 0,-0.39978 0.24646,-0.72687 0.54768,-0.72687 0.30122,0 0.97715,-0.90505 1.50206,-2.01122 0.52492,-1.10617 1.18351,-2.01122 1.46355,-2.01122 0.28004,0 0.50916,-0.38788 0.50916,-0.86195 0,-0.47408 0.25366,-0.86196 0.56369,-0.86196 0.31003,0 0.72594,-0.64646 0.92425,-1.43659 0.19831,-0.79012 0.54883,-1.43658 0.77893,-1.43658 0.23011,0 1.16066,-1.48687 2.06788,-3.30416 0.90723,-1.81728 1.82327,-3.43344 2.03564,-3.59147 0.68571,-0.51023 6.27159,-12.47883 6.27159,-13.43784 0,-0.51042 0.25858,-0.92804 0.57463,-0.92804 0.31605,0 0.57464,-0.50191 0.57464,-1.11535 0,-0.61345 0.25858,-1.27518 0.57463,-1.47051 0.31605,-0.19533 0.57464,-0.85705 0.57464,-1.4705 0,-0.61345 0.23432,-1.11535 0.52071,-1.11535 0.28639,0 0.69854,-1.29293 0.91588,-2.87318 0.21733,-1.58025 0.62948,-2.87318 0.91587,-2.87318 0.28639,0 0.52071,-0.64646 0.52071,-1.43659 0,-0.79012 0.25859,-1.43658 0.57464,-1.43658 0.31605,0 0.57463,-0.7605 0.57463,-1.68999 0,-0.9295 0.24664,-1.84243 0.54809,-2.02873 0.30144,-0.1863 0.72272,-1.88237 0.93617,-3.76904 0.21345,-1.88668 0.61328,-3.43031 0.88851,-3.43031 0.27522,0 0.50041,-1.16364 0.50041,-2.58586 0,-1.42222 0.23363,-2.58586 0.51918,-2.58586 0.28554,0 0.66388,-1.22828 0.84075,-2.72952 0.17686,-1.50123 0.5713,-4.7982 0.87652,-7.3266 0.71685,-5.93814 0.71968,-34.82761 0.004,-40.7991 -1.07738,-8.98946 -1.20848,-9.77499 -1.72152,-10.3147 -0.28544,-0.30025 -0.51895,-1.52853 -0.51895,-2.72952 0,-1.20099 -0.20541,-2.18361 -0.45647,-2.18361 -0.25106,0 -0.77107,-1.74546 -1.15557,-3.87879 -1.0942,-6.07098 -1.35569,-7.03928 -1.90099,-7.03928 -0.28018,0 -0.50942,-0.64647 -0.50942,-1.43659 0,-0.79012 -0.22922,-1.43659 -0.50939,-1.43659 -0.28016,0 -0.68804,-1.19139 -0.9064,-2.64753 -0.21837,-1.45614 -0.89419,-3.5327 -1.50184,-4.61456 -0.60765,-1.08186 -1.10481,-2.34704 -1.10481,-2.8115 0,-0.46446 -0.25859,-0.84448 -0.57464,-0.84448 -0.31605,0 -0.57623,-0.45252 -0.57817,-1.00561 -0.002,-0.55308 -0.38983,-1.74628 -0.86196,-2.65154 -0.47212,-0.90527 -0.85841,-2.00426 -0.85841,-2.4422 0,-0.43795 -0.25859,-0.79627 -0.57463,-0.79627 -0.31605,0 -0.57464,-0.51717 -0.57464,-1.14927 0,-0.6321 -0.25859,-1.14927 -0.57463,-1.14927 -0.31605,0 -0.57464,-0.28415 -0.57464,-0.63145 0,-0.98406 -1.86682,-4.71138 -2.94999,-5.88998 -0.53701,-0.58432 -1.14779,-1.74537 -1.35729,-2.5801 -0.20951,-0.83474 -0.5766,-1.64959 -0.81577,-1.81078 -0.6751,-0.455 -4.64575,-6.85416 -4.64575,-7.48718 0,-0.30991 -0.20283,-0.56347 -0.45074,-0.56347 -0.24791,0 -0.94063,-0.84041 -1.5394,-1.86757 -0.59876,-1.02716 -1.55957,-2.28577 -2.13512,-2.79692 -0.57555,-0.51114 -1.04646,-1.16025 -1.04646,-1.44245 0,-0.71177 -2.79639,-3.66186 -3.47106,-3.66186 -0.30326,0 -0.55138,-0.46317 -0.55138,-1.02926 0,-0.56609 -0.9697,-1.95086 -2.15488,-3.07727 -1.94112,-1.84487 -6.51574,-6.88972 -7.50979,-8.28175 -0.2153,-0.30149 -2.07226,-1.96551 -4.12658,-3.69783 -2.05432,-1.73232 -4.47914,-3.99334 -5.3885,-5.02448 -0.90935,-1.03115 -1.94369,-1.87757 -2.29854,-1.88094 -0.35484,-0.003 -1.52189,-0.90841 -2.59344,-2.01122 -1.07155,-1.10281 -2.20485,-2.00511 -2.51846,-2.00511 -0.3136,0 -0.98839,-0.47091 -1.49953,-1.04645 -0.51115,-0.57555 -1.76977,-1.53636 -2.79693,-2.13512 -1.02716,-0.59877 -1.86756,-1.2915 -1.86756,-1.53941 0,-0.2479 -0.51717,-0.45073 -1.14927,-0.45073 -0.6321,0 -1.14927,-0.26277 -1.14927,-0.58394 0,-0.32116 -0.90505,-1.01552 -2.01123,-1.54301 -1.10617,-0.5275 -2.01122,-1.16978 -2.01122,-1.42729 0,-0.25752 -0.38788,-0.46821 -0.86195,-0.46821 -0.47408,0 -0.86195,-0.20064 -0.86195,-0.44585 0,-0.24521 -1.16119,-0.95632 -2.58042,-1.58025 -1.41923,-0.62392 -2.58287,-1.32833 -2.58586,-1.56537 -0.003,-0.23704 -0.39332,-0.43098 -0.86739,-0.43098 -0.47408,0 -0.86196,-0.25858 -0.86196,-0.57463 0,-0.31605 -0.45252,-0.58286 -1.00561,-0.59291 -0.55309,-0.0101 -1.50756,-0.39794 -2.12105,-0.86195 -0.61349,-0.46403 -1.58319,-0.84368 -2.15488,-0.84368 -0.5717,0 -1.03944,-0.25859 -1.03944,-0.57464 0,-0.31605 -0.38788,-0.57463 -0.86196,-0.57463 -0.47407,0 -0.86195,-0.22981 -0.86195,-0.51069 0,-0.28087 -0.93689,-0.68644 -2.08197,-0.90126 -1.88323,-0.3533 -4.06256,-1.27715 -4.81365,-2.04059 -0.50015,-0.50837 -5.99037,-2.29963 -7.03928,-2.29666 -0.55309,0.002 -1.00562,-0.25574 -1.00562,-0.57179 0,-0.31605 -0.6312,-0.57464 -1.40267,-0.57464 -0.77147,0 -1.56249,-0.25858 -1.75782,-0.57463 -0.19533,-0.31605 -0.98635,-0.57464 -1.75782,-0.57464 -0.77147,0 -1.40267,-0.24574 -1.40267,-0.5461 0,-0.30035 -1.55152,-0.72164 -3.44782,-0.93618 -1.89629,-0.21454 -3.44781,-0.61526 -3.44781,-0.89048 0,-0.27523 -0.90505,-0.50041 -2.01122,-0.50041 -1.10617,0 -2.01122,-0.25859 -2.01122,-0.57464 0,-0.31605 -0.98263,-0.57463 -2.18362,-0.57463 -1.20099,0 -2.42927,-0.24343 -2.72951,-0.54094 -0.30025,-0.29751 -3.20434,-0.72289 -6.45353,-0.94531 -3.24918,-0.22241 -6.04425,-0.62545 -6.21123,-0.89565 -0.167,-0.27021 -2.98826,-0.49128 -6.26948,-0.49128 -3.35737,0 -6.12112,-0.25125 -6.32098,-0.57464 -0.47007,-0.76058 -13.89582,-0.76058 -14.36588,0 -0.19828,0.32083 -2.88175,0.57464 -6.07539,0.57464 -3.14612,0 -6.16925,0.24709 -6.71805,0.5491 -0.5488,0.302 -3.51902,0.71402 -6.6005,0.91558 -3.08148,0.20157 -5.6027,0.60093 -5.6027,0.88748 0,0.28656 -1.16363,0.52102 -2.58586,0.52102 -1.42222,0 -2.58585,0.25858 -2.58585,0.57463 0,0.31605 -0.90505,0.57464 -2.01123,0.57464 -1.10617,0 -2.01122,0.22518 -2.01122,0.50041 0,0.27522 -1.55152,0.67594 -3.44781,0.89048 -1.8963,0.21454 -3.44781,0.63583 -3.44781,0.93618 0,0.30036 -0.63121,0.5461 -1.40268,0.5461 -0.77147,0 -1.56249,0.25859 -1.75782,0.57464 -0.19533,0.31605 -0.98635,0.57463 -1.75782,0.57463 -0.77147,0 -1.40267,0.25859 -1.40267,0.57464 0,0.31605 -0.45253,0.57335 -1.00561,0.57179 -1.31787,-0.003 -6.69703,1.89046 -6.94351,2.44504 -0.10535,0.23704 -0.68717,0.43098 -1.29293,0.43098 -0.60576,0 -1.10139,0.23586 -1.10139,0.52412 0,0.28828 -1.03434,0.69888 -2.29854,0.91247 -1.26419,0.21358 -2.29854,0.62419 -2.29854,0.91246 0,0.28827 -0.38788,0.52413 -0.86195,0.52413 -0.47407,0 -0.86195,0.25858 -0.86195,0.57463 0,0.31605 -0.46775,0.57464 -1.03944,0.57464 -0.5717,0 -1.54139,0.37965 -2.15489,0.84368 -0.61349,0.46401 -1.56796,0.85189 -2.12105,0.86195 -0.55308,0.01 -1.00561,0.27686 -1.00561,0.59291 0,0.31605 -0.38788,0.57463 -0.86195,0.57463 -0.47408,0 -0.8644,0.19394 -0.8674,0.43098 -0.003,0.23704 -1.16663,0.94145 -2.58586,1.56537 -1.41922,0.62393 -2.58041,1.33504 -2.58041,1.58025 0,0.24521 -0.38788,0.44585 -0.86196,0.44585 -0.47407,0 -0.86195,0.21069 -0.86195,0.46821 0,0.25751 -0.90505,0.89979 -2.01122,1.42729 -1.10617,0.52749 -2.01123,1.22185 -2.01123,1.54301 0,0.32117 -0.51717,0.58394 -1.14927,0.58394 -0.63209,0 -1.14927,0.20283 -1.14927,0.45073 0,0.24791 -0.8404,0.94064 -1.86756,1.53941 -1.02716,0.59876 -2.25544,1.51909 -2.72952,2.04517 -0.47407,0.52609 -1.14925,1.06164 -1.5004,1.19012 -1.02681,0.3757 -4.87442,3.48323 -7.5731,6.11642 -1.37256,1.33926 -3.70374,3.40795 -5.1804,4.59708 -2.59543,2.09007 -6.95872,6.54618 -8.73151,8.91724 -0.47407,0.63406 -1.83165,2.07805 -3.01683,3.20887 -1.18519,1.13081 -2.15764,2.32524 -2.161,2.65429 -0.003,0.32906 -0.90842,1.47501 -2.01123,2.54655 -1.1028,1.07155 -2.0051,2.20486 -2.0051,2.51846 0,0.3136 -0.47091,0.9884 -1.04646,1.49954 -0.57555,0.51115 -1.53635,1.76976 -2.13512,2.79692 -0.59876,1.02716 -1.29149,1.86757 -1.5394,1.86757 -0.2479,0 -0.45074,0.2471 -0.45074,0.54911 0,0.52813 -2.23442,4.16843 -3.43972,5.60396 -0.3205,0.38172 -0.58272,0.96354 -0.58272,1.29293 0,0.32939 -0.23805,0.59889 -0.52898,0.59889 -0.29094,0 -0.69937,0.77576 -0.90761,1.72391 -0.20825,0.94814 -0.61668,1.7239 -0.90762,1.7239 -0.29093,0 -0.52897,0.38788 -0.52897,0.86195 0,0.47408 -0.19758,0.86196 -0.43908,0.86196 -0.46149,0 -2.4341,4.19438 -2.4341,5.17566 0,0.31388 -0.25858,0.57069 -0.57463,0.57069 -0.31605,0 -0.57464,0.51717 -0.57464,1.14927 0,0.6321 -0.21658,1.14927 -0.4813,1.14927 -0.26472,0 -0.97473,1.48687 -1.5778,3.30415 -0.60307,1.81729 -1.2273,3.43345 -1.38717,3.59147 -0.29717,0.29372 -1.51092,2.82349 -2.3435,4.8844 -0.25536,0.6321 -0.64152,2.04584 -0.85814,3.14164 -0.21661,1.09579 -0.58938,2.38872 -0.82837,2.87317 -1.55683,3.15582 -2.85401,7.4956 -3.256657,10.89531 -0.189865,1.60314 -0.56778,2.9148 -0.839806,2.9148 -0.272027,0 -0.494595,0.98262 -0.494595,2.18361 0,1.20099 -0.233514,2.42927 -0.518924,2.72952 -0.285404,0.30025 -0.663617,1.70954 -0.840473,3.13176 -0.17685,1.42222 -0.573813,4.52525 -0.88214,6.89562 -0.722098,5.55143 -0.718443,35.09294 0.0052,41.08642 0.305223,2.5284 0.699659,5.82537 0.876526,7.3266 0.176867,1.50124 0.555206,2.72952 0.840748,2.72952 0.285548,0 0.519178,1.01908 0.519178,2.26463 0,1.24554 0.224533,2.40339 0.498955,2.573 0.274429,0.1696 0.674254,1.8578 0.888507,3.75154 0.214251,1.89374 0.636191,3.5956 0.937631,3.7819 0.30145,0.1863 0.54808,1.09923 0.54808,2.02873 0,0.92949 0.25859,1.68999 0.57464,1.68999 0.31605,0 0.57464,0.64646 0.57464,1.43658 0,0.79013 0.23431,1.43659 0.52071,1.43659 0.28639,0 0.69853,1.29293 0.91587,2.87318 0.21734,1.58025 0.62949,2.87318 0.91588,2.87318 0.28639,0 0.52071,0.5019 0.52071,1.11535 0,0.61345 0.25859,1.27517 0.57464,1.4705 0.31605,0.19533 0.57463,0.85706 0.57463,1.47051 0,0.61344 0.25859,1.11535 0.57464,1.11535 0.31605,0 0.57622,0.45253 0.57817,1.00561 0.002,0.55309 0.38983,1.74629 0.86195,2.65155 0.47213,0.90526 0.85842,2.00425 0.85842,2.4422 0,0.43795 0.25858,0.79627 0.57463,0.79627 0.31605,0 0.57464,0.51717 0.57464,1.14927 0,0.63209 0.23055,1.14927 0.51234,1.14927 0.28179,0 0.68686,0.69533 0.90016,1.5452 0.35185,1.4019 2.29499,4.63862 3.21208,5.35042 0.2036,0.15802 0.52928,0.93892 0.72374,1.73534 0.19445,0.79641 0.81609,1.96711 1.3814,2.60154 0.56532,0.63444 1.5211,2.11616 2.12395,3.29272 0.60286,1.17656 1.31397,2.1392 1.58025,2.1392 0.26628,0 0.48415,0.29882 0.48415,0.66405 0,0.36523 0.64646,1.51161 1.43659,2.54752 0.79012,1.03591 1.43658,2.03925 1.43658,2.22965 0,0.3541 1.15242,1.72439 4.45343,5.29537 1.02716,1.11117 1.86756,2.26893 1.86756,2.5728 0,0.80117 21.00541,21.74336 21.80899,21.74336 0.37179,0 1.32874,0.77575 2.12655,1.7239 0.79782,0.94815 1.77924,1.72391 2.18095,1.72391 0.40172,0 1.21586,0.64646 1.80922,1.43659 0.59336,0.79012 1.50696,1.43658 2.03023,1.43658 0.52327,0 1.10025,0.38788 1.28217,0.86196 0.18192,0.47407 0.72675,0.86195 1.21075,0.86195 0.48399,0 0.87999,0.25859 0.87999,0.57464 0,0.31605 0.38787,0.57463 0.86195,0.57463 0.47407,0 0.86195,0.21787 0.86195,0.48415 0,0.26628 0.96264,0.97739 2.1392,1.58025 1.17656,0.60285 2.64754,1.54862 3.26885,2.10171 0.62131,0.55308 1.40757,1.00561 1.74726,1.00561 0.33968,0 1.94381,0.89311 3.56472,1.9847 1.62091,1.09158 3.6215,2.15396 4.44575,2.36083 0.82426,0.20688 1.49864,0.60669 1.49864,0.88848 0,0.28179 0.51717,0.51234 1.14927,0.51234 0.6321,0 1.14927,0.21659 1.14927,0.4813 0,0.26472 1.48687,0.97473 3.30416,1.5778 1.81728,0.60307 3.43344,1.22689 3.59147,1.38626 0.76784,0.77439 2.98164,1.72636 4.01465,1.72636 0.63638,0 1.15706,0.23586 1.15706,0.52412 0,0.28827 1.03299,0.69865 2.29553,0.91195 1.26255,0.21331 2.44144,0.62392 2.61978,0.91247 0.17833,0.28855 0.94018,0.52463 1.693,0.52463 0.75282,0 1.52857,0.25859 1.7239,0.57464 0.19533,0.31605 1.35897,0.57463 2.58586,0.57463 1.2269,0 2.39053,-0.25858 2.58586,-0.57463 z"
       id="path1" />
  </g>
</svg>
